<svg width="64" height="64" viewBox="0 0 64 64" fill="none" xmlns="http://www.w3.org/2000/svg">
<g clip-path="url(#clip0_763_1080)">
<path d="M60.9203 18.285C60.6981 17.8172 60.1385 17.6182 59.6713 17.8405C59.2035 18.0626 59.0045 18.6219 59.2266 19.0896C61.1501 23.1385 62.1254 27.4822 62.1254 32.0001C62.1254 40.0469 58.9919 47.6119 53.302 53.3017C47.6123 58.9916 40.0471 62.1251 32.0004 62.1251C27.2283 62.1251 22.6645 61.0421 18.4363 58.9062C14.9131 57.1265 11.7303 54.6279 9.14577 51.6254L12.8446 52.8584C13.3358 53.0221 13.8668 52.7566 14.0305 52.2654C14.1943 51.7741 13.9288 51.2432 13.4375 51.0795L6.78127 48.8607C6.47302 48.7581 6.13352 48.8221 5.88415 49.0304C5.63477 49.2386 5.5109 49.5611 5.55677 49.8827L6.66615 57.6484C6.73302 58.116 7.13402 58.4534 7.59315 58.4534C7.63727 58.4534 7.6819 58.4502 7.7269 58.4439C8.23952 58.3706 8.59565 57.8957 8.5224 57.3832L7.9034 53.0504C10.6158 56.1479 13.9293 58.7301 17.591 60.5799C22.0838 62.8494 26.9318 64.0001 32.0004 64.0001C40.5479 64.0001 48.5839 60.6715 54.6279 54.6276C60.6718 48.5835 64.0004 40.5476 64.0004 32.0001C64.0004 27.2017 62.9641 22.5874 60.9203 18.285Z" fill="#E95322"/>
<path d="M58.4437 14.1175L57.3344 6.35187C57.2611 5.83925 56.7851 5.48338 56.2738 5.55638C55.7611 5.62962 55.405 6.1045 55.4782 6.617L56.0966 10.9455C50.0085 3.97 41.3172 0 32 0C23.4525 0 15.4166 3.32863 9.3725 9.3725C3.32863 15.4166 0 23.4525 0 32C0 36.7985 1.03638 41.413 3.08013 45.7151C3.24063 46.053 3.57687 46.2506 3.92762 46.2506C4.06238 46.2506 4.19937 46.2214 4.32925 46.1596C4.79688 45.9375 4.99587 45.3783 4.77375 44.9105C2.85025 40.8619 1.875 36.5181 1.875 32C1.875 23.9533 5.0085 16.3883 10.6984 10.6984C16.3883 5.0085 23.9533 1.875 32 1.875C40.857 1.875 49.1129 5.68675 54.852 12.3739L51.1559 11.1419C50.6644 10.9779 50.1336 11.2436 49.97 11.7349C49.8064 12.2261 50.0716 12.757 50.5629 12.9207L57.2191 15.1395C57.3161 15.1718 57.4161 15.1876 57.5155 15.1876C57.732 15.1876 57.9453 15.1126 58.1164 14.9699C58.3657 14.7616 58.4896 14.4391 58.4437 14.1175Z" fill="#E95322"/>
<path d="M29.3956 42.0844H19.9651C20.3417 38.8032 22.6734 36.6017 25.1296 34.2824C27.6879 31.8669 30.3331 29.3692 30.3331 25.6184C30.3331 22.5425 27.5751 20.04 24.1851 20.04C20.7951 20.04 18.0371 22.5425 18.0371 25.6184C18.0371 26.1362 18.4569 26.5559 18.9746 26.5559C19.4924 26.5559 19.9121 26.1362 19.9121 25.6184C19.9121 23.5764 21.8289 21.915 24.1851 21.915C26.5414 21.915 28.4581 23.5764 28.4581 25.6184C28.4581 28.5609 26.216 30.6779 23.8424 32.9192C21.1212 35.4884 18.0371 38.4005 18.0371 43.0219C18.0371 43.5397 18.4569 43.9594 18.9746 43.9594H29.3956C29.9134 43.9594 30.3331 43.5397 30.3331 43.0219C30.3331 42.5042 29.9134 42.0844 29.3956 42.0844Z" fill="#E95322"/>
<path d="M45.028 36.0722H43.9615V20.9775C43.9615 20.4598 43.5418 20.04 43.024 20.04C42.5061 20.04 42.0865 20.4598 42.0865 20.9775V36.0723H34.1335L36.9312 21.1504C37.0267 20.6415 36.6915 20.1515 36.1826 20.0562C35.6742 19.9613 35.184 20.2959 35.0885 20.8048L32.0825 36.837C32.0311 37.1112 32.1043 37.3939 32.2825 37.6085C32.4606 37.8232 32.725 37.9473 33.0038 37.9473H42.0865V43.0219C42.0865 43.5395 42.5061 43.9593 43.024 43.9593C43.5418 43.9593 43.9615 43.5395 43.9615 43.0218V37.9472H45.028C45.5458 37.9472 45.9655 37.5274 45.9655 37.0097C45.9655 36.4919 45.5458 36.0722 45.028 36.0722Z" fill="#E95322"/>
<path d="M32 5.01001C31.4822 5.01001 31.0625 5.42976 31.0625 5.94751V9.95551C31.0625 10.4733 31.4822 10.893 32 10.893C32.5179 10.893 32.9375 10.4733 32.9375 9.95551V5.94751C32.9375 5.42976 32.5179 5.01001 32 5.01001Z" fill="#E95322"/>
<path d="M32 53.1064C31.4822 53.1064 31.0625 53.5262 31.0625 54.0439V58.0519C31.0625 58.5697 31.4822 58.9894 32 58.9894C32.5179 58.9894 32.9375 58.5697 32.9375 58.0519V54.0439C32.9375 53.5262 32.5179 53.1064 32 53.1064Z" fill="#E95322"/>
<path d="M58.051 31.0625H54.043C53.5251 31.0625 53.1055 31.4822 53.1055 32C53.1055 32.5178 53.5251 32.9375 54.043 32.9375H58.051C58.5688 32.9375 58.9885 32.5178 58.9885 32C58.9885 31.4822 58.5688 31.0625 58.051 31.0625Z" fill="#E95322"/>
<path d="M9.95478 31.0625H5.94678C5.42903 31.0625 5.00928 31.4822 5.00928 32C5.00928 32.5178 5.42903 32.9375 5.94678 32.9375H9.95478C10.4725 32.9375 10.8923 32.5178 10.8923 32C10.8923 31.4822 10.4725 31.0625 9.95478 31.0625Z" fill="#E95322"/>
</g>
<defs>
<clipPath id="clip0_763_1080">
<rect width="64" height="64" fill="white"/>
</clipPath>
</defs>
</svg>
