<svg width="64" height="64" viewBox="0 0 64 64" fill="none" xmlns="http://www.w3.org/2000/svg">
<path d="M13.9653 49.6003C12.8958 49.6003 12.0256 50.4703 12.0256 51.5398C12.0256 52.6093 12.8958 53.4793 13.9653 53.4793C15.0348 53.4793 15.9048 52.6093 15.9048 51.5398C15.9048 50.4703 15.0348 49.6003 13.9653 49.6003Z" fill="#E95322"/>
<path d="M54.0425 49.6003C52.973 49.6003 52.103 50.4703 52.103 51.5398C52.103 52.6093 52.973 53.4793 54.0425 53.4793C55.112 53.4793 55.9822 52.6093 55.9822 51.5398C55.9822 50.4703 55.112 49.6003 54.0425 49.6003Z" fill="#E95322"/>
<path d="M61.9886 37.1672L54.7705 34.7612L51.3971 25.484C50.976 24.3257 49.865 23.5476 48.6326 23.5476H39.9518V21.4791C39.9518 20.4096 39.0816 19.5396 38.0121 19.5396H23.5289C25.265 18.5132 27.3781 17.1901 28.9802 15.9529C30.3899 16.4952 31.4118 17.2457 31.4375 17.2649C31.8511 17.5752 32.4384 17.4919 32.7492 17.0785C33.0604 16.6646 32.9772 16.077 32.5635 15.7657C32.49 15.7105 31.7157 15.138 30.5504 14.5859C30.7261 14.404 30.8799 14.2282 31.0063 14.0605C32.5696 11.9855 32.1534 9.02549 30.0783 7.46211C29.0731 6.70474 27.8331 6.38424 26.5869 6.55949C25.3405 6.73474 24.2371 7.38499 23.48 8.39011C22.2617 10.0071 20.8699 14.131 19.9759 17.0774C19.0819 14.131 17.6899 10.0071 16.4718 8.39011C14.9081 6.31511 11.9481 5.89899 9.8735 7.46211C7.7985 9.02536 7.38213 11.9854 8.94538 14.0605C9.07175 14.2281 9.22538 14.404 9.40112 14.5857C8.23588 15.138 7.46175 15.7105 7.38825 15.7657C6.97437 16.077 6.89125 16.6646 7.2025 17.0785C7.51388 17.4922 8.10138 17.5755 8.51525 17.2641C8.53413 17.25 9.55412 16.4942 10.9672 15.9495C12.5699 17.1877 14.6854 18.5124 16.423 19.5396H1.93963C0.870125 19.5396 0 20.4097 0 21.4791V28.4932C0 29.011 0.419625 29.4307 0.9375 29.4307H1.00213V48.5336C1.00213 49.6031 1.87213 50.4731 2.94163 50.4731H8.11375C8.05075 50.8194 8.01612 51.1755 8.01612 51.5396C8.01612 54.8191 10.6842 57.4872 13.9637 57.4872C17.2431 57.4872 19.9112 54.8191 19.9112 51.5396C19.9112 51.1754 19.8766 50.8194 19.8136 50.4731H48.1945C48.1315 50.8194 48.0969 51.1755 48.0969 51.5396C48.0969 54.8191 50.765 57.4872 54.0444 57.4872C57.3239 57.4872 59.992 54.8191 59.992 51.5396C59.992 51.0764 59.937 50.6259 59.8364 50.1929L61.8201 49.201C63.1646 48.5286 64 47.1771 64 45.6737V39.9579C64 38.6897 63.1916 37.5682 61.9886 37.1672ZM50.8371 29.4309L52.7059 34.57H50.693L48.8242 29.4309H50.8371ZM39.9518 25.4229H48.6326V25.4227C49.0795 25.4227 49.4824 25.7049 49.635 26.1249L50.1554 27.5559H39.9518V25.4229ZM39.0143 29.4307H46.8291L48.6979 34.5699H38.9497V29.4307H39.0143ZM24.9775 9.51836C25.4334 8.91311 26.0977 8.52174 26.848 8.41624C26.9821 8.39736 27.116 8.38799 27.249 8.38799C27.8606 8.38799 28.453 8.58511 28.95 8.95961C29.5551 9.41549 29.9465 10.0799 30.052 10.8301C30.1575 11.5804 29.9645 12.3269 29.5085 12.932C29.303 13.2047 28.9901 13.5167 28.599 13.8542C27.2679 13.4899 25.7395 13.3555 24.2383 13.8464C23.7166 14.0169 23.2261 14.2526 22.767 14.553C23.5036 12.4162 24.312 10.4019 24.9775 9.51836ZM24.8145 15.6309C25.3819 15.4444 25.9665 15.3834 26.5425 15.4075C25.0679 16.4237 23.3296 17.4847 21.8621 18.339C22.6414 16.9299 23.6286 16.0207 24.8145 15.6309ZM18.9093 21.4146H21.0422V44.59H18.9093V21.4146ZM10.4429 12.9322C9.50175 11.683 9.7525 9.90086 11.0016 8.95974C11.5119 8.57536 12.1108 8.38974 12.7051 8.38974C13.5661 8.38974 14.4174 8.77936 14.9741 9.51836C15.6397 10.4019 16.4481 12.4161 17.1845 14.5531C16.7254 14.2527 16.2348 14.017 15.7133 13.8465C14.2118 13.3554 12.6831 13.4897 11.352 13.8542C10.9611 13.5169 10.6484 13.205 10.4429 12.9322ZM13.4059 15.4052C13.9798 15.3821 14.5631 15.443 15.1306 15.6286C16.3195 16.0174 17.309 16.9274 18.0899 18.3392C16.6211 17.4844 14.8814 16.4224 13.4059 15.4052ZM1.875 21.4791C1.875 21.4435 1.90387 21.4146 1.93963 21.4146H17.0344V27.5557H1.875V21.4791ZM17.0343 29.4307V44.59H2.87713V29.4307H17.0343ZM8.79762 48.5981H2.9415C2.906 48.5981 2.877 48.5692 2.877 48.5336V46.4651H10.8652C10.0092 46.9897 9.29662 47.7252 8.79762 48.5981ZM13.9637 55.6122C11.7181 55.6122 9.89112 53.7852 9.89112 51.5396C9.89112 49.294 11.7181 47.467 13.9637 47.467C16.2094 47.467 18.0362 49.294 18.0362 51.5396C18.0362 53.7852 16.2094 55.6122 13.9637 55.6122ZM37.0746 48.5981H19.1296C18.6306 47.7252 17.9181 46.9896 17.0621 46.4651H37.0746V48.5981ZM37.0746 44.59H22.9174V29.4307H37.0746V44.59ZM38.0766 27.5557H38.012H22.9174V21.4146H38.0121C38.0477 21.4146 38.0766 21.4436 38.0766 21.4791V27.5557ZM54.0443 55.6122C51.7986 55.6122 49.9717 53.7852 49.9717 51.5396C49.9717 49.294 51.7986 47.467 54.0443 47.467C56.2899 47.467 58.1169 49.294 58.1169 51.5396C58.1169 53.7852 56.2899 55.6122 54.0443 55.6122ZM62.125 41.584H61.0585C60.5406 41.584 60.121 42.0037 60.121 42.5215C60.121 43.0392 60.5406 43.459 61.0585 43.459H62.125V45.6737C62.125 46.4624 61.6869 47.1712 60.9815 47.524L59.1258 48.4519C58.0806 46.7385 56.1939 45.5921 54.0444 45.5921C51.8346 45.5921 49.9038 46.8045 48.8785 48.5981H38.9497V43.459H57.0506C57.5685 43.459 57.9881 43.0392 57.9881 42.5215C57.9881 42.0037 57.5685 41.584 57.0506 41.584H38.9496V36.445H53.8921L61.3957 38.9461C61.8319 39.0915 62.125 39.4981 62.125 39.9579V41.584Z" fill="#E95322"/>
</svg>
