<svg width="80" height="80" viewBox="0 0 80 80" fill="none" xmlns="http://www.w3.org/2000/svg">
<g clip-path="url(#clip0_12_3494)">
<path d="M40.0956 79.9999L80 39.9034L39.9044 -9.90577e-05L1.60809e-06 40.0965L40.0956 79.9999Z" fill="#ADE0EE"/>
<g clip-path="url(#clip1_12_3494)">
<path d="M33.2604 30.7243V26.7243C33.2604 26.3706 33.4009 26.0315 33.6509 25.7815C33.901 25.5314 34.2401 25.3909 34.5938 25.3909H45.2604C45.614 25.3909 45.9532 25.5314 46.2032 25.7815C46.4533 26.0315 46.5938 26.3706 46.5938 26.7243V30.7243H51.9271C52.2807 30.7243 52.6198 30.8647 52.8699 31.1148C53.1199 31.3648 53.2604 31.704 53.2604 32.0576V50.7243C53.2604 51.0779 53.1199 51.417 52.8699 51.6671C52.6198 51.9171 52.2807 52.0576 51.9271 52.0576H27.9271C27.5735 52.0576 27.2343 51.9171 26.9843 51.6671C26.7342 51.417 26.5938 51.0779 26.5938 50.7243V32.0576C26.5938 31.704 26.7342 31.3648 26.9843 31.1148C27.2343 30.8647 27.5735 30.7243 27.9271 30.7243H33.2604ZM29.2604 45.3909V49.3909H50.5938V45.3909H29.2604ZM29.2604 42.7243H50.5938V33.3909H29.2604V42.7243ZM35.9271 28.0576V30.7243H43.9271V28.0576H35.9271ZM38.5938 38.7243H41.2604V41.3909H38.5938V38.7243Z" fill="white"/>
</g>
</g>
<defs>
<clipPath id="clip0_12_3494">
<rect width="80" height="80" fill="white"/>
</clipPath>
<clipPath id="clip1_12_3494">
<rect width="32" height="32" fill="white" transform="translate(23.9277 24.0575)"/>
</clipPath>
</defs>
</svg>
