<svg width="80" height="80" viewBox="0 0 80 80" fill="none" xmlns="http://www.w3.org/2000/svg">
<g clip-path="url(#clip0_12_3480)">
<path d="M40.0956 79.8204L80 39.7238L39.9044 -0.1796L2.46279e-07 39.917L40.0956 79.8204Z" fill="#81D8E3"/>
<g clip-path="url(#clip1_12_3480)">
<path d="M40.0007 26.724C32.6367 26.724 26.6673 32.6933 26.6673 40.0573C26.6673 47.4213 32.6367 53.3907 40.0007 53.3907C47.3647 53.3907 53.334 47.4213 53.334 40.0573H50.6673C50.6673 45.948 45.8913 50.724 40.0007 50.724C34.11 50.724 29.334 45.948 29.334 40.0573C29.334 34.1667 34.11 29.3907 40.0007 29.3907C43.6673 29.3907 46.902 31.24 48.8207 34.0573H45.334V36.724H53.334V28.724H50.6673V32.0573C48.2353 28.8173 44.362 26.724 40.0007 26.724ZM38.6673 33.3907V39.504L34.3433 43.828L36.23 45.7147L41.334 40.608V33.3907H38.6673Z" fill="white"/>
</g>
</g>
<defs>
<clipPath id="clip0_12_3480">
<rect width="80" height="80" fill="white"/>
</clipPath>
<clipPath id="clip1_12_3480">
<rect width="32" height="32" fill="white" transform="translate(24 24.0575)"/>
</clipPath>
</defs>
</svg>
