<svg width="80" height="80" viewBox="0 0 80 80" fill="none" xmlns="http://www.w3.org/2000/svg">
<g clip-path="url(#clip0_12_3470)">
<path d="M40.0956 80.0001L80 39.9035L39.9044 5.01584e-05L8.35167e-06 40.0966L40.0956 80.0001Z" fill="#FCAE41"/>
<path d="M47.2601 26.6663C48.4825 26.6664 49.6758 27.0399 50.6802 27.7369C51.6846 28.4338 52.4521 29.4209 52.88 30.5661C53.3079 31.7112 53.3758 32.9597 53.0747 34.1445C52.7735 35.3293 52.1176 36.3939 51.1947 37.1957C51.6681 38.485 51.9267 39.8797 51.9267 41.333C51.9257 43.0862 51.5406 44.8179 50.7985 46.4062C50.0563 47.9946 48.9751 49.401 47.6309 50.5266C46.2868 51.6521 44.7123 52.4695 43.0183 52.9212C41.3243 53.3729 39.5519 53.4479 37.8258 53.141C36.0997 52.834 34.4618 52.1526 33.0274 51.1446C31.5929 50.1366 30.3968 48.8265 29.5231 47.3066C28.6494 45.7866 28.1193 44.0937 27.9702 42.3468C27.8211 40.6 28.0566 38.8417 28.6601 37.1957C28.0068 36.628 27.4842 35.9258 27.1278 35.1371C26.7715 34.3485 26.5901 33.4921 26.5958 32.6267C26.6016 31.7613 26.7945 30.9074 27.1613 30.1236C27.5282 29.3398 28.0602 28.6446 28.7209 28.0857C29.3817 27.5268 30.1555 27.1175 30.9893 26.8858C31.8231 26.6541 32.6972 26.6055 33.5515 26.7434C34.4059 26.8813 35.2203 27.2023 35.9389 27.6845C36.6575 28.1667 37.2633 28.7987 37.7147 29.537C39.1777 29.264 40.6785 29.264 42.1414 29.537C42.6768 28.6597 43.4288 27.9348 44.3252 27.4321C45.2216 26.9294 46.2323 26.6657 47.2601 26.6663ZM47.2601 29.333C46.1627 29.333 45.1601 29.8663 44.5427 30.7357L44.4161 30.9277L43.4587 32.4957L41.6521 32.1583C40.6548 31.9723 39.6341 31.9488 38.6294 32.089L38.2081 32.1583L36.4001 32.4983L35.4401 30.9303C35.1948 30.5285 34.8671 30.1832 34.4787 29.9172C34.0903 29.6512 33.65 29.4704 33.1867 29.3869C32.7234 29.3033 32.2477 29.3188 31.7908 29.4324C31.334 29.546 30.9064 29.755 30.5361 30.0458C30.1659 30.3366 29.8615 30.7025 29.6429 31.1194C29.4243 31.5363 29.2965 31.9949 29.2679 32.4647C29.2393 32.9346 29.3105 33.4053 29.4769 33.8456C29.6434 34.286 29.9012 34.6861 30.2334 35.0197L30.4081 35.1837L31.7961 36.389L31.1627 38.1157C30.6938 39.3959 30.5111 40.7632 30.6274 42.1216C30.7437 43.48 31.1562 44.7965 31.8358 45.9783C32.5155 47.1602 33.4458 48.1789 34.5614 48.9626C35.677 49.7463 36.9508 50.2761 38.2931 50.5148C39.6354 50.7534 41.0137 50.6951 42.3311 50.3439C43.6484 49.9927 44.8728 49.3571 45.9182 48.4819C46.9636 47.6067 47.8045 46.5131 48.3818 45.278C48.9592 44.0429 49.259 42.6964 49.2601 41.333C49.2601 40.3783 49.1174 39.445 48.8414 38.5557L48.6921 38.1157L48.0587 36.389L49.4454 35.1837C49.9584 34.7383 50.3232 34.1469 50.4907 33.4886C50.6583 32.8302 50.6207 32.1364 50.383 31.5C50.1453 30.8636 49.7188 30.315 49.1607 29.9277C48.6026 29.5404 47.9394 29.3329 47.2601 29.333ZM37.2601 41.333C37.2601 42.0402 37.541 42.7185 38.0411 43.2186C38.5412 43.7187 39.2195 43.9997 39.9267 43.9997C40.634 43.9997 41.3122 43.7187 41.8123 43.2186C42.3124 42.7185 42.5934 42.0402 42.5934 41.333H45.2601C45.2601 42.7475 44.6982 44.104 43.698 45.1042C42.6978 46.1044 41.3412 46.6663 39.9267 46.6663C38.5122 46.6663 37.1557 46.1044 36.1555 45.1042C35.1553 44.104 34.5934 42.7475 34.5934 41.333H37.2601Z" fill="white"/>
<circle cx="36.4277" cy="37.5003" r="1.5" fill="white"/>
<ellipse cx="43.4277" cy="37.5003" rx="1.5" ry="1.5" fill="white"/>
</g>
<defs>
<clipPath id="clip0_12_3470">
<rect width="80" height="80" fill="white"/>
</clipPath>
</defs>
</svg>
