<svg width="64" height="64" viewBox="0 0 64 64" fill="none" xmlns="http://www.w3.org/2000/svg">
<path d="M10.9568 56.1125H5.94678C5.42903 56.1125 5.00928 56.5323 5.00928 57.05C5.00928 57.5678 5.42903 57.9875 5.94678 57.9875H10.9569C11.4747 57.9875 11.8944 57.5678 11.8944 57.05C11.8944 56.5323 11.4745 56.1125 10.9568 56.1125Z" fill="#E95322"/>
<path d="M13.9628 52.105H5.94678C5.42903 52.105 5.00928 52.5247 5.00928 53.0425C5.00928 53.5602 5.42903 53.98 5.94678 53.98H13.9629C14.4807 53.98 14.9004 53.5602 14.9004 53.0425C14.9004 52.5247 14.4807 52.105 13.9628 52.105Z" fill="#E95322"/>
<path d="M62.0605 31.0625H48.4688V1.9395C48.4688 0.87 47.5988 0 46.5293 0H17.4708C16.4013 0 15.5312 0.87 15.5312 1.9395V31.0625H1.9395C0.87 31.0625 0 31.9325 0 33.002V62.0605C0 63.13 0.87 64 1.9395 64H62.0605C63.13 64 64 63.13 64 62.0605V33.002C64 31.9325 63.13 31.0625 62.0605 31.0625ZM49.0988 32.9375V41.0826H45.9636V32.9375H49.0988ZM33.5675 1.875V10.0201H30.4324V1.875H33.5675ZM14.9011 32.9375H18.0362V41.0826H14.9011V32.9375ZM62.0605 62.125H32.9375V32.9375H39.0141C39.5319 32.9375 39.9516 32.5177 39.9516 32C39.9516 31.4823 39.5319 31.0625 39.0141 31.0625H24.9859C24.4681 31.0625 24.0484 31.4823 24.0484 32C24.0484 32.5177 24.4681 32.9375 24.9859 32.9375H31.0625V62.125H1.9395C1.90387 62.125 1.875 62.0961 1.875 62.0605V33.002C1.875 32.9664 1.90387 32.9375 1.9395 32.9375H13.0261V42.0201C13.0261 42.5379 13.4459 42.9576 13.9636 42.9576H18.9737C19.4915 42.9576 19.9112 42.5379 19.9112 42.0201V32.9375H20.9772C21.495 32.9375 21.9147 32.5177 21.9147 32C21.9147 31.4823 21.495 31.0625 20.9772 31.0625H17.4062V1.9395C17.4062 1.90387 17.4351 1.875 17.4708 1.875H28.5574V10.9576C28.5574 11.4754 28.9771 11.8951 29.4949 11.8951H34.505C35.0228 11.8951 35.4425 11.4754 35.4425 10.9576V1.875H46.5291C46.5648 1.875 46.5936 1.90387 46.5936 1.9395V31.0625H43.0225C42.5047 31.0625 42.085 31.4823 42.085 32C42.085 32.5177 42.5047 32.9375 43.0225 32.9375H44.0885V42.0201C44.0885 42.5379 44.5083 42.9576 45.026 42.9576H50.0361C50.5539 42.9576 50.9736 42.5379 50.9736 42.0201V32.9375H62.0602C62.0959 32.9375 62.1247 32.9664 62.1247 33.002V62.0605H62.125C62.125 62.0961 62.0961 62.125 62.0605 62.125Z" fill="#E95322"/>
<path d="M42.0218 56.1125H37.0117C36.494 56.1125 36.0742 56.5323 36.0742 57.05C36.0742 57.5678 36.494 57.9875 37.0117 57.9875H42.0218C42.5396 57.9875 42.9593 57.5678 42.9593 57.05C42.9593 56.5323 42.5396 56.1125 42.0218 56.1125Z" fill="#E95322"/>
<path d="M45.0278 52.105H37.0117C36.494 52.105 36.0742 52.5247 36.0742 53.0425C36.0742 53.5602 36.494 53.98 37.0117 53.98H45.0278C45.5456 53.98 45.9653 53.5602 45.9653 53.0425C45.9653 52.5247 45.5457 52.105 45.0278 52.105Z" fill="#E95322"/>
<path d="M26.4906 25.05H21.4805C20.9627 25.05 20.543 25.4698 20.543 25.9875C20.543 26.5053 20.9627 26.925 21.4805 26.925H26.4906C27.0083 26.925 27.4281 26.5053 27.4281 25.9875C27.4281 25.4698 27.0083 25.05 26.4906 25.05Z" fill="#E95322"/>
<path d="M29.4966 21.0425H21.4805C20.9627 21.0425 20.543 21.4622 20.543 21.98C20.543 22.4977 20.9627 22.9175 21.4805 22.9175H29.4966C30.0143 22.9175 30.4341 22.4977 30.4341 21.98C30.4341 21.4622 30.0145 21.0425 29.4966 21.0425Z" fill="#E95322"/>
</svg>
