<svg width="80" height="80" viewBox="0 0 80 80" fill="none" xmlns="http://www.w3.org/2000/svg">
<g clip-path="url(#clip0_12_3456)">
<path d="M40.0956 80.0001L80 39.9035L39.9044 5.69019e-05L2.46279e-07 40.0966L40.0956 80.0001Z" fill="#FC813A"/>
<path d="M49.3327 53.3328H30.666C29.6051 53.3328 28.5877 52.9114 27.8376 52.1613C27.0874 51.4111 26.666 50.3937 26.666 49.3328V27.9995C26.666 27.6459 26.8065 27.3067 27.0565 27.0567C27.3066 26.8066 27.6457 26.6662 27.9993 26.6662H46.666C47.0196 26.6662 47.3588 26.8066 47.6088 27.0567C47.8589 27.3067 47.9994 27.6459 47.9994 27.9995V43.9995H53.3327V49.3328C53.3327 50.3937 52.9113 51.4111 52.1611 52.1613C51.411 52.9114 50.3936 53.3328 49.3327 53.3328ZM47.9994 46.6662V49.3328C47.9994 49.6865 48.1398 50.0256 48.3899 50.2756C48.6399 50.5257 48.9791 50.6662 49.3327 50.6662C49.6863 50.6662 50.0254 50.5257 50.2755 50.2756C50.5255 50.0256 50.666 49.6865 50.666 49.3328V46.6662H47.9994ZM45.3327 50.6662V29.3328H29.3327V49.3328C29.3327 49.6865 29.4732 50.0256 29.7232 50.2756C29.9733 50.5257 30.3124 50.6662 30.666 50.6662H45.3327ZM31.9993 33.3328H42.666V35.9995H31.9993V33.3328ZM31.9993 38.6662H42.666V41.3328H31.9993V38.6662ZM31.9993 43.9995H38.666V46.6662H31.9993V43.9995Z" fill="white"/>
</g>
<defs>
<clipPath id="clip0_12_3456">
<rect width="80" height="80" fill="white"/>
</clipPath>
</defs>
</svg>
