<svg width="64" height="64" viewBox="0 0 64 64" fill="none" xmlns="http://www.w3.org/2000/svg">
<g clip-path="url(#clip0_763_1122)">
<path d="M19.999 27.5089C19.999 30.9875 21.2661 34.5103 23.4753 37.1741C25.7986 39.9752 28.8315 41.5179 32.0151 41.5179C35.1983 41.5179 38.2275 39.976 40.5447 37.1764C42.7467 34.5159 44.0096 30.9945 44.0096 27.515V24.4503C44.9001 20.6154 45.0869 17.2967 45.0855 15.1799C45.0836 12.4469 44.7864 10.5587 44.5089 9.70292C44.3615 9.2483 43.9194 8.97217 43.4624 9.01642C43.3869 9.00967 43.3095 9.01042 43.2311 9.02155C41.3712 9.2873 39.0896 8.82905 36.6739 8.34392C32.7598 7.55805 28.3378 6.6713 24.9558 9.01605C24.9257 9.0133 24.8953 9.01142 24.8645 9.01142C22.9663 9.01142 21.2811 9.76992 20.1191 11.1472C19.0457 12.4194 18.4546 14.1698 18.4546 16.0759C18.4546 19.1978 19.7826 24.9672 19.9988 25.886V27.5089H19.999ZM39.004 35.9013C37.0737 38.2336 34.5916 39.518 32.0151 39.518C29.4372 39.518 26.9511 38.2322 25.0147 35.8974C23.0981 33.5865 21.999 30.5291 21.999 27.5091V26.3097C21.999 23.8363 23.6598 20.4739 24.2902 19.287C33.2835 18.2594 39.303 20.7428 40.6695 21.3823L42.0096 24.5401V27.5152C42.0096 30.5368 40.9141 33.5934 39.004 35.9013ZM24.8646 11.0114C24.9371 11.0114 25.0077 11.0033 25.0758 10.9885C25.3506 11.047 25.6481 10.9909 25.8895 10.8077C28.5858 8.75967 32.4975 9.54505 36.2803 10.3048C38.3047 10.7113 40.2412 11.1 42.0412 11.1C42.2905 11.1 42.5371 11.0925 42.7811 11.0765C43.0825 12.7699 43.3258 16.4154 42.6481 20.9245L42.3657 20.2593C42.2777 20.052 42.1226 19.8807 41.9251 19.7725C41.6378 19.6154 34.778 15.9502 23.6136 17.3517C23.2862 17.3683 22.9735 17.5445 22.7972 17.8495C22.7332 17.9603 21.8631 19.4798 21.1098 21.423C20.768 19.571 20.4546 17.4883 20.4546 16.0757C20.4547 12.5774 22.6695 11.0114 24.8646 11.0114Z" fill="#E95322"/>
<path d="M49.2349 43.7315C49.2134 43.7255 49.1916 43.7202 49.1697 43.7156L43.22 42.4711L41.6471 40.086C41.6361 40.0691 41.6244 40.0526 41.6124 40.0365C41.3264 39.6552 40.891 39.4036 40.4179 39.3461C39.9449 39.2887 39.4617 39.4287 39.0927 39.7306C39.0862 39.7359 39.0797 39.7414 39.0735 39.7467L31.9994 45.8364L24.9251 39.7469C24.9187 39.7415 24.9124 39.7361 24.906 39.7307C24.537 39.4289 24.0539 39.2887 23.5809 39.3461C23.1077 39.4036 22.6722 39.6552 22.3864 40.0365C22.3742 40.0526 22.3626 40.0691 22.3516 40.086L20.7787 42.4711L14.829 43.7156C14.8071 43.7202 14.7854 43.7255 14.7639 43.7315C13.0339 44.2161 11.5621 45.2887 10.5076 46.8334C9.54562 48.2424 9.01587 49.9434 9.01587 51.623V53.5031C9.01587 55.1525 10.4846 56.4945 12.29 56.4945H29.7225C29.7237 56.4945 29.725 56.4946 29.7262 56.4946C29.7276 56.4946 29.729 56.4945 29.7304 56.4945H34.2682C34.2696 56.4945 34.271 56.4946 34.2724 56.4946C34.2736 56.4946 34.2749 56.4945 34.2761 56.4945H51.7086C53.514 56.4945 54.9827 55.1526 54.9827 53.5031V51.623C54.9827 49.9432 54.453 48.2424 53.491 46.8334C52.4367 45.2889 50.9649 44.2162 49.2349 43.7315ZM40.1545 41.4554L41.396 43.3379L36.4274 50.1696L33.4685 47.2109L40.1545 41.4554ZM31.3434 52.5028H32.6554L33.0537 54.4946H30.945L31.3434 52.5028ZM32.9994 49.9549C32.9994 50.2841 32.7987 50.5026 32.666 50.5026H31.3326C31.1999 50.5026 30.9992 50.2841 30.9992 49.9549V49.57L31.9992 48.57L32.9992 49.57V49.9549H32.9994ZM23.8442 41.4554L30.5302 47.2107L27.5714 50.1695L22.6027 43.3377L23.8442 41.4554ZM11.0157 53.5031V51.623C11.0157 49.264 12.4777 46.4665 15.2725 45.666L20.9582 44.4767L26.6422 52.2923C26.8142 52.5289 27.0811 52.6781 27.3727 52.7011C27.3989 52.7033 27.425 52.7041 27.451 52.7041C27.7151 52.7041 27.9697 52.5995 28.158 52.4113L29.3241 51.2451C29.377 51.3429 29.4351 51.4366 29.4991 51.5254L28.9054 54.4944H12.29C11.5992 54.4945 11.0157 54.0405 11.0157 53.5031ZM52.983 53.5031C52.983 54.0405 52.3995 54.4945 51.7089 54.4945H35.0934L34.4996 51.5255C34.5636 51.4368 34.6217 51.343 34.6746 51.2452L35.8407 52.4114C36.029 52.5996 36.2836 52.7043 36.5477 52.7043C36.5737 52.7043 36.5999 52.7033 36.626 52.7013C36.9176 52.6784 37.1845 52.529 37.3565 52.2924L43.0405 44.4769L48.7262 45.6661C51.521 46.4666 52.983 49.2641 52.983 51.6231V53.5031Z" fill="#E95322"/>
<path d="M8.02063 29.3843C8.02063 31.814 8.84738 34.094 10.3485 35.8045C11.8721 37.5406 13.9069 38.4967 16.0778 38.4967C17.7054 38.4967 19.2724 37.9535 20.6095 36.9258C21.0474 36.5893 21.1295 35.9615 20.7929 35.5236C20.4563 35.0857 19.8288 35.0035 19.3906 35.3401C18.4063 36.0967 17.2606 36.4967 16.0778 36.4967C12.7378 36.4967 10.0205 33.3061 10.0205 29.3843V28.7966C10.0205 27.2161 10.6741 25.1238 11.0166 24.1356C13.1749 23.9443 15.1021 24.2273 16.6761 24.4598L16.8545 24.4861C16.904 24.4933 16.953 24.4968 17.0015 24.4968C17.4893 24.4968 17.9164 24.1395 17.9895 23.6423C18.07 23.096 17.6923 22.5878 17.1459 22.5073L16.9683 22.4812C15.1305 22.2097 12.8439 21.8722 10.1729 22.2142C10.1698 22.2146 10.1665 22.2148 10.1634 22.2153C10.163 22.2153 10.1626 22.2153 10.1623 22.2155C10.1588 22.2158 10.1554 22.2168 10.1519 22.2173C10.1233 22.2213 10.0948 22.2262 10.0666 22.2327C10.0508 22.2363 10.0355 22.2412 10.02 22.2456C10.0046 22.25 9.98925 22.2537 9.97413 22.2587C9.9545 22.2652 9.93563 22.273 9.91663 22.2806C9.906 22.285 9.89513 22.2887 9.8845 22.2935C9.86513 22.3021 9.84638 22.3117 9.82775 22.3216C9.81775 22.3268 9.80763 22.3316 9.79775 22.3372C9.78063 22.3468 9.76438 22.3575 9.74788 22.3681C9.73675 22.3753 9.7255 22.3821 9.71463 22.3897C9.70088 22.3995 9.68775 22.41 9.67463 22.4202C9.66188 22.4302 9.649 22.4398 9.63675 22.4505C9.62625 22.4595 9.6165 22.4691 9.6065 22.4786C9.59263 22.4916 9.57875 22.5045 9.56563 22.5182C9.5575 22.5268 9.55 22.536 9.54213 22.5447C9.5285 22.5602 9.51475 22.5755 9.502 22.5918C9.4945 22.6013 9.48788 22.6115 9.48075 22.6212C9.46913 22.6373 9.45725 22.6533 9.4465 22.6703C9.43763 22.6842 9.42975 22.699 9.42163 22.7133C9.414 22.7268 9.40588 22.7398 9.39875 22.7538C9.38525 22.7805 9.373 22.8078 9.36188 22.8356C9.36088 22.838 9.35975 22.8402 9.35875 22.8426C9.35875 22.8427 9.3585 22.8433 9.35838 22.8435C9.3575 22.8458 9.35663 22.8481 9.35575 22.8503C9.33838 22.895 9.26625 23.0818 9.16338 23.3737C9.0835 22.7378 9.03113 22.139 9.03113 21.6592C9.03113 19.4978 10.0741 18.5303 11.1079 18.5303C11.1568 18.5303 11.2044 18.5257 11.2514 18.519C11.2988 18.5258 11.3465 18.5305 11.3946 18.5305C11.6055 18.5305 11.818 18.4641 11.9988 18.3267C12.9321 17.6177 14.1363 17.3795 15.9025 17.5538C16.4516 17.6086 16.9416 17.2066 16.996 16.657C17.0503 16.1075 16.6488 15.6178 16.0991 15.5636C14.7439 15.4297 12.7823 15.3942 11.0753 16.5313C8.69263 16.5506 7.03125 18.6535 7.03125 21.6593C7.03125 23.7653 7.8615 27.6035 8.02063 28.3197V29.3843Z" fill="#E95322"/>
<path d="M7 47.4975H2.54837C2.2345 47.4975 2 47.3097 2 47.1417V45.8616C2 44.3785 2.91213 42.6216 4.656 42.116L8.2975 41.3543L10.1781 44.0672C10.3724 44.3474 10.6839 44.4976 11.0009 44.4976C11.1974 44.4976 11.396 44.4397 11.5696 44.3194C12.0235 44.0047 12.1364 43.3818 11.8217 42.9279L9.94875 40.2258L10.5019 39.387L14.4017 42.2988C14.8444 42.6293 15.4709 42.5383 15.8013 42.0958C16.1318 41.6533 16.0409 41.0266 15.5983 40.6963L11.3179 37.5005C11.0028 37.2524 10.596 37.1381 10.1971 37.1864C9.78913 37.2359 9.41362 37.4529 9.167 37.7818C9.15487 37.7979 9.14337 37.8144 9.13225 37.8313L8.13375 39.3454L4.21175 40.1658C4.18988 40.1704 4.16813 40.1756 4.14663 40.1816C1.42438 40.9441 0 43.6163 0 45.8616V47.1417C0 48.4407 1.14325 49.4975 2.54837 49.4975H7C7.55225 49.4975 8 49.0497 8 48.4975C8 47.9452 7.55225 47.4975 7 47.4975Z" fill="#E95322"/>
<path d="M46.9787 16.4974C48.449 16.5267 50.0745 16.7899 51.6466 17.0442C52.8343 17.2364 53.9721 17.4187 54.9601 17.4822C54.9252 19.8502 54.77 21.9797 54.5937 23.6944C54.5917 23.6929 54.5896 23.6916 54.5876 23.6901C54.5718 23.6786 54.5556 23.6679 54.5392 23.6574C54.5316 23.6525 54.5248 23.647 54.5171 23.6424C54.5085 23.6371 54.4995 23.6322 54.4907 23.627C54.4896 23.6264 54.4885 23.6256 54.4872 23.625C52.4861 22.4197 50.0608 21.7244 47.0735 21.5004C46.5222 21.4586 46.0428 21.8721 46.0015 22.4227C45.9601 22.9735 46.3731 23.4535 46.9238 23.4947C49.472 23.6859 51.5351 24.2454 53.2198 25.2012C53.4567 25.7599 53.9781 27.1737 53.9781 28.7974V29.3851C53.9781 33.307 51.2608 36.4975 47.9208 36.4975C46.738 36.4975 45.5925 36.0975 44.608 35.3409C44.1701 35.0044 43.5422 35.0865 43.2057 35.5244C42.8692 35.9622 42.9512 36.59 43.3891 36.9266C44.7262 37.9544 46.2932 38.4975 47.9208 38.4975C50.0918 38.4975 52.1266 37.5414 53.6501 35.8052C55.1512 34.0946 55.978 31.8146 55.978 29.3851V28.3044C56.1185 27.5569 56.9441 22.9016 56.9662 16.7489C56.9918 16.6502 57.0031 16.5461 56.9968 16.4389C56.9655 15.9052 56.5206 15.495 55.9925 15.4989C55.9841 15.4986 55.9758 15.4976 55.9673 15.4976C55.948 15.4976 55.9291 15.4995 55.91 15.5005C54.9422 15.5507 53.4965 15.3175 51.9658 15.0699C50.402 14.8169 48.6295 14.53 47.0186 14.4979C46.4628 14.4845 46.0098 14.9255 45.9987 15.4776C45.9878 16.0297 46.4266 16.4864 46.9787 16.4974Z" fill="#E95322"/>
<path d="M59.8537 40.1814C59.8322 40.1754 59.8104 40.1701 59.7886 40.1655L55.8666 39.3451L54.8681 37.831C54.8569 37.8143 54.8453 37.7978 54.8333 37.7815C54.5867 37.4526 54.2112 37.2356 53.8032 37.1861C53.4041 37.1379 52.9976 37.252 52.6825 37.5003L48.4021 40.696C47.9595 41.0264 47.8686 41.653 48.1991 42.0955C48.5296 42.5381 49.1562 42.629 49.5986 42.2985L53.4984 39.3868L54.0516 40.2255L52.1785 42.9275C51.8638 43.3814 51.9767 44.0044 52.4306 44.319C52.6043 44.4394 52.8028 44.4973 52.9993 44.4973C53.3162 44.4973 53.6278 44.347 53.8221 44.0669L55.7027 41.3539L59.3442 42.1156C61.0879 42.6213 62.0002 44.3783 62.0002 45.8613V47.1414C62.0002 47.3093 61.7657 47.4971 61.4518 47.4971H57.0002C56.4479 47.4971 56.0002 47.9449 56.0002 48.4971C56.0002 49.0494 56.4479 49.4971 57.0002 49.4971H61.4518C62.8569 49.4971 64.0002 48.4404 64.0002 47.1414V45.8613C64.0002 43.6161 62.5758 40.944 59.8537 40.1814Z" fill="#E95322"/>
</g>
<defs>
<clipPath id="clip0_763_1122">
<rect width="64" height="64" fill="white"/>
</clipPath>
</defs>
</svg>
