<svg width="80" height="80" viewBox="0 0 80 80" fill="none" xmlns="http://www.w3.org/2000/svg">
<path d="M5.60615 40C5.60615 21.1359 20.8298 5.58136 40.0248 5.58136C58.8888 5.58136 74.4434 20.805 74.4434 40C74.4434 58.864 59.2198 74.4186 40.0248 74.4186C21.1607 74.0876 5.60615 58.864 5.60615 40Z" fill="#81D8E3"/>
<g clip-path="url(#clip0_12_3463)">
<path d="M38.0262 47.186C37.8677 48.2984 37.3132 49.3163 36.4645 50.0526C35.6158 50.789 34.5299 51.1944 33.4062 51.1944C32.2826 51.1944 31.1967 50.789 30.348 50.0526C29.4993 49.3163 28.9448 48.2984 28.7862 47.186H27.4062V31.186C27.4062 30.8324 27.5467 30.4933 27.7968 30.2432C28.0468 29.9932 28.386 29.8527 28.7396 29.8527H47.4062C47.7599 29.8527 48.099 29.9932 48.3491 30.2432C48.5991 30.4933 48.7396 30.8324 48.7396 31.186V33.8527H52.7396L56.7396 39.2607V47.186H54.0262C53.8677 48.2984 53.3132 49.3163 52.4645 50.0526C51.6158 50.789 50.5299 51.1944 49.4062 51.1944C48.2826 51.1944 47.1967 50.789 46.348 50.0526C45.4993 49.3163 44.9448 48.2984 44.7862 47.186H38.0262ZM46.0729 32.5194H30.0729V43.2527C30.599 42.7156 31.2471 42.3136 31.9619 42.0808C32.6768 41.8481 33.4373 41.7915 34.1788 41.9159C34.9202 42.0403 35.6206 42.3419 36.2204 42.7952C36.8202 43.2485 37.3016 43.84 37.6236 44.5194H45.1889C45.4129 44.0487 45.7129 43.6207 46.0729 43.2527V32.5194ZM48.7396 40.5194H54.0729V40.1394L51.3956 36.5194H48.7396V40.5194ZM49.4062 48.5194C49.9369 48.5194 50.4457 48.3086 50.8209 47.9334C51.1961 47.5582 51.4069 47.0493 51.4069 46.5187C51.4069 45.9881 51.1961 45.4792 50.8209 45.104C50.4457 44.7288 49.9369 44.518 49.4062 44.518C48.8756 44.518 48.3668 44.7288 47.9916 45.104C47.6164 45.4792 47.4056 45.9881 47.4056 46.5187C47.4056 47.0493 47.6164 47.5582 47.9916 47.9334C48.3668 48.3086 48.8756 48.5194 49.4062 48.5194ZM35.4062 46.5194C35.4062 46.2567 35.3545 45.9966 35.254 45.754C35.1535 45.5113 35.0062 45.2909 34.8205 45.1052C34.6347 44.9194 34.4143 44.7721 34.1716 44.6716C33.929 44.5711 33.6689 44.5194 33.4062 44.5194C33.1436 44.5194 32.8835 44.5711 32.6409 44.6716C32.3982 44.7721 32.1778 44.9194 31.992 45.1052C31.8063 45.2909 31.659 45.5113 31.5585 45.754C31.458 45.9966 31.4062 46.2567 31.4062 46.5194C31.4062 47.0498 31.617 47.5585 31.992 47.9336C32.3671 48.3086 32.8758 48.5194 33.4062 48.5194C33.9367 48.5194 34.4454 48.3086 34.8205 47.9336C35.1955 47.5585 35.4062 47.0498 35.4062 46.5194Z" fill="white"/>
</g>
<defs>
<clipPath id="clip0_12_3463">
<rect width="32" height="32" fill="white" transform="translate(26.0723 23.186)"/>
</clipPath>
</defs>
</svg>
