<svg width="80" height="80" viewBox="0 0 80 80" fill="none" xmlns="http://www.w3.org/2000/svg">
<path d="M5.60615 39.9998C5.60615 21.1357 20.8298 5.58115 40.0248 5.58115C58.8888 5.58115 74.4434 20.8048 74.4434 39.9998C74.4434 58.8638 59.2198 74.4184 40.0248 74.4184C21.1607 74.0874 5.60615 58.8638 5.60615 39.9998Z" fill="#ED4F00"/>
<g clip-path="url(#clip0_12_3487)">
<path d="M40.4199 50.9244L47.0199 44.3244C48.3251 43.0191 49.2139 41.356 49.574 39.5456C49.934 37.7351 49.7492 35.8585 49.0427 34.1532C48.3363 32.4478 47.14 30.9902 45.6052 29.9646C44.0703 28.9391 42.2658 28.3918 40.4199 28.3918C38.574 28.3918 36.7695 28.9391 35.2347 29.9646C33.6999 30.9902 32.5036 32.4478 31.7971 34.1532C31.0907 35.8585 30.9058 37.7351 31.2659 39.5456C31.6259 41.356 32.5147 43.0191 33.8199 44.3244L40.4199 50.9244ZM40.4199 54.6951L31.9346 46.2097C30.2564 44.5315 29.1135 42.3933 28.6505 40.0655C28.1875 37.7378 28.4251 35.325 29.3334 33.1323C30.2416 30.9396 31.7797 29.0654 33.7531 27.7469C35.7265 26.4283 38.0466 25.7245 40.4199 25.7245C42.7933 25.7245 45.1134 26.4283 47.0868 27.7469C49.0601 29.0654 50.5982 30.9396 51.5065 33.1323C52.4147 35.325 52.6524 37.7378 52.1894 40.0655C51.7264 42.3933 50.5835 44.5315 48.9053 46.2097L40.4199 54.6951ZM40.4199 40.3911C41.1272 40.3911 41.8055 40.1101 42.3055 39.61C42.8056 39.1099 43.0866 38.4317 43.0866 37.7244C43.0866 37.0172 42.8056 36.3389 42.3055 35.8388C41.8055 35.3387 41.1272 35.0577 40.4199 35.0577C39.7127 35.0577 39.0344 35.3387 38.5343 35.8388C38.0342 36.3389 37.7533 37.0172 37.7533 37.7244C37.7533 38.4317 38.0342 39.1099 38.5343 39.61C39.0344 40.1101 39.7127 40.3911 40.4199 40.3911ZM40.4199 43.0577C39.0054 43.0577 37.6489 42.4958 36.6487 41.4957C35.6485 40.4955 35.0866 39.1389 35.0866 37.7244C35.0866 36.3099 35.6485 34.9534 36.6487 33.9532C37.6489 32.953 39.0054 32.3911 40.4199 32.3911C41.8344 32.3911 43.191 32.953 44.1912 33.9532C45.1914 34.9534 45.7533 36.3099 45.7533 37.7244C45.7533 39.1389 45.1914 40.4955 44.1912 41.4957C43.191 42.4958 41.8344 43.0577 40.4199 43.0577Z" fill="white"/>
</g>
<defs>
<clipPath id="clip0_12_3487">
<rect width="32" height="32" fill="white" transform="translate(24.4199 23.0576)"/>
</clipPath>
</defs>
</svg>
