<svg width="64" height="64" viewBox="0 0 64 64" fill="none" xmlns="http://www.w3.org/2000/svg">
<g clip-path="url(#clip0_763_1071)">
<path d="M45.6373 63.9999C41.1229 63.9999 37.4297 60.4173 37.252 55.9456C35.7733 56.3178 34.0407 56.4999 31.9992 56.4999C29.9575 56.4999 28.2252 56.3178 26.7463 55.9455C26.7215 56.5685 26.6285 57.1741 26.4745 57.7553C28.1288 58.1666 29.9829 58.3749 31.999 58.3749C33.005 58.3749 33.9842 58.322 34.909 58.2178C35.4225 58.1598 35.8878 58.5299 35.9457 59.0443C36.0037 59.5588 35.6337 60.0229 35.1192 60.0809C34.1248 60.193 33.075 60.2499 31.999 60.2499C29.736 60.2499 27.6499 60.0028 25.7868 59.5149C24.3792 62.1798 21.5787 63.9999 18.361 63.9999C13.0678 63.9999 7.46903 58.4011 7.46903 53.1079C7.46903 51.6016 7.86803 50.1866 8.56566 48.9633C7.58278 48.3249 6.16016 46.9666 6.16016 44.4568C6.16016 40.4343 10.7609 34.6644 19.3278 31.3548C19.3159 31.347 19.3042 31.3391 19.2923 31.3313C15.7158 28.9543 13.8254 25.4711 13.8254 21.2583C13.8254 18.9954 14.472 16.3966 15.6358 13.8834C12.7825 12.917 10.8074 10.23 10.8074 7.13101C10.8074 3.19876 14.0065 -0.000244141 17.9387 -0.000244141C20.8749 -0.000244141 23.4664 1.78251 24.5449 4.43851C25.5752 3.99226 26.6524 3.63938 27.758 3.38663C28.2627 3.27126 28.7655 3.58701 28.8808 4.09163C28.9962 4.59638 28.6804 5.09913 28.1758 5.21451C26.923 5.50088 25.7115 5.92988 24.5752 6.48963C19.9304 8.77751 15.7004 15.8168 15.7004 21.2581C15.7004 24.8641 17.258 27.7278 20.3302 29.7695C21.522 30.5616 22.9327 31.206 24.508 31.6889C23.9687 30.9466 23.6845 30.1004 23.6845 29.1948C23.6845 25.461 27.2403 21.2851 31.9992 21.2851C34.167 21.2851 36.2535 22.1661 37.8742 23.766C39.4245 25.2965 40.3138 27.2753 40.3138 29.1948C40.3138 30.1004 40.0297 30.9466 39.4903 31.6889C41.0657 31.206 42.4763 30.5616 43.6682 29.7695C46.7403 27.7278 48.2979 24.8641 48.2979 21.2581C48.2979 15.7989 44.0448 8.74888 39.3748 6.46701C37.125 5.36776 34.5743 4.78676 31.9982 4.78676C31.4804 4.78676 31.0607 4.36701 31.0607 3.84926C31.0607 3.33151 31.4804 2.91176 31.9982 2.91176C34.5772 2.91176 37.1364 3.43788 39.451 4.43863C40.5292 1.78251 43.1207 -0.000119141 46.0572 -0.000119141C49.9894 -0.000119141 53.1884 3.19901 53.1884 7.13113C53.1884 10.231 51.2122 12.9185 48.3577 13.8843C49.4934 16.318 50.1728 18.8988 50.1728 21.2583C50.1728 25.4711 48.2823 28.9543 44.7059 31.3313C44.6937 31.3394 44.6815 31.3474 44.6693 31.3555C46.3289 31.9988 47.8973 32.7591 49.349 33.6251C49.7937 33.8904 49.9392 34.4659 49.6739 34.9105C49.4088 35.3551 48.8333 35.5008 48.3885 35.2354C47.1028 34.4685 45.7175 33.7891 44.2524 33.2063C45.9258 36.9545 47.1613 41.1605 47.6248 44.7333C47.7958 44.7218 47.9669 44.716 48.1375 44.716C50.5859 44.716 52.7928 45.77 54.3283 47.448C55.0069 47.0424 55.9633 46.167 55.9633 44.4569C55.9633 42.3583 54.1548 39.5854 51.2434 37.2204C50.8415 36.8939 50.7804 36.3035 51.1069 35.9016C51.4333 35.4998 52.0238 35.4386 52.4257 35.7651C55.8148 38.5183 57.8383 41.7676 57.8383 44.4569C57.8383 46.9651 56.4263 48.321 55.4332 48.964C56.1308 50.1874 56.5295 51.6018 56.5295 53.108C56.5293 58.4011 50.9307 63.9999 45.6373 63.9999ZM48.1373 46.591C46.1339 46.591 43.8505 47.6784 42.0292 49.4999C40.2078 51.3213 39.1203 53.6046 39.1203 55.608C39.1203 59.2015 42.0438 62.125 45.6373 62.125C47.6407 62.125 49.924 61.0376 51.7455 59.2163C53.5669 57.3949 54.6543 55.1114 54.6543 53.108C54.6543 52.8031 54.6333 52.5031 54.5925 52.2094L52.3715 53.6604C51.938 53.9435 51.3572 53.8218 51.0739 53.3883C50.7907 52.9548 50.9125 52.3739 51.346 52.0906L54.0342 50.3345C53.388 48.9664 52.279 47.8574 50.9109 47.2111L49.1548 49.8993C48.8717 50.3326 48.2905 50.4546 47.8572 50.1714C47.4237 49.8883 47.3019 49.3073 47.585 48.8738L49.0359 46.6528C48.7422 46.612 48.4422 46.591 48.1373 46.591ZM9.40566 52.2093C9.36491 52.5031 9.34391 52.803 9.34391 53.1079C9.34391 55.1113 10.4313 57.3946 12.2527 59.2161C14.0742 61.0375 16.3577 62.1249 18.361 62.1249C21.9545 62.1249 24.878 59.2014 24.878 55.6079C24.878 53.6045 23.7907 51.3211 21.9692 49.4998C20.1478 47.6784 17.8644 46.5909 15.861 46.5909C15.5562 46.5909 15.2562 46.6119 14.9624 46.6526L16.4133 48.8736C16.6965 49.3071 16.5747 49.8881 16.1412 50.1713C15.7077 50.4544 15.1267 50.3326 14.8435 49.8991L13.0874 47.211C11.7193 47.8571 10.6103 48.9663 9.96403 50.3344L12.6522 52.0905C13.0857 52.3738 13.2074 52.9546 12.9243 53.3881C12.641 53.8216 12.0599 53.9431 11.6267 53.6603L9.40566 52.2093ZM26.5773 53.9505C28.0147 54.3983 29.8353 54.6249 31.9992 54.6249C34.1629 54.6249 35.9835 54.3983 37.421 53.9505C37.9455 51.4323 39.5982 48.984 41.743 47.2419C41.5608 44.8418 40.5172 42.6125 38.7802 40.9304C36.95 39.158 34.5418 38.182 31.9992 38.182C29.4543 38.182 27.0445 39.1595 25.2139 40.9346C23.4793 42.6166 22.4374 44.844 22.2554 47.242C24.4002 48.984 26.0528 51.4323 26.5773 53.9505ZM19.7445 33.2055C15.68 34.8179 13.0344 36.8473 11.4722 38.3541C9.32016 40.4301 8.03528 42.7115 8.03528 44.4569C8.03528 46.1674 8.99853 47.0441 9.67066 47.4475C11.2062 45.7699 13.4129 44.716 15.8609 44.716C16.0315 44.716 16.2022 44.7218 16.3732 44.7333C16.5249 43.5606 16.7609 42.3103 17.0768 41.0044C17.1985 40.5013 17.7047 40.1919 18.2085 40.3138C18.7118 40.4355 19.021 40.9421 18.8992 41.4455C18.5905 42.7209 18.363 43.9358 18.2207 45.0674C19.004 45.296 19.7745 45.6295 20.5129 46.0484C20.9223 43.5968 22.0988 41.3433 23.9087 39.5885C26.091 37.4724 28.9643 36.3071 31.9992 36.3071C35.0313 36.3071 37.9028 37.4708 40.0845 39.5836C41.897 41.3389 43.0755 43.5941 43.4854 46.0485C44.2238 45.6295 44.994 45.2961 45.7774 45.0675C45.2999 41.2694 43.8855 36.6834 41.9875 32.7848C39.1713 33.9816 35.777 34.605 31.9993 34.605C28.2212 34.605 24.827 33.9816 22.0105 32.7846C21.2324 34.381 20.5364 36.086 19.9379 37.8625C19.7727 38.3533 19.2407 38.6171 18.7503 38.4516C18.2595 38.2864 17.9958 37.7546 18.1612 37.2639C18.6324 35.864 19.1627 34.5056 19.7445 33.2055ZM32.9367 27.2983V32.6964C34.4202 32.5889 35.7483 32.2254 36.7443 31.6463C37.5173 31.1968 38.4388 30.4068 38.4388 29.1951C38.4388 27.4295 37.5044 25.8696 36.1889 24.7783C35.5682 25.9158 34.3474 26.9621 32.9367 27.2983ZM27.8094 24.7783C26.494 25.8695 25.5595 27.4294 25.5595 29.1951C25.5595 30.4068 26.481 31.1969 27.254 31.6463C28.25 32.2254 29.5782 32.5889 31.0617 32.6964V27.2983C29.6509 26.9621 28.4302 25.9158 27.8094 24.7783ZM29.401 23.7711C29.7812 24.542 30.8217 25.5354 31.9992 25.5354C33.1767 25.5354 34.2172 24.542 34.5973 23.7711C33.7539 23.3788 32.8565 23.1604 31.9992 23.1604C31.1418 23.1604 30.2444 23.3789 29.401 23.7711ZM41.1302 5.29376C43.5813 6.78376 45.8364 9.31151 47.4817 12.1929C49.7304 11.5655 51.3135 9.51351 51.3135 7.13113C51.3135 4.23276 48.9555 1.87488 46.0573 1.87488C43.8385 1.87488 41.8872 3.25513 41.1302 5.29376ZM17.9388 1.87488C15.0404 1.87488 12.6825 4.23288 12.6825 7.13113C12.6825 9.51088 14.2619 11.5609 16.5065 12.1906C16.5809 12.0595 16.6567 11.929 16.7338 11.799C18.4298 8.94138 20.58 6.66563 22.8645 5.29038C22.1068 3.25363 20.1562 1.87488 17.9388 1.87488ZM45.4014 59.9999C43.1098 59.9999 41.2454 58.1355 41.2454 55.8439C41.2454 53.5523 43.1098 51.6879 45.4014 51.6879C47.693 51.6879 49.5574 53.5523 49.5574 55.8439C49.5574 58.1355 47.693 59.9999 45.4014 59.9999ZM45.4014 53.5629C44.1437 53.5629 43.1204 54.5861 43.1204 55.8439C43.1204 57.1016 44.1437 58.1249 45.4014 58.1249C46.6592 58.1249 47.6824 57.1016 47.6824 55.8439C47.6824 54.5861 46.6592 53.5629 45.4014 53.5629ZM18.5969 59.9999C16.3053 59.9999 14.4409 58.1355 14.4409 55.8439C14.4409 53.5523 16.3053 51.6879 18.5969 51.6879C20.8885 51.6879 22.7529 53.5523 22.7529 55.8439C22.7529 58.1355 20.8885 59.9999 18.5969 59.9999ZM18.5969 53.5629C17.3392 53.5629 16.3159 54.5861 16.3159 55.8439C16.3159 57.1016 17.3392 58.1249 18.5969 58.1249C19.8547 58.1249 20.8779 57.1016 20.8779 55.8439C20.8779 54.5861 19.8547 53.5629 18.5969 53.5629ZM33.6384 49.5336C33.3985 49.5336 33.1585 49.4421 32.9755 49.259L31.9992 48.2826L31.0228 49.259C30.6567 49.6251 30.063 49.6253 29.697 49.259C29.3309 48.8929 29.3309 48.2993 29.697 47.9333L30.6734 46.9569L29.697 45.9805C29.3309 45.6144 29.3309 45.0209 29.697 44.6548C30.0632 44.2886 30.6568 44.2886 31.0228 44.6548L31.9992 45.6311L32.9755 44.6548C33.3417 44.2886 33.9353 44.2886 34.3013 44.6548C34.6674 45.0209 34.6674 45.6145 34.3013 45.9805L33.3249 46.9569L34.3013 47.9333C34.6674 48.2994 34.6674 48.893 34.3013 49.259C34.1183 49.442 33.8784 49.5336 33.6384 49.5336ZM37.5254 21.2494C37.0077 21.2494 36.5879 20.8296 36.5879 20.3119V18.4369C36.5879 17.9191 37.0077 17.4994 37.5254 17.4994C38.0432 17.4994 38.4629 17.9191 38.4629 18.4369V20.3119C38.4629 20.8296 38.0432 21.2494 37.5254 21.2494ZM26.4729 21.2494C25.9552 21.2494 25.5354 20.8296 25.5354 20.3119V18.4369C25.5354 17.9191 25.9552 17.4994 26.4729 17.4994C26.9907 17.4994 27.4104 17.9191 27.4104 18.4369V20.3119C27.4104 20.8296 26.9907 21.2494 26.4729 21.2494Z" fill="#E95322"/>
</g>
<defs>
<clipPath id="clip0_763_1071">
<rect width="64" height="64" fill="white"/>
</clipPath>
</defs>
</svg>
