<svg width="64" height="64" viewBox="0 0 64 64" fill="none" xmlns="http://www.w3.org/2000/svg">
<g clip-path="url(#clip0_763_2868)">
<path d="M60.9205 18.285C60.6984 17.8173 60.1388 17.6183 59.6715 17.8405C59.2038 18.0627 59.0048 18.6219 59.2269 19.0897C61.1504 23.1385 62.1256 27.4823 62.1256 32.0002C62.1256 40.0469 58.9921 47.6119 53.3023 53.3018C47.6125 58.9917 40.0474 62.1252 32.0006 62.1252C27.2285 62.1252 22.6648 61.0422 18.4365 58.9063C14.9134 57.1265 11.7305 54.6279 9.14602 51.6254L12.8449 52.8584C13.336 53.0222 13.867 52.7567 14.0308 52.2654C14.1945 51.7742 13.929 51.2433 13.4378 51.0795L6.78152 48.8608C6.47327 48.7582 6.13377 48.8222 5.88439 49.0304C5.63502 49.2387 5.51114 49.5612 5.55702 49.8828L6.66639 57.6484C6.73327 58.116 7.13427 58.4534 7.59339 58.4534C7.63752 58.4534 7.68214 58.4503 7.72714 58.4439C8.23977 58.3707 8.59589 57.8958 8.52264 57.3833L7.90364 53.0504C10.616 56.1479 13.9295 58.7302 17.5913 60.5799C22.084 62.8494 26.932 64.0002 32.0006 64.0002C40.5481 64.0002 48.5841 60.6715 54.6281 54.6277C60.672 48.5835 64.0006 40.5477 64.0006 32.0002C64.0006 27.2018 62.9644 22.5874 60.9205 18.285Z" fill="white"/>
<path d="M58.4437 14.1175L57.3344 6.35187C57.2611 5.83925 56.7851 5.48338 56.2738 5.55638C55.7611 5.62962 55.405 6.1045 55.4782 6.617L56.0966 10.9455C50.0085 3.97 41.3172 0 32 0C23.4525 0 15.4166 3.32863 9.3725 9.3725C3.32863 15.4166 0 23.4525 0 32C0 36.7985 1.03638 41.413 3.08013 45.7151C3.24063 46.053 3.57687 46.2506 3.92762 46.2506C4.06238 46.2506 4.19937 46.2214 4.32925 46.1596C4.79688 45.9375 4.99587 45.3783 4.77375 44.9105C2.85025 40.8619 1.875 36.5181 1.875 32C1.875 23.9533 5.0085 16.3883 10.6984 10.6984C16.3883 5.0085 23.9533 1.875 32 1.875C40.857 1.875 49.1129 5.68675 54.852 12.3739L51.1559 11.1419C50.6644 10.9779 50.1336 11.2436 49.97 11.7349C49.8064 12.2261 50.0716 12.757 50.5629 12.9207L57.2191 15.1395C57.3161 15.1718 57.4161 15.1876 57.5155 15.1876C57.732 15.1876 57.9453 15.1126 58.1164 14.9699C58.3657 14.7616 58.4896 14.4391 58.4437 14.1175Z" fill="white"/>
<path d="M29.3955 42.0845H19.965C20.3417 38.8033 22.6733 36.6018 25.1295 34.2825C27.6878 31.867 30.333 29.3693 30.333 25.6185C30.333 22.5427 27.575 20.0402 24.185 20.0402C20.795 20.0402 18.037 22.5427 18.037 25.6185C18.037 26.1363 18.4568 26.556 18.9745 26.556C19.4923 26.556 19.912 26.1363 19.912 25.6185C19.912 23.5765 21.8288 21.9152 24.185 21.9152C26.5413 21.9152 28.458 23.5765 28.458 25.6185C28.458 28.561 26.2159 30.678 23.8423 32.9193C21.1212 35.4885 18.037 38.4007 18.037 43.022C18.037 43.5398 18.4568 43.9595 18.9745 43.9595H29.3955C29.9133 43.9595 30.333 43.5398 30.333 43.022C30.333 42.5043 29.9133 42.0845 29.3955 42.0845Z" fill="white"/>
<path d="M45.0279 36.0723H43.9614V20.9777C43.9614 20.4599 43.5418 20.0402 43.0239 20.0402C42.506 20.0402 42.0864 20.4599 42.0864 20.9777V36.0724H34.1334L36.9312 21.1505C37.0267 20.6417 36.6914 20.1517 36.1825 20.0563C35.6742 19.9614 35.1839 20.296 35.0884 20.8049L32.0824 36.8372C32.031 37.1113 32.1043 37.394 32.2824 37.6087C32.4605 37.8233 32.7249 37.9474 33.0038 37.9474H42.0864V43.022C42.0864 43.5397 42.506 43.9594 43.0239 43.9594C43.5418 43.9594 43.9614 43.5397 43.9614 43.0219V37.9473H45.0279C45.5458 37.9473 45.9654 37.5275 45.9654 37.0098C45.9654 36.492 45.5458 36.0723 45.0279 36.0723Z" fill="white"/>
<path d="M32 5.01007C31.4822 5.01007 31.0625 5.42982 31.0625 5.94757V9.95557C31.0625 10.4733 31.4822 10.8931 32 10.8931C32.5179 10.8931 32.9375 10.4733 32.9375 9.95557V5.94757C32.9375 5.42982 32.5179 5.01007 32 5.01007Z" fill="white"/>
<path d="M32 53.1064C31.4822 53.1064 31.0625 53.5262 31.0625 54.0439V58.0519C31.0625 58.5697 31.4822 58.9894 32 58.9894C32.5179 58.9894 32.9375 58.5697 32.9375 58.0519V54.0439C32.9375 53.5262 32.5179 53.1064 32 53.1064Z" fill="white"/>
<path d="M58.051 31.0625H54.043C53.5251 31.0625 53.1055 31.4822 53.1055 32C53.1055 32.5178 53.5251 32.9375 54.043 32.9375H58.051C58.5688 32.9375 58.9885 32.5178 58.9885 32C58.9885 31.4822 58.5688 31.0625 58.051 31.0625Z" fill="white"/>
<path d="M9.95472 31.0625H5.94672C5.42897 31.0625 5.00922 31.4822 5.00922 32C5.00922 32.5178 5.42897 32.9375 5.94672 32.9375H9.95472C10.4725 32.9375 10.8922 32.5178 10.8922 32C10.8922 31.4822 10.4725 31.0625 9.95472 31.0625Z" fill="white"/>
</g>
<defs>
<clipPath id="clip0_763_2868">
<rect width="64" height="64" fill="white"/>
</clipPath>
</defs>
</svg>
