<svg width="64" height="64" viewBox="0 0 64 64" fill="none" xmlns="http://www.w3.org/2000/svg">
<g clip-path="url(#clip0_763_2910)">
<path d="M19.9989 27.5088C19.9989 30.9874 21.266 34.5102 23.4753 37.1739C25.7985 39.9751 28.8314 41.5178 32.015 41.5178C35.1983 41.5178 38.2274 39.9759 40.5447 37.1763C42.7467 34.5158 44.0096 30.9944 44.0096 27.5149V24.4502C44.9001 20.6153 45.0868 17.2966 45.0854 15.1798C45.0836 12.4468 44.7863 10.5586 44.5088 9.7028C44.3614 9.24818 43.9193 8.97205 43.4623 9.0163C43.3868 9.00955 43.3094 9.0103 43.2311 9.02143C41.3712 9.28718 39.0896 8.82893 36.6738 8.3438C32.7598 7.55793 28.3378 6.67118 24.9558 9.01593C24.9257 9.01318 24.8953 9.0113 24.8644 9.0113C22.9663 9.0113 21.281 9.7698 20.119 11.1471C19.0457 12.4193 18.4545 14.1697 18.4545 16.0758C18.4545 19.1977 19.7825 24.9671 19.9988 25.8859V27.5088H19.9989ZM39.0039 35.9012C37.0737 38.2334 34.5916 39.5179 32.015 39.5179C29.4372 39.5179 26.951 38.2321 25.0147 35.8973C23.098 33.5864 21.9989 30.5289 21.9989 27.5089V26.3096C21.9989 23.8362 23.6598 20.4738 24.2902 19.2869C33.2834 18.2593 39.3029 20.7427 40.6694 21.3822L42.0096 24.5399V27.5151C42.0096 30.5367 40.9141 33.5933 39.0039 35.9012ZM24.8645 11.0113C24.937 11.0113 25.0077 11.0032 25.0758 10.9884C25.3505 11.0469 25.648 10.9908 25.8894 10.8076C28.5858 8.75955 32.4974 9.54493 36.2803 10.3047C38.3047 10.7112 40.2412 11.0999 42.0412 11.0999C42.2904 11.0999 42.5371 11.0924 42.7811 11.0764C43.0824 12.7698 43.3258 16.4153 42.6481 20.9244L42.3657 20.2592C42.2777 20.0519 42.1226 19.8806 41.9251 19.7724C41.6378 19.6153 34.7779 15.9501 23.6135 17.3516C23.2862 17.3682 22.9734 17.5444 22.7972 17.8494C22.7332 17.9602 21.863 19.4797 21.1098 21.4229C20.7679 19.5709 20.4545 17.4882 20.4545 16.0756C20.4547 12.5773 22.6694 11.0113 24.8645 11.0113Z" fill="white"/>
<path d="M49.2348 43.7312C49.2133 43.7252 49.1915 43.72 49.1697 43.7154L43.2199 42.4709L41.647 40.0857C41.636 40.0689 41.6243 40.0524 41.6123 40.0362C41.3263 39.655 40.8909 39.4034 40.4178 39.3459C39.9448 39.2885 39.4617 39.4285 39.0927 39.7304C39.0862 39.7356 39.0797 39.7411 39.0734 39.7465L31.9993 45.8361L24.925 39.7466C24.9187 39.7412 24.9123 39.7359 24.9059 39.7305C24.5369 39.4286 24.0538 39.2885 23.5808 39.3459C23.1077 39.4034 22.6722 39.655 22.3863 40.0362C22.3742 40.0524 22.3625 40.0689 22.3515 40.0857L20.7787 42.4709L14.8289 43.7154C14.807 43.72 14.7853 43.7252 14.7638 43.7312C13.0338 44.2159 11.562 45.2885 10.5075 46.8331C9.54554 48.2421 9.01579 49.9431 9.01579 51.6228V53.5029C9.01579 55.1523 10.4845 56.4943 12.2899 56.4943H29.7224C29.7237 56.4943 29.7249 56.4944 29.7262 56.4944C29.7275 56.4944 29.7289 56.4943 29.7303 56.4943H34.2682C34.2695 56.4943 34.2709 56.4944 34.2723 56.4944C34.2735 56.4944 34.2748 56.4943 34.276 56.4943H51.7085C53.5139 56.4943 54.9827 55.1524 54.9827 53.5029V51.6228C54.9827 49.943 54.4529 48.2421 53.4909 46.8331C52.4367 45.2886 50.9648 44.216 49.2348 43.7312ZM40.1544 41.4551L41.3959 43.3376L36.4273 50.1694L33.4684 47.2106L40.1544 41.4551ZM31.3433 52.5025H32.6553L33.0537 54.4944H30.9449L31.3433 52.5025ZM32.9993 49.9546C32.9993 50.2839 32.7987 50.5024 32.6659 50.5024H31.3325C31.1998 50.5024 30.9992 50.2839 30.9992 49.9546V49.5698L31.9992 48.5698L32.9992 49.5698V49.9546H32.9993ZM23.8442 41.4551L30.5302 47.2105L27.5713 50.1693L22.6027 43.3375L23.8442 41.4551ZM11.0157 53.5029V51.6228C11.0157 49.2638 12.4777 46.4663 15.2724 45.6658L20.9582 44.4765L26.6422 52.292C26.8142 52.5286 27.081 52.6779 27.3727 52.7009C27.3988 52.703 27.4249 52.7039 27.4509 52.7039C27.715 52.7039 27.9697 52.5993 28.1579 52.411L29.324 51.2449C29.3769 51.3426 29.435 51.4364 29.499 51.5251L28.9053 54.4941H12.2899C11.5992 54.4943 11.0157 54.0403 11.0157 53.5029ZM52.9829 53.5029C52.9829 54.0403 52.3994 54.4943 51.7088 54.4943H35.0933L34.4995 51.5253C34.5635 51.4365 34.6217 51.3428 34.6745 51.245L35.8407 52.4111C36.0289 52.5994 36.2835 52.704 36.5477 52.704C36.5737 52.704 36.5998 52.703 36.6259 52.701C36.9175 52.6781 37.1844 52.5288 37.3564 52.2921L43.0404 44.4766L48.7262 45.6659C51.5209 46.4664 52.9829 49.2639 52.9829 51.6229V53.5029Z" fill="white"/>
<path d="M8.02063 29.3843C8.02063 31.8139 8.84738 34.0939 10.3485 35.8044C11.8721 37.5405 13.9069 38.4966 16.0778 38.4966C17.7054 38.4966 19.2724 37.9534 20.6095 36.9258C21.0474 36.5893 21.1295 35.9614 20.7929 35.5235C20.4563 35.0856 19.8288 35.0034 19.3906 35.34C18.4063 36.0966 17.2606 36.4966 16.0778 36.4966C12.7378 36.4966 10.0205 33.306 10.0205 29.3843V28.7965C10.0205 27.216 10.6741 25.1238 11.0166 24.1355C13.1749 23.9443 15.1021 24.2273 16.6761 24.4598L16.8545 24.486C16.904 24.4933 16.953 24.4968 17.0015 24.4968C17.4893 24.4968 17.9164 24.1394 17.9895 23.6423C18.07 23.0959 17.6923 22.5878 17.1459 22.5073L16.9683 22.4812C15.1305 22.2097 12.8439 21.8722 10.1729 22.2142C10.1698 22.2145 10.1665 22.2148 10.1634 22.2153C10.163 22.2153 10.1626 22.2153 10.1623 22.2154C10.1588 22.2158 10.1554 22.2168 10.1519 22.2173C10.1233 22.2213 10.0948 22.2262 10.0666 22.2327C10.0508 22.2363 10.0355 22.2412 10.02 22.2455C10.0046 22.2499 9.98925 22.2537 9.97413 22.2587C9.9545 22.2652 9.93563 22.2729 9.91663 22.2805C9.906 22.2849 9.89513 22.2887 9.8845 22.2934C9.86513 22.302 9.84638 22.3117 9.82775 22.3215C9.81775 22.3268 9.80763 22.3315 9.79775 22.3372C9.78063 22.3468 9.76438 22.3574 9.74788 22.368C9.73675 22.3753 9.7255 22.382 9.71463 22.3897C9.70088 22.3994 9.68775 22.4099 9.67463 22.4202C9.66188 22.4302 9.649 22.4398 9.63675 22.4504C9.62625 22.4594 9.6165 22.469 9.6065 22.4785C9.59263 22.4915 9.57875 22.5044 9.56563 22.5182C9.5575 22.5268 9.55 22.5359 9.54213 22.5447C9.5285 22.5602 9.51475 22.5754 9.502 22.5918C9.4945 22.6013 9.48788 22.6114 9.48075 22.6212C9.46913 22.6373 9.45725 22.6533 9.4465 22.6703C9.43763 22.6842 9.42975 22.6989 9.42163 22.7133C9.414 22.7268 9.40588 22.7398 9.39875 22.7538C9.38525 22.7804 9.373 22.8078 9.36188 22.8355C9.36088 22.8379 9.35975 22.8402 9.35875 22.8425C9.35875 22.8427 9.3585 22.8433 9.35838 22.8434C9.3575 22.8458 9.35663 22.848 9.35575 22.8503C9.33838 22.8949 9.26625 23.0818 9.16338 23.3737C9.0835 22.7378 9.03113 22.1389 9.03113 21.6592C9.03113 19.4978 10.0741 18.5303 11.1079 18.5303C11.1568 18.5303 11.2044 18.5257 11.2514 18.5189C11.2988 18.5258 11.3465 18.5304 11.3946 18.5304C11.6055 18.5304 11.818 18.464 11.9988 18.3267C12.9321 17.6177 14.1363 17.3794 15.9025 17.5538C16.4516 17.6085 16.9416 17.2065 16.996 16.6569C17.0503 16.1074 16.6488 15.6178 16.0991 15.5635C14.7439 15.4297 12.7823 15.3942 11.0753 16.5313C8.69263 16.5505 7.03125 18.6534 7.03125 21.6593C7.03125 23.7653 7.8615 27.6034 8.02063 28.3196V29.3843Z" fill="white"/>
<path d="M7 47.4973H2.54837C2.2345 47.4973 2 47.3095 2 47.1415V45.8614C2 44.3783 2.91213 42.6214 4.656 42.1158L8.2975 41.354L10.1781 44.067C10.3724 44.3471 10.6839 44.4974 11.0009 44.4974C11.1974 44.4974 11.396 44.4395 11.5696 44.3191C12.0235 44.0045 12.1364 43.3815 11.8217 42.9276L9.94875 40.2255L10.5019 39.3868L14.4017 42.2985C14.8444 42.629 15.4709 42.538 15.8013 42.0955C16.1318 41.653 16.0409 41.0264 15.5983 40.696L11.3179 37.5003C11.0028 37.2521 10.596 37.1379 10.1971 37.1861C9.78913 37.2356 9.41362 37.4526 9.167 37.7815C9.15487 37.7976 9.14337 37.8141 9.13225 37.831L8.13375 39.3451L4.21175 40.1655C4.18988 40.1701 4.16813 40.1754 4.14663 40.1814C1.42438 40.9439 0 43.616 0 45.8614V47.1415C0 48.4405 1.14325 49.4973 2.54837 49.4973H7C7.55225 49.4973 8 49.0495 8 48.4973C8 47.945 7.55225 47.4973 7 47.4973Z" fill="white"/>
<path d="M46.9787 16.4972C48.4489 16.5266 50.0744 16.7897 51.6465 17.0441C52.8343 17.2362 53.972 17.4186 54.96 17.4821C54.9252 19.8501 54.7699 21.9796 54.5937 23.6942C54.5917 23.6927 54.5895 23.6915 54.5875 23.69C54.5718 23.6785 54.5555 23.6677 54.5392 23.6572C54.5315 23.6524 54.5248 23.6469 54.517 23.6422C54.5084 23.637 54.4994 23.6321 54.4907 23.6269C54.4895 23.6262 54.4884 23.6255 54.4872 23.6249C52.486 22.4196 50.0608 21.7242 47.0734 21.5002C46.5222 21.4585 46.0428 21.872 46.0014 22.4226C45.96 22.9734 46.373 23.4534 46.9238 23.4946C49.4719 23.6857 51.535 24.2452 53.2198 25.2011C53.4567 25.7597 53.978 27.1736 53.978 28.7972V29.385C53.978 33.3069 51.2608 36.4974 47.9208 36.4974C46.7379 36.4974 45.5924 36.0974 44.6079 35.3407C44.17 35.0042 43.5422 35.0864 43.2057 35.5242C42.8692 35.9621 42.9512 36.5899 43.389 36.9265C44.7262 37.9542 46.2932 38.4974 47.9208 38.4974C50.0918 38.4974 52.1265 37.5412 53.65 35.8051C55.1512 34.0945 55.9779 31.8145 55.9779 29.385V28.3042C56.1184 27.5567 56.944 22.9015 56.9661 16.7487C56.9918 16.6501 57.003 16.546 56.9968 16.4387C56.9654 15.9051 56.5205 15.4949 55.9924 15.4987C55.984 15.4985 55.9758 15.4975 55.9673 15.4975C55.9479 15.4975 55.929 15.4994 55.9099 15.5004C54.9422 15.5506 53.4964 15.3174 51.9658 15.0697C50.4019 14.8167 48.6294 14.5299 47.0185 14.4977C46.4628 14.4844 46.0098 14.9254 45.9987 15.4775C45.9878 16.0296 46.4265 16.4862 46.9787 16.4972Z" fill="white"/>
<path d="M59.8538 40.1813C59.8323 40.1753 59.8105 40.17 59.7886 40.1654L55.8666 39.345L54.8681 37.8309C54.857 37.8141 54.8454 37.7976 54.8334 37.7814C54.5868 37.4525 54.2113 37.2355 53.8033 37.186C53.4041 37.1378 52.9976 37.2519 52.6825 37.5001L48.4021 40.6959C47.9595 41.0263 47.8686 41.6529 48.1991 42.0954C48.5296 42.538 49.1563 42.6289 49.5986 42.2984L53.4985 39.3866L54.0516 40.2254L52.1785 42.9274C51.8639 43.3813 51.9768 44.0043 52.4306 44.3189C52.6044 44.4393 52.8029 44.4971 52.9994 44.4971C53.3163 44.4971 53.6279 44.3469 53.8221 44.0668L55.7028 41.3538L59.3443 42.1155C61.088 42.6211 62.0003 44.3781 62.0003 45.8611V47.1413C62.0003 47.3091 61.7658 47.497 61.4519 47.497H57.0003C56.448 47.497 56.0003 47.9448 56.0003 48.497C56.0003 49.0493 56.448 49.497 57.0003 49.497H61.4519C62.857 49.497 64.0003 48.4403 64.0003 47.1413V45.8611C64.0003 43.616 62.5759 40.9439 59.8538 40.1813Z" fill="white"/>
</g>
<defs>
<clipPath id="clip0_763_2910">
<rect width="64" height="64" fill="white"/>
</clipPath>
</defs>
</svg>
