<svg width="64" height="64" viewBox="0 0 64 64" fill="none" xmlns="http://www.w3.org/2000/svg">
<g clip-path="url(#clip0_763_2858)">
<path d="M45.6372 64C41.1228 64 37.4296 60.4174 37.252 55.9457C35.7732 56.3178 34.0406 56.5 31.9991 56.5C29.9575 56.5 28.2251 56.3178 26.7462 55.9456C26.7215 56.5686 26.6285 57.1742 26.4745 57.7553C28.1287 58.1667 29.9828 58.375 31.999 58.375C33.005 58.375 33.9841 58.3221 34.909 58.2178C35.4225 58.1599 35.8877 58.53 35.9456 59.0443C36.0036 59.5588 35.6336 60.023 35.1191 60.081C34.1247 60.1931 33.075 60.25 31.999 60.25C29.736 60.25 27.6498 60.0028 25.7867 59.515C24.3791 62.1798 21.5786 64 18.361 64C13.0677 64 7.46897 58.4012 7.46897 53.108C7.46897 51.6017 7.86797 50.1867 8.5656 48.9633C7.58272 48.325 6.1601 46.9667 6.1601 44.4568C6.1601 40.4343 10.7608 34.6645 19.3277 31.3548C19.3158 31.3471 19.3041 31.3392 19.2922 31.3313C15.7157 28.9543 13.8253 25.4712 13.8253 21.2583C13.8253 18.9955 14.472 16.3967 15.6357 13.8835C12.7825 12.9171 10.8073 10.2301 10.8073 7.1311C10.8073 3.19885 14.0065 -0.000152588 17.9386 -0.000152588C20.8748 -0.000152588 23.4663 1.7826 24.5448 4.4386C25.5751 3.99235 26.6523 3.63947 27.758 3.38672C28.2626 3.27135 28.7655 3.5871 28.8807 4.09172C28.9961 4.59647 28.6803 5.09922 28.1757 5.2146C26.923 5.50097 25.7115 5.92997 24.5751 6.48972C19.9303 8.7776 15.7003 15.8168 15.7003 21.2582C15.7003 24.8642 17.258 27.7278 20.3301 29.7696C21.522 30.5617 22.9326 31.2061 24.508 31.689C23.9686 30.9467 23.6845 30.1005 23.6845 29.1948C23.6845 25.4611 27.2402 21.2852 31.9991 21.2852C34.167 21.2852 36.2535 22.1662 37.8741 23.7661C39.4245 25.2966 40.3137 27.2753 40.3137 29.1948C40.3137 30.1005 40.0296 30.9467 39.4902 31.689C41.0656 31.2061 42.4762 30.5617 43.6681 29.7696C46.7402 27.7278 48.2978 24.8642 48.2978 21.2582C48.2978 15.799 44.0447 8.74897 39.3747 6.4671C37.125 5.36785 34.5742 4.78685 31.9981 4.78685C31.4803 4.78685 31.0606 4.3671 31.0606 3.84935C31.0606 3.3316 31.4803 2.91185 31.9981 2.91185C34.5771 2.91185 37.1363 3.43797 39.451 4.43872C40.5291 1.7826 43.1206 -2.75879e-05 46.0571 -2.75879e-05C49.9893 -2.75879e-05 53.1883 3.1991 53.1883 7.13122C53.1883 10.2311 51.2121 12.9186 48.3576 13.8843C49.4933 16.3181 50.1727 18.8988 50.1727 21.2583C50.1727 25.4712 48.2822 28.9543 44.7058 31.3313C44.6936 31.3395 44.6815 31.3475 44.6692 31.3556C46.3288 31.9988 47.8972 32.7592 49.349 33.6252C49.7936 33.8905 49.9391 34.466 49.6738 34.9106C49.4087 35.3552 48.8332 35.5008 48.3885 35.2355C47.1027 34.4686 45.7175 33.7892 44.2523 33.2063C45.9257 36.9546 47.1612 41.1606 47.6247 44.7333C47.7957 44.7218 47.9668 44.7161 48.1375 44.7161C50.5858 44.7161 52.7927 45.7701 54.3282 47.4481C55.0068 47.0425 55.9632 46.1671 55.9632 44.457C55.9632 42.3583 54.1547 39.5855 51.2433 37.2205C50.8415 36.894 50.7803 36.3036 51.1068 35.9017C51.4332 35.4998 52.0237 35.4387 52.4256 35.7652C55.8147 38.5183 57.8382 41.7677 57.8382 44.457C57.8382 46.9652 56.4262 48.3211 55.4331 48.9641C56.1307 50.1875 56.5295 51.6018 56.5295 53.1081C56.5292 58.4012 50.9306 64 45.6372 64ZM48.1372 46.5911C46.1338 46.5911 43.8505 47.6785 42.0291 49.5C40.2077 51.3214 39.1202 53.6047 39.1202 55.6081C39.1202 59.2016 42.0437 62.1251 45.6372 62.1251C47.6406 62.1251 49.924 61.0377 51.7455 59.2163C53.5668 57.395 54.6542 55.1115 54.6542 53.1081C54.6542 52.8032 54.6332 52.5032 54.5925 52.2095L52.3715 53.6605C51.938 53.9436 51.3571 53.8218 51.0738 53.3883C50.7906 52.9548 50.9125 52.374 51.346 52.0907L54.0341 50.3346C53.388 48.9665 52.279 47.8575 50.9108 47.2112L49.1547 49.8993C48.8716 50.3327 48.2905 50.4547 47.8571 50.1715C47.4236 49.8883 47.3018 49.3073 47.585 48.8738L49.0358 46.6528C48.7421 46.6121 48.4421 46.5911 48.1372 46.5911ZM9.4056 52.2093C9.36485 52.5032 9.34385 52.8031 9.34385 53.108C9.34385 55.1114 10.4312 57.3947 12.2526 59.2162C14.0741 61.0376 16.3576 62.125 18.361 62.125C21.9545 62.125 24.878 59.2015 24.878 55.608C24.878 53.6046 23.7906 51.3212 21.9691 49.4998C20.1477 47.6785 17.8643 46.591 15.861 46.591C15.5561 46.591 15.2561 46.612 14.9623 46.6527L16.4132 48.8737C16.6965 49.3072 16.5746 49.8882 16.1411 50.1713C15.7076 50.4545 15.1266 50.3327 14.8435 49.8992L13.0873 47.2111C11.7192 47.8572 10.6102 48.9663 9.96397 50.3345L12.6521 52.0906C13.0856 52.3738 13.2073 52.9547 12.9242 53.3882C12.641 53.8217 12.0598 53.9432 11.6266 53.6603L9.4056 52.2093ZM26.5772 53.9506C28.0146 54.3983 29.8352 54.625 31.9991 54.625C34.1628 54.625 35.9835 54.3983 37.421 53.9506C37.9455 51.4324 39.5981 48.9841 41.743 47.242C41.5607 44.8419 40.5171 42.6126 38.7801 40.9305C36.95 39.1581 34.5417 38.1821 31.9991 38.1821C29.4542 38.1821 27.0445 39.1596 25.2138 40.9347C23.4792 42.6167 22.4373 44.8441 22.2553 47.2421C24.4001 48.9841 26.0527 51.4324 26.5772 53.9506ZM19.7445 33.2056C15.68 34.818 13.0343 36.8474 11.4721 38.3542C9.3201 40.4302 8.03522 42.7116 8.03522 44.457C8.03522 46.1675 8.99847 47.0442 9.6706 47.4476C11.2061 45.77 13.4128 44.7161 15.8608 44.7161C16.0315 44.7161 16.2021 44.7218 16.3731 44.7333C16.5248 43.5607 16.7608 42.3103 17.0767 41.0045C17.1985 40.5014 17.7046 40.192 18.2085 40.3138C18.7117 40.4356 19.021 40.9422 18.8991 41.4456C18.5905 42.721 18.363 43.9358 18.2206 45.0675C19.004 45.2961 19.7745 45.6296 20.5128 46.0485C20.9222 43.5968 22.0987 41.3433 23.9086 39.5886C26.091 37.4725 28.9642 36.3072 31.9991 36.3072C35.0312 36.3072 37.9027 37.4708 40.0845 39.5837C41.897 41.339 43.0755 43.5942 43.4853 46.0486C44.2237 45.6296 44.994 45.2962 45.7773 45.0676C45.2998 41.2695 43.8855 36.6835 41.9875 32.7848C39.1712 33.9817 35.777 34.6051 31.9992 34.6051C28.2211 34.6051 24.827 33.9817 22.0105 32.7847C21.2323 34.3811 20.5363 36.0861 19.9378 37.8626C19.7726 38.3533 19.2406 38.6172 18.7502 38.4517C18.2595 38.2865 17.9957 37.7547 18.1611 37.264C18.6323 35.8641 19.1626 34.5057 19.7445 33.2056ZM32.9366 27.2983V32.6965C34.4201 32.589 35.7482 32.2255 36.7442 31.6463C37.5172 31.1968 38.4387 30.4068 38.4387 29.1952C38.4387 27.4296 37.5043 25.8697 36.1888 24.7783C35.5681 25.9158 34.3473 26.9622 32.9366 27.2983ZM27.8093 24.7783C26.494 25.8696 25.5595 27.4295 25.5595 29.1952C25.5595 30.4068 26.481 31.197 27.254 31.6463C28.25 32.2255 29.5781 32.589 31.0616 32.6965V27.2983C29.6508 26.9622 28.4301 25.9158 27.8093 24.7783ZM29.401 23.7712C29.7811 24.5421 30.8216 25.5355 31.9991 25.5355C33.1766 25.5355 34.2171 24.5421 34.5972 23.7712C33.7538 23.3788 32.8565 23.1605 31.9991 23.1605C31.1417 23.1605 30.2443 23.379 29.401 23.7712ZM41.1301 5.29385C43.5812 6.78385 45.8363 9.3116 47.4816 12.193C49.7303 11.5656 51.3135 9.5136 51.3135 7.13122C51.3135 4.23285 48.9555 1.87497 46.0572 1.87497C43.8385 1.87497 41.8871 3.25522 41.1301 5.29385ZM17.9387 1.87497C15.0403 1.87497 12.6825 4.23297 12.6825 7.13122C12.6825 9.51097 14.2618 11.561 16.5065 12.1907C16.5808 12.0596 16.6566 11.9291 16.7337 11.7991C18.4297 8.94147 20.58 6.66572 22.8645 5.29047C22.1067 3.25372 20.1561 1.87497 17.9387 1.87497ZM45.4013 60C43.1097 60 41.2453 58.1356 41.2453 55.844C41.2453 53.5523 43.1097 51.688 45.4013 51.688C47.693 51.688 49.5573 53.5523 49.5573 55.844C49.5573 58.1356 47.693 60 45.4013 60ZM45.4013 53.563C44.1436 53.563 43.1203 54.5862 43.1203 55.844C43.1203 57.1017 44.1436 58.125 45.4013 58.125C46.6591 58.125 47.6823 57.1017 47.6823 55.844C47.6823 54.5862 46.6591 53.563 45.4013 53.563ZM18.5968 60C16.3052 60 14.4408 58.1356 14.4408 55.844C14.4408 53.5523 16.3052 51.688 18.5968 51.688C20.8885 51.688 22.7528 53.5523 22.7528 55.844C22.7528 58.1356 20.8885 60 18.5968 60ZM18.5968 53.563C17.3391 53.563 16.3158 54.5862 16.3158 55.844C16.3158 57.1017 17.3391 58.125 18.5968 58.125C19.8546 58.125 20.8778 57.1017 20.8778 55.844C20.8778 54.5862 19.8546 53.563 18.5968 53.563ZM33.6383 49.5337C33.3985 49.5337 33.1585 49.4422 32.9755 49.2591L31.9991 48.2827L31.0227 49.2591C30.6566 49.6252 30.063 49.6253 29.697 49.2591C29.3308 48.893 29.3308 48.2994 29.697 47.9333L30.6733 46.957L29.697 45.9806C29.3308 45.6145 29.3308 45.021 29.697 44.6549C30.0631 44.2887 30.6567 44.2887 31.0227 44.6549L31.9991 45.6312L32.9755 44.6549C33.3416 44.2887 33.9352 44.2887 34.3012 44.6549C34.6673 45.021 34.6673 45.6146 34.3012 45.9806L33.3248 46.957L34.3012 47.9333C34.6673 48.2995 34.6673 48.8931 34.3012 49.2591C34.1182 49.4421 33.8783 49.5337 33.6383 49.5337ZM37.5253 21.2495C37.0076 21.2495 36.5878 20.8297 36.5878 20.312V18.437C36.5878 17.9192 37.0076 17.4995 37.5253 17.4995C38.0431 17.4995 38.4628 17.9192 38.4628 18.437V20.312C38.4628 20.8297 38.0431 21.2495 37.5253 21.2495ZM26.4728 21.2495C25.9551 21.2495 25.5353 20.8297 25.5353 20.312V18.437C25.5353 17.9192 25.9551 17.4995 26.4728 17.4995C26.9906 17.4995 27.4103 17.9192 27.4103 18.437V20.312C27.4103 20.8297 26.9906 21.2495 26.4728 21.2495Z" fill="white"/>
</g>
<defs>
<clipPath id="clip0_763_2858">
<rect width="64" height="64" fill="white"/>
</clipPath>
</defs>
</svg>
