<svg width="64" height="64" viewBox="0 0 64 64" fill="none" xmlns="http://www.w3.org/2000/svg">
<path d="M61.0585 56.1131H59.992V28.3003C62.4002 26.7506 64 24.0485 64 20.978C64 20.8149 63.9574 20.6545 63.8765 20.5129L56.4374 7.49439C55.9149 6.58027 54.9362 6.01227 53.8834 6.01227H10.1166C9.06375 6.01227 8.08512 6.58014 7.56262 7.49439L0.1235 20.5129C0.042625 20.6545 0 20.815 0 20.978C0 24.0485 1.59975 26.7506 4.008 28.3003V56.1131H2.9415C2.42375 56.1131 2.004 56.5329 2.004 57.0506C2.004 57.5684 2.42375 57.9881 2.9415 57.9881H61.0585C61.5764 57.9881 61.996 57.5684 61.996 57.0506C61.996 56.5329 61.5762 56.1131 61.0585 56.1131ZM1.93963 21.9155H4.94513C5.46288 21.9155 5.88263 21.4958 5.88263 20.978C5.88263 20.4603 5.46288 20.0405 4.94513 20.0405H2.553L9.19063 8.42464C9.38013 8.09314 9.73487 7.88727 10.1166 7.88727H53.8834C54.2651 7.88727 54.62 8.09314 54.8094 8.42464L61.4469 20.0405H59.0542C58.5364 20.0405 58.1167 20.4603 58.1167 20.978C58.1167 21.4958 58.5364 21.9155 59.0542 21.9155H62.0602C61.6019 25.2385 58.7437 27.8061 55.2967 27.8061C51.8499 27.8061 48.9931 25.2383 48.5346 21.9155H55.0466C55.5645 21.9155 55.9841 21.4958 55.9841 20.978C55.9841 20.4603 55.5645 20.0405 55.0466 20.0405H8.95387C8.43612 20.0405 8.01637 20.4603 8.01637 20.978C8.01637 21.4958 8.43612 21.9155 8.95387 21.9155H15.4653C15.0068 25.2383 12.1499 27.8061 8.70312 27.8061C5.25612 27.8061 2.398 25.2385 1.93963 21.9155ZM46.5277 21.9155C46.0692 25.2383 43.2124 27.8061 39.7656 27.8061C36.3187 27.8061 33.462 25.2383 33.0035 21.9155H46.5277ZM30.9965 21.9155C30.538 25.2383 27.6811 27.8061 24.2344 27.8061C20.7876 27.8061 17.9307 25.2383 17.4722 21.9155H30.9965ZM53.1068 56.1133H42.9576V52.9781H53.1068V56.1133ZM53.1068 51.1031H42.9576V33.9398H53.1068V51.1031ZM58.117 56.1133H54.9819V33.0023C54.9819 32.4845 54.5623 32.0648 54.0444 32.0648H42.0202C41.5024 32.0648 41.0827 32.4845 41.0827 33.0023V56.1131H5.883V29.2095C6.76813 29.5136 7.71613 29.6811 8.70312 29.6811C12.09 29.6811 15.0311 27.7366 16.4688 24.9053C17.9064 27.7365 20.8475 29.6811 24.2344 29.6811C27.6213 29.6811 30.5624 27.7366 32 24.9053C33.4376 27.7365 36.3787 29.6811 39.7656 29.6811C43.1525 29.6811 46.0936 27.7366 47.5312 24.9053C48.9689 27.7365 51.91 29.6811 55.2969 29.6811C56.2839 29.6811 57.2319 29.5136 58.117 29.2096V56.1133Z" fill="white"/>
<path d="M37.0105 32.0648H9.95602C9.43827 32.0648 9.01852 32.4846 9.01852 33.0023V52.0407C9.01852 52.5584 9.43827 52.9782 9.95602 52.9782H37.0105C37.5284 52.9782 37.948 52.5584 37.948 52.0407V33.0023C37.948 32.4844 37.5284 32.0648 37.0105 32.0648ZM36.073 51.1032H10.8935V33.9398H36.073V51.1032Z" fill="white"/>
</svg>
