<svg width="64" height="64" viewBox="0 0 64 64" fill="none" xmlns="http://www.w3.org/2000/svg">
<path d="M13.9651 49.6003C12.8956 49.6003 12.0255 50.4703 12.0255 51.5398C12.0255 52.6093 12.8956 53.4793 13.9651 53.4793C15.0346 53.4793 15.9046 52.6093 15.9046 51.5398C15.9046 50.4703 15.0346 49.6003 13.9651 49.6003Z" fill="white"/>
<path d="M54.0426 49.6003C52.9731 49.6003 52.1031 50.4703 52.1031 51.5398C52.1031 52.6093 52.9731 53.4793 54.0426 53.4793C55.1121 53.4793 55.9823 52.6093 55.9823 51.5398C55.9823 50.4703 55.1121 49.6003 54.0426 49.6003Z" fill="white"/>
<path d="M61.9886 37.1673L54.7705 34.7613L51.3971 25.484C50.976 24.3258 49.865 23.5477 48.6326 23.5477H39.9518V21.4792C39.9518 20.4097 39.0816 19.5397 38.0121 19.5397H23.5289C25.265 18.5133 27.3781 17.1902 28.9802 15.9529C30.3899 16.4953 31.4118 17.2458 31.4375 17.2649C31.8511 17.5753 32.4384 17.4919 32.7492 17.0786C33.0604 16.6647 32.9772 16.0771 32.5635 15.7658C32.49 15.7106 31.7157 15.1381 30.5504 14.5859C30.7261 14.404 30.8799 14.2283 31.0063 14.0606C32.5696 11.9855 32.1534 9.02555 30.0783 7.46218C29.0731 6.7048 27.8331 6.3843 26.5869 6.55955C25.3405 6.7348 24.2371 7.38505 23.48 8.39018C22.2617 10.0072 20.8699 14.1311 19.9759 17.0774C19.0819 14.1311 17.6899 10.0072 16.4718 8.39018C14.9081 6.31518 11.9481 5.89905 9.8735 7.46218C7.7985 9.02542 7.38213 11.9854 8.94538 14.0606C9.07175 14.2282 9.22538 14.4041 9.40112 14.5858C8.23588 15.1381 7.46175 15.7106 7.38825 15.7658C6.97437 16.0771 6.89125 16.6647 7.2025 17.0786C7.51388 17.4923 8.10138 17.5756 8.51525 17.2642C8.53413 17.2501 9.55412 16.4943 10.9672 15.9496C12.5699 17.1878 14.6854 18.5124 16.423 19.5397H1.93963C0.870125 19.5397 0 20.4098 0 21.4792V28.4933C0 29.011 0.419625 29.4308 0.9375 29.4308H1.00213V48.5337C1.00213 49.6032 1.87213 50.4732 2.94163 50.4732H8.11375C8.05075 50.8194 8.01612 51.1755 8.01612 51.5397C8.01612 54.8192 10.6842 57.4873 13.9637 57.4873C17.2431 57.4873 19.9112 54.8192 19.9112 51.5397C19.9112 51.1754 19.8766 50.8194 19.8136 50.4732H48.1945C48.1315 50.8194 48.0969 51.1755 48.0969 51.5397C48.0969 54.8192 50.765 57.4873 54.0444 57.4873C57.3239 57.4873 59.992 54.8192 59.992 51.5397C59.992 51.0764 59.937 50.6259 59.8364 50.1929L61.8201 49.201C63.1646 48.5287 64 47.1772 64 45.6738V39.9579C64 38.6898 63.1916 37.5683 61.9886 37.1673ZM50.8371 29.4309L52.7059 34.57H50.693L48.8242 29.4309H50.8371ZM39.9518 25.4229H48.6326V25.4228C49.0795 25.4228 49.4824 25.7049 49.635 26.1249L50.1554 27.5559H39.9518V25.4229ZM39.0143 29.4308H46.8291L48.6979 34.5699H38.9497V29.4308H39.0143ZM24.9775 9.51843C25.4334 8.91318 26.0977 8.5218 26.848 8.4163C26.9821 8.39743 27.116 8.38805 27.249 8.38805C27.8606 8.38805 28.453 8.58518 28.95 8.95968C29.5551 9.41555 29.9465 10.0799 30.052 10.8302C30.1575 11.5804 29.9645 12.3269 29.5085 12.9321C29.303 13.2048 28.9901 13.5168 28.599 13.8543C27.2679 13.4899 25.7395 13.3556 24.2383 13.8464C23.7166 14.0169 23.2261 14.2527 22.767 14.5531C23.5036 12.4163 24.312 10.4019 24.9775 9.51843ZM24.8145 15.6309C25.3819 15.4444 25.9665 15.3834 26.5425 15.4076C25.0679 16.4238 23.3296 17.4848 21.8621 18.3391C22.6414 16.9299 23.6286 16.0208 24.8145 15.6309ZM18.9093 21.4147H21.0422V44.59H18.9093V21.4147ZM10.4429 12.9323C9.50175 11.6831 9.7525 9.90093 11.0016 8.9598C11.5119 8.57543 12.1108 8.3898 12.7051 8.3898C13.5661 8.3898 14.4174 8.77943 14.9741 9.51843C15.6397 10.4019 16.4481 12.4162 17.1845 14.5532C16.7254 14.2528 16.2348 14.0171 15.7133 13.8466C14.2118 13.3554 12.6831 13.4898 11.352 13.8543C10.9611 13.5169 10.6484 13.205 10.4429 12.9323ZM13.4059 15.4053C13.9798 15.3822 14.5631 15.4431 15.1306 15.6287C16.3195 16.0174 17.309 16.9274 18.0899 18.3393C16.6211 17.4844 14.8814 16.4224 13.4059 15.4053ZM1.875 21.4792C1.875 21.4435 1.90387 21.4147 1.93963 21.4147H17.0344V27.5558H1.875V21.4792ZM17.0343 29.4308V44.59H2.87713V29.4308H17.0343ZM8.79762 48.5982H2.9415C2.906 48.5982 2.877 48.5693 2.877 48.5337V46.4652H10.8652C10.0092 46.9898 9.29662 47.7253 8.79762 48.5982ZM13.9637 55.6123C11.7181 55.6123 9.89112 53.7853 9.89112 51.5397C9.89112 49.294 11.7181 47.467 13.9637 47.467C16.2094 47.467 18.0362 49.294 18.0362 51.5397C18.0362 53.7853 16.2094 55.6123 13.9637 55.6123ZM37.0746 48.5982H19.1296C18.6306 47.7253 17.9181 46.9897 17.0621 46.4652H37.0746V48.5982ZM37.0746 44.59H22.9174V29.4308H37.0746V44.59ZM38.0766 27.5558H38.012H22.9174V21.4147H38.0121C38.0477 21.4147 38.0766 21.4437 38.0766 21.4792V27.5558ZM54.0443 55.6123C51.7986 55.6123 49.9717 53.7853 49.9717 51.5397C49.9717 49.294 51.7986 47.467 54.0443 47.467C56.2899 47.467 58.1169 49.294 58.1169 51.5397C58.1169 53.7853 56.2899 55.6123 54.0443 55.6123ZM62.125 41.584H61.0585C60.5406 41.584 60.121 42.0038 60.121 42.5215C60.121 43.0393 60.5406 43.459 61.0585 43.459H62.125V45.6738C62.125 46.4624 61.6869 47.1713 60.9815 47.524L59.1258 48.4519C58.0806 46.7385 56.1939 45.5922 54.0444 45.5922C51.8346 45.5922 49.9038 46.8046 48.8785 48.5982H38.9497V43.459H57.0506C57.5685 43.459 57.9881 43.0393 57.9881 42.5215C57.9881 42.0038 57.5685 41.584 57.0506 41.584H38.9496V36.445H53.8921L61.3957 38.9462C61.8319 39.0915 62.125 39.4982 62.125 39.9579V41.584Z" fill="white"/>
</svg>
