<svg width="36" height="36" viewBox="0 0 36 36" fill="none" xmlns="http://www.w3.org/2000/svg">
<path d="M9.21808 17.6942C9.96653 17.932 10.5727 18.3511 11.0365 18.9515C11.5109 19.5405 11.7481 20.254 11.7481 21.0922C11.7481 22.3155 11.3633 23.2727 10.5938 23.9636C9.83476 24.6545 8.90183 25 7.79496 25C6.93056 25 6.15575 24.7905 5.47055 24.3714C4.79589 23.9409 4.30571 23.3123 4 22.4854L5.86586 21.3301C6.13994 22.2476 6.78297 22.7063 7.79496 22.7063C8.35367 22.7063 8.78587 22.5647 9.09158 22.2816C9.40782 21.9871 9.56595 21.5906 9.56595 21.0922C9.56595 20.6052 9.40782 20.2144 9.09158 19.9199C8.78587 19.6254 8.35367 19.4782 7.79496 19.4782H7.32059L6.48254 18.1189L8.66464 15.0607H4.33206V12.8689H11.2895V14.8058L9.21808 17.6942Z" fill="url(#paint0_linear_763_4580)"/>
<path d="M16.7593 16.7257C17.9084 16.7597 18.8413 17.1618 19.5581 17.932C20.2749 18.6909 20.6334 19.665 20.6334 20.8544C20.6334 22.0663 20.2591 23.0631 19.5107 23.8447C18.7622 24.6149 17.7977 25 16.617 25C15.4364 25 14.4718 24.6149 13.7234 23.8447C12.9855 23.0744 12.6165 22.0777 12.6165 20.8544C12.6165 19.9482 12.8326 19.1497 13.2648 18.4587L16.7119 12.8689H19.2102L16.7593 16.7257ZM15.3046 22.2646C15.6525 22.6157 16.0899 22.7913 16.617 22.7913C17.1441 22.7913 17.5816 22.6157 17.9294 22.2646C18.2879 21.9134 18.4671 21.4434 18.4671 20.8544C18.4671 20.2767 18.2879 19.8123 17.9294 19.4612C17.5816 19.11 17.1441 18.9345 16.617 18.9345C16.0899 18.9345 15.6525 19.11 15.3046 19.4612C14.9567 19.801 14.7828 20.2654 14.7828 20.8544C14.7828 21.4434 14.9567 21.9134 15.3046 22.2646Z" fill="url(#paint1_linear_763_4580)"/>
<path d="M25.9737 25C24.5928 25 23.507 24.4393 22.7164 23.318C21.9363 22.1853 21.5463 20.6845 21.5463 18.8155C21.5463 16.9466 21.9363 15.4515 22.7164 14.3301C23.507 13.1974 24.5928 12.6311 25.9737 12.6311C27.3652 12.6311 28.451 13.1974 29.2311 14.3301C30.0112 15.4515 30.4012 16.9466 30.4012 18.8155C30.4012 20.6845 30.0112 22.1853 29.2311 23.318C28.451 24.4393 27.3652 25 25.9737 25ZM24.2976 21.7209C24.6771 22.3778 25.2358 22.7063 25.9737 22.7063C26.7116 22.7063 27.2703 22.3722 27.6498 21.7039C28.0399 21.0356 28.2349 20.0728 28.2349 18.8155C28.2349 17.5469 28.0399 16.5785 27.6498 15.9102C27.2703 15.2419 26.7116 14.9078 25.9737 14.9078C25.2358 14.9078 24.6771 15.2419 24.2976 15.9102C23.9181 16.5785 23.7284 17.5469 23.7284 18.8155C23.7284 20.0841 23.9181 21.0526 24.2976 21.7209Z" fill="url(#paint2_linear_763_4580)"/>
<path d="M33.3435 16.6068C32.5845 16.6068 31.952 16.335 31.446 15.7913C30.94 15.2362 30.687 14.5736 30.687 13.8034C30.687 13.0218 30.94 12.3592 31.446 11.8155C31.952 11.2718 32.5845 11 33.3435 11C34.1025 11 34.735 11.2718 35.241 11.8155C35.747 12.3592 36 13.0218 36 13.8034C36 14.585 35.747 15.2476 35.241 15.7913C34.7456 16.335 34.1131 16.6068 33.3435 16.6068ZM32.6636 14.534C32.8428 14.7265 33.0694 14.8228 33.3435 14.8228C33.6176 14.8228 33.839 14.7265 34.0076 14.534C34.1868 14.3414 34.2765 14.0979 34.2765 13.8034C34.2765 13.5089 34.1868 13.2654 34.0076 13.0728C33.839 12.8803 33.6176 12.784 33.3435 12.784C33.0694 12.784 32.8428 12.8803 32.6636 13.0728C32.4949 13.2654 32.4106 13.5089 32.4106 13.8034C32.4106 14.0979 32.4949 14.3414 32.6636 14.534Z" fill="url(#paint3_linear_763_4580)"/>
<defs>
<linearGradient id="paint0_linear_763_4580" x1="36.0796" y1="11" x2="3.01176" y2="14.3001" gradientUnits="userSpaceOnUse">
<stop stop-color="#FF8F00"/>
<stop offset="1" stop-color="#E95322"/>
</linearGradient>
<linearGradient id="paint1_linear_763_4580" x1="36.0796" y1="11" x2="3.01176" y2="14.3001" gradientUnits="userSpaceOnUse">
<stop stop-color="#FF8F00"/>
<stop offset="1" stop-color="#E95322"/>
</linearGradient>
<linearGradient id="paint2_linear_763_4580" x1="36.0796" y1="11" x2="3.01176" y2="14.3001" gradientUnits="userSpaceOnUse">
<stop stop-color="#FF8F00"/>
<stop offset="1" stop-color="#E95322"/>
</linearGradient>
<linearGradient id="paint3_linear_763_4580" x1="36.0796" y1="11" x2="3.01176" y2="14.3001" gradientUnits="userSpaceOnUse">
<stop stop-color="#FF8F00"/>
<stop offset="1" stop-color="#E95322"/>
</linearGradient>
</defs>
</svg>
