<svg width="14" height="16" viewBox="0 0 14 16" fill="none" xmlns="http://www.w3.org/2000/svg">
<path d="M3.3066 2.03074L3.30668 2.03066C3.16515 1.87616 3.02242 1.81073 2.89371 1.81073C2.76104 1.81073 2.6126 1.87736 2.46873 2.02615L1.46346 3.10465C1.22 3.36585 1.09081 3.66634 1.06007 4.03068C1.01824 4.59561 1.11988 5.22232 1.39549 6.0118L1.3956 6.01211C1.84028 7.29964 2.5131 8.50273 3.51626 9.79827C4.73262 11.3596 6.19779 12.5886 7.8661 13.4548C8.48323 13.7699 9.29248 14.1329 10.1578 14.1924C10.1578 14.1924 10.1579 14.1924 10.158 14.1924L3.3066 2.03074ZM3.3066 2.03074L3.30997 2.03408M3.3066 2.03074L3.30997 2.03408M3.30997 2.03408C3.46524 2.18824 3.61245 2.34882 3.76925 2.51987C3.79323 2.54603 3.81742 2.57242 3.84191 2.59908C3.88809 2.65008 3.9349 2.70103 3.98176 2.75203L3.98266 2.75301C4.02939 2.80386 4.07617 2.85477 4.12292 2.90635L4.12291 2.90636M3.30997 2.03408L4.12291 2.90636M4.12291 2.90636L4.12387 2.90739M4.12291 2.90636L4.12387 2.90739M4.12387 2.90739L4.92964 3.77187C5.0868 3.94047 5.15697 4.10004 5.15697 4.24617C5.15697 4.39229 5.0868 4.55186 4.92964 4.72046C4.88743 4.76575 4.84526 4.81173 4.80341 4.85735L4.80337 4.85739L4.80337 4.8574C4.76141 4.90314 4.71977 4.94853 4.67817 4.99315L4.67781 4.99354M4.12387 2.90739L4.67781 4.99354M4.67781 4.99354C4.65895 5.01399 4.6402 5.03434 4.62154 5.0546C4.39063 5.3052 4.17363 5.54071 3.93616 5.76629L3.93604 5.76615M4.67781 4.99354L3.93604 5.76615M3.93604 5.76615L3.93188 5.77061M3.93604 5.76615L3.93188 5.77061M3.93188 5.77061L3.91836 5.78511C3.79244 5.92021 3.73521 6.0573 3.72013 6.18894C3.70531 6.31826 3.73212 6.43461 3.76082 6.52698C3.76301 6.53402 3.76519 6.53985 3.76652 6.54342L3.76667 6.54385L3.76893 6.55018L3.76871 6.55025M3.93188 5.77061L3.76871 6.55025M3.76871 6.55025L3.7712 6.55668M3.76871 6.55025L3.7712 6.55668M3.7712 6.55668C3.98334 7.10349 4.27758 7.62186 4.73318 8.23651L4.73318 8.23651M3.7712 6.55668L4.73318 8.23651M4.73318 8.23651L4.73374 8.23725L4.73318 8.23651ZM7.77705 10.9329C7.75752 10.9221 7.73777 10.9114 7.71786 10.9006C7.61923 10.8471 7.51687 10.7916 7.42013 10.724M7.77705 10.9329L3.99152 5.85329C3.76709 6.09407 3.80224 6.32325 3.85632 6.49731C3.85767 6.50166 3.85902 6.50528 3.86037 6.50891C3.86173 6.51254 3.86308 6.51616 3.86443 6.52051C4.07263 7.05719 4.36196 7.56776 4.81352 8.17696C5.6247 9.25031 6.47915 10.0829 7.42013 10.724M7.77705 10.9329C7.88521 10.9909 7.98525 11.046 8.07448 11.1069L7.77705 10.9329ZM7.42013 10.724L7.36286 10.806C7.36302 10.8061 7.36318 10.8062 7.36333 10.8063C7.3635 10.8064 7.36366 10.8065 7.36382 10.8066L7.42013 10.724ZM12.301 12.689L12.302 12.688C12.4561 12.5159 12.5248 12.3519 12.5259 12.1995C12.527 12.0478 12.4613 11.89 12.3115 11.7292L12.301 12.689ZM12.301 12.689C12.1894 12.8174 12.072 12.9405 11.9452 13.0707L11.9447 13.0713M12.301 12.689L11.9447 13.0713M11.9447 13.0713C11.9341 13.0823 11.9235 13.0934 11.9128 13.1045M11.9447 13.0713L11.9128 13.1045M11.9128 13.1045C11.7344 13.2903 11.546 13.4864 11.3744 13.7065L11.9128 13.1045ZM2.84444 10.3676L2.84459 10.3677L11.9438 14.237L12.017 14.3052L12.0172 14.3051C12.0173 14.3049 12.0176 14.3046 12.018 14.3042C12.0209 14.3011 12.0298 14.2914 12.0379 14.2784C12.1795 14.0958 12.3393 13.9295 12.5111 13.7507C12.5235 13.7378 12.5359 13.7249 12.5484 13.7119C12.6759 13.5809 12.8067 13.4435 12.9323 13.3029C13.2346 12.9649 13.3898 12.5762 13.3891 12.1855C13.3883 11.7946 13.2315 11.4105 12.9255 11.0823L11.3011 9.3395C11.0104 9.01565 10.6551 8.83701 10.2755 8.83701C9.89583 8.83701 9.5382 9.01568 9.23975 9.33588L8.32685 10.3153C8.25808 10.2753 8.18953 10.2385 8.12561 10.2042L8.12446 10.2036C8.0162 10.1456 7.92046 10.0927 7.83614 10.0351L7.83605 10.0351C6.9652 9.4418 6.17254 8.66678 5.41275 7.66741C5.04749 7.17133 4.79916 6.75439 4.62343 6.33602C4.86181 6.10158 5.08581 5.8583 5.30116 5.62183L5.30148 5.62148C5.38196 5.53226 5.46522 5.44293 5.54914 5.35289C5.85523 5.0245 6.02484 4.63841 6.02484 4.24036C6.02484 3.84274 5.85826 3.45651 5.54897 3.12766C5.54892 3.12761 5.54887 3.12755 5.54882 3.1275L4.74336 2.26335C4.65179 2.16512 4.56527 2.06956 4.47584 1.97079L4.46856 1.96275C4.46856 1.96275 4.46856 1.96275 4.46856 1.96275C4.46855 1.96274 4.46854 1.96273 4.46853 1.96272C4.29025 1.76565 4.10254 1.5613 3.917 1.37681C3.6233 1.06829 3.27148 0.9 2.89371 0.9C2.51809 0.9 2.16367 1.06876 1.8596 1.37974L1.85958 1.37972L1.85795 1.38146L0.846674 2.46642C0.463077 2.87796 0.245897 3.37809 0.200922 3.95409L0.200892 3.95448C0.148225 4.66525 0.270731 5.4161 0.581944 6.31527C1.05929 7.70527 1.779 8.99412 2.84444 10.3676ZM8.05586 11.2118C8.15798 11.2683 8.26101 11.2969 8.36651 11.2969C8.62902 11.2969 8.79573 11.118 8.84253 11.0678L8.84255 11.0678L9.85383 9.98281C9.99945 9.82658 10.1452 9.75644 10.2755 9.75644C10.4368 9.75644 10.5791 9.86524 10.6785 9.98007L10.6784 9.98012L10.681 9.98287L12.3114 11.7292L8.05586 11.2118Z" fill="white" stroke="white" stroke-width="0.2"/>
</svg>
