<svg width="37" height="36" viewBox="0 0 37 36" fill="none" xmlns="http://www.w3.org/2000/svg">
<path d="M27.5 24.75H7.25C6.575 24.75 6.125 25.2 6.125 25.875V31.5C6.125 32.175 6.575 32.625 7.25 32.625H27.5C28.175 32.625 28.625 32.175 28.625 31.5V25.875C28.625 25.2 28.175 24.75 27.5 24.75Z" stroke="#ED4F00" stroke-width="1.5" stroke-miterlimit="10" stroke-linecap="round" stroke-linejoin="round"/>
<path d="M11.75 24.75H7.25V22.5C7.25 21.825 7.7 21.375 8.375 21.375H10.625C11.3 21.375 11.75 21.825 11.75 22.5V24.75Z" stroke="#ED4F00" stroke-width="1.5" stroke-miterlimit="10" stroke-linecap="round" stroke-linejoin="round"/>
<path d="M28.625 16.875H16.25C15.575 16.875 15.125 17.325 15.125 18V23.625C15.125 24.3 15.575 24.75 16.25 24.75H28.625C29.3 24.75 29.75 24.3 29.75 23.625V18C29.75 17.325 29.3 16.875 28.625 16.875Z" stroke="#ED4F00" stroke-width="1.5" stroke-miterlimit="10" stroke-linecap="round" stroke-linejoin="round"/>
<path d="M28.625 16.875H24.125V14.625C24.125 13.95 24.575 13.5 25.25 13.5H27.5C28.175 13.5 28.625 13.95 28.625 14.625V16.875Z" stroke="#ED4F00" stroke-width="1.5" stroke-miterlimit="10" stroke-linecap="round" stroke-linejoin="round"/>
<path d="M19.625 9H7.25C6.575 9 6.125 9.45 6.125 10.125V15.75C6.125 16.425 6.575 16.875 7.25 16.875H19.625C20.3 16.875 20.75 16.425 20.75 15.75V10.125C20.75 9.45 20.3 9 19.625 9Z" stroke="#ED4F00" stroke-width="1.5" stroke-miterlimit="10" stroke-linecap="round" stroke-linejoin="round"/>
<path d="M11.75 9H7.25V6.75C7.25 6.075 7.7 5.625 8.375 5.625H10.625C11.3 5.625 11.75 6.075 11.75 6.75V9Z" stroke="#ED4F00" stroke-width="1.5" stroke-miterlimit="10" stroke-linecap="round" stroke-linejoin="round"/>
<path d="M19.625 9H15.125V6.75C15.125 6.075 15.575 5.625 16.25 5.625H18.5C19.175 5.625 19.625 6.075 19.625 6.75V9Z" stroke="#ED4F00" stroke-width="1.5" stroke-miterlimit="10" stroke-linecap="round" stroke-linejoin="round"/>
</svg>
