<svg width="36" height="36" viewBox="0 0 36 36" fill="none" xmlns="http://www.w3.org/2000/svg">
<path d="M22.8375 32.625C24.75 29.5875 25.875 24.975 25.875 19.6875C25.875 10.6875 22.3875 3.375 18 3.375C13.6125 3.375 10.125 10.6875 10.125 19.6875C10.125 24.975 11.3625 29.5875 13.1625 32.625H22.8375Z" stroke="#ED4F00" stroke-width="1.5" stroke-miterlimit="10" stroke-linecap="round" stroke-linejoin="round"/>
<path d="M18 23.625C19.864 23.625 21.375 22.114 21.375 20.25C21.375 18.386 19.864 16.875 18 16.875C16.136 16.875 14.625 18.386 14.625 20.25C14.625 22.114 16.136 23.625 18 23.625Z" stroke="#ED4F00" stroke-width="1.5" stroke-miterlimit="10" stroke-linecap="round" stroke-linejoin="round"/>
<path d="M11.5879 10.125C15.5254 12.2625 20.3629 12.2625 24.3004 10.125" stroke="#ED4F00" stroke-width="1.5" stroke-miterlimit="10" stroke-linecap="round" stroke-linejoin="round"/>
<path d="M9.11172 18C6.86172 18 4.94922 21.2625 4.94922 25.3125C4.94922 28.0125 5.73672 30.2625 6.97422 31.5H11.2492" stroke="#ED4F00" stroke-width="1.5" stroke-miterlimit="10" stroke-linecap="round" stroke-linejoin="round"/>
<path d="M26.8875 18C29.1375 18 31.05 21.2625 31.05 25.3125C31.05 28.0125 30.2625 30.2625 29.025 31.5H24.75" stroke="#ED4F00" stroke-width="1.5" stroke-miterlimit="10" stroke-linecap="round" stroke-linejoin="round"/>
</svg>
