<svg width="37" height="36" viewBox="0 0 37 36" fill="none" xmlns="http://www.w3.org/2000/svg">
<path d="M10.2345 17.0001C8.75116 17.0001 7.30114 17.4399 6.06779 18.264C4.83444 19.0881 3.87316 20.2594 3.30552 21.6299C2.73787 23.0003 2.58935 24.5083 2.87873 25.9631C3.16811 27.4179 3.88241 28.7543 4.93129 29.8031C5.98016 30.852 7.31651 31.5663 8.77135 31.8557C10.2262 32.1451 11.7342 31.9966 13.1046 31.4289C14.475 30.8613 15.6463 29.9 16.4704 28.6666C17.2945 27.4333 17.7344 25.9833 17.7344 24.4999C17.7344 22.5108 16.9442 20.6032 15.5377 19.1967C14.1312 17.7902 12.2236 17.0001 10.2345 17.0001ZM32.4412 13.7857L26.1758 3.07197C25.9827 2.74548 25.7079 2.47494 25.3784 2.28701C25.0489 2.09908 24.6761 2.00024 24.2968 2.00024C23.9174 2.00024 23.5447 2.09908 23.2152 2.28701C22.8857 2.47494 22.6108 2.74548 22.4177 3.07197L16.1524 13.7857C15.318 15.2141 16.3621 17.0001 18.0326 17.0001H30.5609C32.2314 17.0001 33.2755 15.2141 32.4412 13.7857ZM30.8592 18.875H21.4843C20.987 18.875 20.5101 19.0726 20.1585 19.4242C19.8069 19.7758 19.6093 20.2527 19.6093 20.75V30.1248C19.6093 30.6221 19.8069 31.099 20.1585 31.4506C20.5101 31.8023 20.987 31.9998 21.4843 31.9998H30.8592C31.3564 31.9998 31.8333 31.8023 32.185 31.4506C32.5366 31.099 32.7341 30.6221 32.7341 30.1248V20.75C32.7341 20.2527 32.5366 19.7758 32.185 19.4242C31.8333 19.0726 31.3564 18.875 30.8592 18.875Z" fill="#E95322"/>
</svg>
