<svg width="37" height="36" viewBox="0 0 37 36" fill="none" xmlns="http://www.w3.org/2000/svg">
<path d="M12.1516 3.99693C11.4895 2.95399 9.97199 2.66103 8.98764 3.44616C5.73578 6.04179 3.66748 9.91473 3.66748 14.2505H18.667L12.1516 3.99693ZM32.7291 8.6257H29.9167C27.8484 8.6257 26.1668 10.3073 26.1668 12.3756V16.1255H3.66748C3.66748 19.0903 5.0151 21.7738 7.20058 23.7835C5.1733 24.3049 3.66748 26.1272 3.66748 28.3126C3.66748 30.9024 5.76508 33 8.35485 33C10.9446 33 13.0422 30.9024 13.0422 28.3126C13.0422 27.7912 12.9367 27.3049 12.7844 26.8361C14.05 27.1818 15.3976 27.3752 16.7921 27.3752C18.1866 27.3752 19.5401 27.1818 20.7998 26.8361C20.6416 27.3049 20.542 27.7912 20.542 28.3126C20.542 30.9024 22.6396 33 25.2294 33C27.8191 33 29.9167 30.9024 29.9167 28.3126C29.9167 26.1272 28.4109 24.3049 26.3836 23.7835C28.5691 21.7738 29.9167 19.0903 29.9167 16.1255V12.3756H32.7291C33.2448 12.3756 33.6666 11.9537 33.6666 11.4381V9.56318C33.6666 9.04757 33.2448 8.6257 32.7291 8.6257ZM8.35485 30.1876C7.32363 30.1876 6.4799 29.3439 6.4799 28.3126C6.4799 27.2814 7.32363 26.4377 8.35485 26.4377C9.38607 26.4377 10.2298 27.2814 10.2298 28.3126C10.2298 29.3439 9.38607 30.1876 8.35485 30.1876ZM27.1043 28.3126C27.1043 29.3439 26.2606 30.1876 25.2294 30.1876C24.1981 30.1876 23.3544 29.3439 23.3544 28.3126C23.3544 27.2814 24.1981 26.4377 25.2294 26.4377C26.2606 26.4377 27.1043 27.2814 27.1043 28.3126Z" fill="#E95322"/>
</svg>
