<svg width="36" height="36" viewBox="0 0 36 36" fill="none" xmlns="http://www.w3.org/2000/svg">
<path d="M10.125 32.625C12.6103 32.625 14.625 30.6103 14.625 28.125C14.625 25.6397 12.6103 23.625 10.125 23.625C7.63972 23.625 5.625 25.6397 5.625 28.125C5.625 30.6103 7.63972 32.625 10.125 32.625Z" stroke="#ED4F00" stroke-width="1.5" stroke-miterlimit="10" stroke-linecap="round" stroke-linejoin="round"/>
<path d="M24.75 32.625C27.2353 32.625 29.25 30.6103 29.25 28.125C29.25 25.6397 27.2353 23.625 24.75 23.625C22.2647 23.625 20.25 25.6397 20.25 28.125C20.25 30.6103 22.2647 32.625 24.75 32.625Z" stroke="#ED4F00" stroke-width="1.5" stroke-miterlimit="10" stroke-linecap="round" stroke-linejoin="round"/>
<path d="M7.875 3.375V11.25" stroke="#ED4F00" stroke-width="1.5" stroke-miterlimit="10" stroke-linecap="round" stroke-linejoin="round"/>
<path d="M14.625 12.375V12.7125C14.625 15.6375 16.9875 18 19.9125 18H23.625" stroke="#ED4F00" stroke-width="1.5" stroke-miterlimit="10" stroke-linecap="round" stroke-linejoin="round"/>
<path d="M6.75 15.75H11.25" stroke="#ED4F00" stroke-width="1.5" stroke-miterlimit="10" stroke-linecap="round" stroke-linejoin="round"/>
<path d="M6.75 19.125H7.875" stroke="#ED4F00" stroke-width="1.5" stroke-miterlimit="10" stroke-linecap="round" stroke-linejoin="round"/>
<path d="M29.25 28.125H32.625V27C32.625 22.05 28.575 18 23.625 18C20.8125 13.8375 16.0875 11.25 11.025 11.25H6.75C4.8375 11.25 3.375 12.7125 3.375 14.625V24.75C3.375 26.2125 4.275 27.45 5.625 27.9" stroke="#ED4F00" stroke-width="1.5" stroke-miterlimit="10" stroke-linecap="round" stroke-linejoin="round"/>
<path d="M14.625 28.125H18H20.25" stroke="#ED4F00" stroke-width="1.5" stroke-miterlimit="10" stroke-linecap="round" stroke-linejoin="round"/>
</svg>
