<svg width="37" height="36" viewBox="0 0 37 36" fill="none" xmlns="http://www.w3.org/2000/svg">
<path d="M23.8585 10.5001C22.2126 10.5001 20.6892 10.7649 19.3433 11.2536L20.0705 4.04024C20.1338 3.42854 19.5953 2.93108 18.9812 3.00784C14.3114 3.59377 10.7003 7.54937 10.7003 12.3417C10.7003 13.9876 10.9651 15.511 11.4538 16.8568L4.24044 16.1297C3.62873 16.0664 3.13128 16.6049 3.20803 17.219C3.79396 21.8888 7.74957 25.4999 12.5419 25.4999C14.1878 25.4999 15.7112 25.235 17.057 24.7464L16.3299 31.9597C16.2684 32.5709 16.8051 33.0689 17.4192 32.9922C22.089 32.4062 25.7001 28.4506 25.7001 23.6583C25.7001 22.0124 25.4352 20.489 24.9466 19.1431L32.16 19.8703C32.7717 19.9318 33.2691 19.3951 33.1924 18.781C32.6064 14.1112 28.6508 10.5001 23.8585 10.5001ZM18.2002 19.875C17.8294 19.875 17.4669 19.765 17.1585 19.559C16.8502 19.353 16.6099 19.0601 16.4679 18.7175C16.326 18.3749 16.2889 17.9979 16.3613 17.6342C16.4336 17.2705 16.6122 16.9364 16.8744 16.6742C17.1366 16.412 17.4707 16.2334 17.8344 16.1611C18.1981 16.0887 18.5751 16.1258 18.9177 16.2677C19.2603 16.4097 19.5532 16.65 19.7592 16.9583C19.9652 17.2667 20.0752 17.6292 20.0752 18C20.0752 18.4973 19.8776 18.9742 19.526 19.3258C19.1744 19.6774 18.6975 19.875 18.2002 19.875Z" fill="#E95322"/>
</svg>
