<svg width="37" height="36" viewBox="0 0 37 36" fill="none" xmlns="http://www.w3.org/2000/svg">
<path d="M26.9375 15.75H22.2125C24.0125 14.5125 25.25 12.4875 25.25 10.125C25.25 6.4125 22.2125 3.375 18.5 3.375C14.7875 3.375 11.75 6.4125 11.75 10.125C11.75 12.4875 12.9875 14.5125 14.7875 15.75H10.0625C9.1625 15.75 8.375 16.5375 8.375 17.4375C8.375 18.3375 9.1625 19.125 10.0625 19.125H26.9375C27.8375 19.125 28.625 18.3375 28.625 17.4375C28.625 16.5375 27.8375 15.75 26.9375 15.75Z" stroke="#ED4F00" stroke-width="1.5" stroke-miterlimit="10" stroke-linecap="round" stroke-linejoin="round"/>
<path d="M20.3004 19.125H16.8129C16.2504 20.5875 15.4629 22.05 14.3379 23.2875C13.2129 24.525 12.6504 26.2125 12.9879 28.0125C13.3254 30.2625 15.1254 32.0625 17.2629 32.5125C20.8629 33.3 24.1254 30.4875 24.1254 27C24.1254 25.65 23.6754 24.4125 22.8879 23.4C21.7629 22.1625 20.8629 20.7 20.3004 19.125Z" stroke="#ED4F00" stroke-width="1.5" stroke-miterlimit="10" stroke-linecap="round" stroke-linejoin="round"/>
<path d="M18.5 13.5C20.364 13.5 21.875 11.989 21.875 10.125C21.875 8.26104 20.364 6.75 18.5 6.75C16.636 6.75 15.125 8.26104 15.125 10.125C15.125 11.989 16.636 13.5 18.5 13.5Z" stroke="#ED4F00" stroke-width="1.5" stroke-miterlimit="10" stroke-linecap="round" stroke-linejoin="round"/>
</svg>
