<svg width="37" height="36" viewBox="0 0 37 36" fill="none" xmlns="http://www.w3.org/2000/svg">
<path d="M25.837 10.5005H10.8348C9.59825 10.5003 8.38088 10.8059 7.29103 11.39C6.20118 11.9741 5.27267 12.8186 4.58817 13.8484C3.90366 14.8782 3.48439 16.0612 3.3677 17.2922C3.25101 18.5232 3.44051 19.7639 3.91932 20.904C4.39814 22.044 5.15142 23.048 6.1121 23.8265C7.07278 24.605 8.21105 25.1339 9.42557 25.366C10.6401 25.5982 11.8932 25.5265 13.0733 25.1572C14.2533 24.788 15.3238 24.1326 16.1894 23.2496H20.4791C21.3445 24.1325 22.4149 24.7878 23.5948 25.1571C24.7747 25.5264 26.0277 25.5982 27.2421 25.3662C28.4565 25.1342 29.5947 24.6055 30.5554 23.8273C31.5161 23.049 32.2695 22.0453 32.7485 20.9055C33.2275 19.7657 33.4173 18.5251 33.301 17.2942C33.1846 16.0634 32.7657 14.8803 32.0817 13.8505C31.3976 12.8206 30.4695 11.9758 29.38 11.3914C28.2905 10.8069 27.0733 10.5009 25.837 10.5005ZM14.9595 18.5624C14.9595 18.7116 14.9002 18.8547 14.7947 18.9601C14.6892 19.0656 14.5462 19.1249 14.397 19.1249H11.9597V21.5622C11.9597 21.7114 11.9004 21.8544 11.7949 21.9599C11.6895 22.0654 11.5464 22.1247 11.3972 22.1247H10.2723C10.1231 22.1247 9.98007 22.0654 9.87459 21.9599C9.7691 21.8544 9.70985 21.7114 9.70985 21.5622V19.1249H7.27252C7.12335 19.1249 6.98028 19.0656 6.8748 18.9601C6.76932 18.8547 6.71006 18.7116 6.71006 18.5624V17.4375C6.71006 17.2883 6.76932 17.1453 6.8748 17.0398C6.98028 16.9343 7.12335 16.875 7.27252 16.875H9.70985V14.4377C9.70985 14.2885 9.7691 14.1455 9.87459 14.04C9.98007 13.9345 10.1231 13.8752 10.2723 13.8752H11.3972C11.5464 13.8752 11.6895 13.9345 11.7949 14.04C11.9004 14.1455 11.9597 14.2885 11.9597 14.4377V16.875H14.397C14.5462 16.875 14.6892 16.9343 14.7947 17.0398C14.9002 17.1453 14.9595 17.2883 14.9595 17.4375V18.5624ZM25.0837 22.1247C24.7129 22.1247 24.3504 22.0147 24.0421 21.8087C23.7338 21.6027 23.4935 21.3099 23.3516 20.9673C23.2097 20.6247 23.1726 20.2477 23.2449 19.884C23.3172 19.5203 23.4958 19.1863 23.758 18.9241C24.0202 18.6619 24.3543 18.4833 24.718 18.411C25.0817 18.3386 25.4586 18.3757 25.8012 18.5176C26.1438 18.6595 26.4366 18.8999 26.6426 19.2082C26.8487 19.5165 26.9586 19.879 26.9586 20.2498C26.9586 20.747 26.7611 21.2239 26.4095 21.5755C26.0579 21.9271 25.581 22.1247 25.0837 22.1247ZM28.0835 17.625C27.7127 17.625 27.3502 17.515 27.0419 17.309C26.7336 17.103 26.4933 16.8102 26.3514 16.4676C26.2095 16.125 26.1723 15.748 26.2447 15.3843C26.317 15.0207 26.4956 14.6866 26.7578 14.4244C27.02 14.1622 27.3541 13.9836 27.7178 13.9113C28.0815 13.8389 28.4584 13.8761 28.801 14.018C29.1436 14.1599 29.4364 14.4002 29.6424 14.7085C29.8484 15.0168 29.9584 15.3793 29.9584 15.7501C29.9584 16.2474 29.7609 16.7242 29.4093 17.0758C29.0577 17.4275 28.5808 17.625 28.0835 17.625Z" fill="#E95322"/>
</svg>
