<svg width="37" height="36" viewBox="0 0 37 36" fill="none" xmlns="http://www.w3.org/2000/svg">
<path d="M3.875 26.3252C7.5875 30.1502 12.7625 32.6252 18.5 32.6252C24.2375 32.6252 29.4125 30.2627 33.125 26.3252" stroke="#ED4F00" stroke-width="1.5" stroke-miterlimit="10" stroke-linecap="round" stroke-linejoin="round"/>
<path d="M30.875 28.1248L27.6125 19.7998C26.825 17.9998 27.275 15.9748 28.625 14.6248V17.9998L33.125 19.1248L32.3375 12.3748C32.225 11.0248 31.1 10.1248 29.75 10.1248C29.075 10.1248 28.4 10.3498 27.95 10.9123L25.25 13.4998H16.25C16.25 13.4998 15.4625 11.0248 14.7875 9.1123C14.225 7.5373 13.2125 6.2998 11.8625 5.3998H11.75C9.6125 4.1623 7.025 4.1623 5 5.3998L2.75 6.7498L3.875 15.7498H6.125L8.375 11.2498C9.8375 15.6373 9.6125 20.3623 7.7 24.5248L6.125 28.1248" stroke="#ED4F00" stroke-width="1.5" stroke-miterlimit="10" stroke-linecap="round" stroke-linejoin="round"/>
<path d="M9.05078 30.2625C10.4008 26.4375 14.1133 23.625 18.5008 23.625C22.8883 23.625 26.6008 26.4375 27.9508 30.2625" stroke="#ED4F00" stroke-width="1.5" stroke-miterlimit="10" stroke-linecap="round" stroke-linejoin="round"/>
<path d="M19.625 18C17.7125 18 16.25 16.5375 16.25 14.625V13.5H23V14.625C23 16.5375 21.5375 18 19.625 18Z" stroke="#ED4F00" stroke-width="1.5" stroke-miterlimit="10" stroke-linecap="round" stroke-linejoin="round"/>
<path d="M19.625 18V23.625" stroke="#ED4F00" stroke-width="1.5" stroke-miterlimit="10" stroke-linecap="round" stroke-linejoin="round"/>
</svg>
