<svg width="37" height="36" viewBox="0 0 37 36" fill="none" xmlns="http://www.w3.org/2000/svg">
<path d="M32.5171 16.5H31.7671V13.5C31.7671 12.6717 31.0954 12 30.2671 12H26.8171L22.918 7.12594C22.6369 6.77465 22.2804 6.49107 21.8748 6.29617C21.4693 6.10128 21.0251 6.00006 20.5752 6H15.2671C14.4388 6 13.7671 6.67172 13.7671 7.5V12H5.51709C5.10272 12 4.76709 12.3356 4.76709 12.75V16.5H4.01709C3.60271 16.5 3.26709 16.8356 3.26709 17.25V18.75C3.26709 19.1644 3.60271 19.5 4.01709 19.5H4.80084C6.17006 17.6883 8.32115 16.5 10.7671 16.5C13.213 16.5 15.3641 17.6883 16.7333 19.5H19.8013C21.1705 17.6883 23.3216 16.5 25.7676 16.5C28.2135 16.5 30.3646 17.6883 31.7338 19.5H32.5171C32.9315 19.5 33.2671 19.1644 33.2671 18.75V17.25C33.2671 16.8356 32.9315 16.5 32.5171 16.5ZM16.7671 12V9H20.5752L22.9752 12H16.7671ZM31.0171 22.5H30.7733C30.6702 22.1564 30.5357 21.8306 30.3679 21.5208L30.5399 21.3487C30.8329 21.0558 30.8329 20.5809 30.5399 20.288L29.4791 19.2272C29.1862 18.9342 28.7113 18.9342 28.4183 19.2272L28.2463 19.3992C27.9346 19.231 27.6065 19.0952 27.2671 18.9937V18.75C27.2671 18.3356 26.9315 18 26.5171 18H25.0171C24.6027 18 24.2671 18.3356 24.2671 18.75V18.9937C23.9235 19.0969 23.5977 19.2314 23.2879 19.3992L23.1158 19.2272C22.8229 18.9342 22.348 18.9342 22.0551 19.2272L20.9943 20.288C20.7013 20.5809 20.7013 21.0558 20.9943 21.3487L21.1663 21.5208C20.9981 21.8325 20.8623 22.1606 20.7608 22.5H20.5171C20.1027 22.5 19.7671 22.8356 19.7671 23.25V24.75C19.7671 25.1644 20.1027 25.5 20.5171 25.5H20.7608C20.864 25.8436 20.9985 26.1694 21.1663 26.4792L20.9943 26.6512C20.7013 26.9442 20.7013 27.4191 20.9943 27.712L22.0551 28.7728C22.348 29.0658 22.8229 29.0658 23.1158 28.7728L23.2879 28.6008C23.5977 28.7681 23.924 28.9031 24.2676 29.0062V29.25C24.2676 29.6644 24.6032 30 25.0176 30H26.5176C26.9319 30 27.2676 29.6644 27.2676 29.25V29.0062C27.6112 28.9031 27.9369 28.7686 28.2472 28.6008L28.4193 28.7728C28.7122 29.0658 29.1871 29.0658 29.4801 28.7728L30.5408 27.712C30.8338 27.4191 30.8338 26.9442 30.5408 26.6512L30.3688 26.4792C30.537 26.1675 30.6729 25.8394 30.7743 25.5H31.018C31.4324 25.5 31.768 25.1644 31.768 24.75V23.25C31.7671 22.8356 31.4315 22.5 31.0171 22.5ZM25.7671 26.25C24.5244 26.25 23.5171 25.2426 23.5171 24C23.5171 22.7573 24.5244 21.75 25.7671 21.75C27.0097 21.75 28.0171 22.7573 28.0171 24C28.0171 25.2426 27.0097 26.25 25.7671 26.25ZM16.0171 22.5H15.7733C15.6702 22.1564 15.5357 21.8306 15.3679 21.5208L15.5399 21.3487C15.8329 21.0558 15.8329 20.5809 15.5399 20.288L14.4791 19.2272C14.1862 18.9342 13.7113 18.9342 13.4183 19.2272L13.2463 19.3992C12.9346 19.231 12.6065 19.0952 12.2671 18.9937V18.75C12.2671 18.3356 11.9315 18 11.5171 18H10.0171C9.60272 18 9.26709 18.3356 9.26709 18.75V18.9937C8.9235 19.0969 8.59772 19.2314 8.28787 19.3992L8.11584 19.2272C7.82287 18.9342 7.34803 18.9342 7.05506 19.2272L5.99428 20.2875C5.70131 20.5805 5.70131 21.0553 5.99428 21.3483L6.16631 21.5203C5.99813 21.832 5.86227 22.1602 5.76084 22.4995H5.51709C5.10272 22.4995 4.76709 22.8351 4.76709 23.2495V24.7495C4.76709 25.1639 5.10272 25.4995 5.51709 25.4995H5.76084C5.86397 25.8431 5.9985 26.1689 6.16631 26.4787L5.99428 26.6508C5.70131 26.9437 5.70131 27.4186 5.99428 27.7116L7.05506 28.7723C7.34803 29.0653 7.82287 29.0653 8.11584 28.7723L8.28787 28.6003C8.59772 28.7676 8.92396 28.9026 9.26756 29.0058V29.2495C9.26756 29.6639 9.60318 29.9995 10.0176 29.9995H11.5176C11.9319 29.9995 12.2676 29.6639 12.2676 29.2495V29.0058C12.6112 28.9026 12.9369 28.7681 13.2472 28.6003L13.4193 28.7723C13.7122 29.0653 14.1871 29.0653 14.4801 28.7723L15.5408 27.7116C15.8338 27.4186 15.8338 26.9437 15.5408 26.6508L15.3688 26.4787C15.537 26.167 15.6729 25.8389 15.7743 25.4995H16.018C16.4324 25.4995 16.768 25.1639 16.768 24.7495V23.2495C16.7671 22.8356 16.4315 22.5 16.0171 22.5ZM10.7671 26.25C9.52443 26.25 8.51709 25.2426 8.51709 24C8.51709 22.7573 9.52443 21.75 10.7671 21.75C12.0097 21.75 13.0171 22.7573 13.0171 24C13.0171 25.2426 12.0097 26.25 10.7671 26.25Z" fill="#E95322"/>
</svg>
