<svg width="37" height="36" viewBox="0 0 37 36" fill="none" xmlns="http://www.w3.org/2000/svg">
<path d="M33.7998 18C33.7998 26.2843 27.0841 33 18.7998 33C10.5155 33 3.7998 26.2843 3.7998 18C3.7998 9.71571 10.5155 3 18.7998 3C27.0841 3 33.7998 9.71571 33.7998 18ZM30.8966 18L30.8964 17.9829L29.3199 19.3584L25.5289 15.8201L26.5241 10.718L28.5989 10.9038C27.0935 8.83428 24.9696 7.26938 22.5076 6.47994L23.3333 8.41174L18.7998 10.9234L14.2664 8.4118L15.092 6.48C12.6345 7.26799 10.5086 8.83101 9.00075 10.9039L11.0914 10.718L12.0707 15.8201L8.27972 19.3584L6.70327 17.9829L6.70309 18C6.70309 20.6017 7.51944 23.0777 9.03003 25.1366L9.496 23.0863L14.6455 23.7182L16.8411 28.4254L15.0325 29.5012C17.4641 30.2949 20.1307 30.2964 22.5671 29.5012L20.7585 28.4254L22.9541 23.7182L28.1036 23.0863L28.5696 25.1366C30.0802 23.0777 30.8966 20.6017 30.8966 18ZM15.8904 22.2079L14.0823 16.685L18.7998 13.2661L23.5173 16.685L21.7257 22.2079H15.8904Z" fill="#E95322"/>
</svg>
