<svg width="37" height="36" viewBox="0 0 37 36" fill="none" xmlns="http://www.w3.org/2000/svg">
<path d="M8.375 32.625C10.239 32.625 11.75 31.114 11.75 29.25C11.75 27.386 10.239 25.875 8.375 25.875C6.51104 25.875 5 27.386 5 29.25C5 31.114 6.51104 32.625 8.375 32.625Z" stroke="#ED4F00" stroke-width="1.5" stroke-miterlimit="10" stroke-linecap="round" stroke-linejoin="round"/>
<path d="M29.75 32.625C31.614 32.625 33.125 31.114 33.125 29.25C33.125 27.386 31.614 25.875 29.75 25.875C27.886 25.875 26.375 27.386 26.375 29.25C26.375 31.114 27.886 32.625 29.75 32.625Z" stroke="#ED4F00" stroke-width="1.5" stroke-miterlimit="10" stroke-linecap="round" stroke-linejoin="round"/>
<path d="M16.8125 9C17.7445 9 18.5 8.24448 18.5 7.3125C18.5 6.38052 17.7445 5.625 16.8125 5.625C15.8805 5.625 15.125 6.38052 15.125 7.3125C15.125 8.24448 15.8805 9 16.8125 9Z" stroke="#ED4F00" stroke-width="1.5" stroke-miterlimit="10" stroke-linecap="round" stroke-linejoin="round"/>
<path d="M16.25 9H5.5625C4.6625 9 3.875 8.2125 3.875 7.3125C3.875 6.4125 4.6625 5.625 5.5625 5.625H16.25" stroke="#ED4F00" stroke-width="1.5" stroke-miterlimit="10" stroke-linecap="round" stroke-linejoin="round"/>
<path d="M26.375 29.25H11.75" stroke="#ED4F00" stroke-width="1.5" stroke-miterlimit="10" stroke-linecap="round" stroke-linejoin="round"/>
<path d="M8.375 25.875V9H11.75V22.5C11.75 24.4125 13.325 25.875 15.125 25.875H22.55C23.45 25.875 24.2375 25.425 24.8 24.75C25.925 23.4 27.6125 22.5 29.6375 22.5C30.875 22.5 32 22.8375 33.0125 23.4" stroke="#ED4F00" stroke-width="1.5" stroke-miterlimit="10" stroke-linecap="round" stroke-linejoin="round"/>
</svg>
