<svg width="22" height="21" viewBox="0 0 22 21" fill="none" xmlns="http://www.w3.org/2000/svg">
<path d="M0 1.75C0 1.05964 0.559644 0.5 1.25 0.5H20.75C21.4404 0.5 22 1.05964 22 1.75C22 2.44036 21.4404 3 20.75 3H1.25C0.559644 3 0 2.44036 0 1.75ZM0 10.5C0 9.80964 0.559644 9.25 1.25 9.25H20.75C21.4404 9.25 22 9.80964 22 10.5C22 11.1904 21.4404 11.75 20.75 11.75H1.25C0.559644 11.75 0 11.1904 0 10.5ZM0 19.25C0 18.5596 0.559644 18 1.25 18H20.75C21.4404 18 22 18.5596 22 19.25C22 19.9404 21.4404 20.5 20.75 20.5H1.25C0.559644 20.5 0 19.9404 0 19.25Z" fill="#247783"/>
</svg>
