<svg width="20" height="21" viewBox="0 0 20 21" fill="none" xmlns="http://www.w3.org/2000/svg">
<g clip-path="url(#clip0_1167_682)">
<path opacity="0.5" d="M16.0388 5.3999V15.4549C16.0388 15.8807 15.6938 16.2257 15.2679 16.2257H1.31462C0.937117 16.2257 0.628784 15.9174 0.628784 15.5399V5.3999H16.0388Z" fill="#E95322" fill-opacity="0.1"/>
<path opacity="0.5" d="M15.8337 5.14667H0.83374L3.07957 1.10083C3.21707 0.849167 3.49291 0.6875 3.78457 0.6875H12.8821C13.1737 0.6875 13.4496 0.85 13.5871 1.10083L15.8337 5.14667Z" fill="#E95322" fill-opacity="0.1"/>
<path d="M19.375 20.0001C19.03 20.0001 18.75 19.7201 18.75 19.3751V17.7842C18.75 15.4976 16.9275 13.6367 14.6875 13.6367H13.125C12.78 13.6367 12.5 13.3567 12.5 13.0117C12.5 12.6667 12.78 12.3867 13.125 12.3867H14.6875C17.6175 12.3867 20 14.8084 20 17.7842V19.3751C20 19.7201 19.72 20.0001 19.375 20.0001Z" fill="#EB7835"/>
<path d="M15.8592 16.0225C15.7133 16.0225 15.5667 15.9717 15.4483 15.8684L12.7142 13.4825C12.5783 13.3642 12.5 13.1925 12.5 13.0117C12.5 12.8309 12.5783 12.6592 12.7142 12.5409L15.4483 10.1542C15.7092 9.92752 16.1033 9.95419 16.3308 10.2142C16.5583 10.4742 16.5308 10.8692 16.2708 11.0959L14.0758 13.0117L16.2708 14.9267C16.5308 15.1534 16.5583 15.5484 16.3308 15.8084C16.2067 15.95 16.0333 16.0225 15.8592 16.0225Z" fill="#EB7835"/>
<path d="M12.7083 16.6666H1.31333C0.589167 16.6666 0 16.0774 0 15.3533V5.20825C0 4.86325 0.28 4.58325 0.625 4.58325H16.0417C16.3867 4.58325 16.6667 4.86325 16.6667 5.20825V8.54159C16.6667 8.88659 16.3867 9.16659 16.0417 9.16659C15.6967 9.16659 15.4167 8.88659 15.4167 8.54159V5.83325H1.25V15.3533C1.25 15.3883 1.27833 15.4166 1.31333 15.4166H12.7083C13.0533 15.4166 13.3333 15.6966 13.3333 16.0416C13.3333 16.3866 13.0533 16.6666 12.7083 16.6666Z" fill="#EB7835"/>
<path d="M16.0423 5.83333C15.8223 5.83333 15.609 5.7175 15.4957 5.51167L13.1882 1.3575C13.1507 1.29083 13.0815 1.25 13.0057 1.25H3.66066C3.58482 1.25 3.51566 1.29083 3.47816 1.3575L1.17066 5.51167C1.00399 5.8125 0.622325 5.92167 0.320658 5.755C0.0189914 5.5875 -0.089342 5.20667 0.078158 4.905L2.38566 0.75C2.64316 0.2875 3.13149 0 3.66066 0H13.0065C13.5357 0 14.024 0.2875 14.2807 0.75L16.5882 4.90417C16.7557 5.20583 16.6473 5.58667 16.3457 5.75417C16.249 5.80833 16.1448 5.83333 16.0423 5.83333Z" fill="#EB7835"/>
<path d="M8.33374 5.83333C7.98874 5.83333 7.70874 5.55333 7.70874 5.20833V0.625C7.70874 0.28 7.98874 0 8.33374 0C8.67874 0 8.95874 0.28 8.95874 0.625V5.20833C8.95874 5.55333 8.67874 5.83333 8.33374 5.83333Z" fill="#EB7835"/>
</g>
<defs>
<clipPath id="clip0_1167_682">
<rect width="20" height="20" fill="white"/>
</clipPath>
</defs>
</svg>
