<svg width="15" height="14" viewBox="0 0 15 14" fill="none" xmlns="http://www.w3.org/2000/svg">
<path d="M7.5 0C12.5355 0 15 2.6999 15 6.1999C15 9.5998 12.4283 12.2997 7.5 12.2997H7.17825C6.75 12.2997 6.42825 12.2003 6 12.2003C5.35725 12.9003 4.17825 13.8999 2.25 14C2.4645 12.8002 3.2145 11.5003 2.25 10.7002C0.75 9.5998 0 8.0003 0 6.0998C0 2.6999 2.4645 0 7.5 0ZM7.5 1.0003C3.5355 1.0003 1.07175 2.9001 1.07175 5.9997C1.07175 7.5999 1.7145 8.9999 3 9.9001C3.9645 10.6001 3.9645 11.5997 3.75 12.6C4.2855 12.3998 4.82175 12.0001 5.35725 11.5003L5.7855 10.9998L6.42825 11.0999C6.75 11.2 6.85725 11.2 7.2855 11.2H7.5C11.5717 11.2 13.9282 9.2001 13.9282 6.0998C14.0355 2.9001 11.5725 1.001 7.5 1.001V1.0003ZM4.5 7C3.9645 7 3.42825 6.6003 3.42825 5.9997C3.42825 5.4999 3.85725 5.0001 4.5 5.0001C5.0355 5.0001 5.57175 5.3998 5.57175 5.9997C5.57175 6.601 5.14275 7 4.5 7ZM7.82175 7C7.2855 7 6.75 6.6003 6.75 5.9997C6.75 5.4999 7.17825 5.0001 7.82175 5.0001C8.35725 5.0001 8.89275 5.3998 8.89275 5.9997C8.89275 6.6003 8.35725 7 7.82175 7ZM10.9283 7C10.3927 7 9.85725 6.6003 9.85725 5.9997C9.85725 5.4999 10.2855 5.0001 10.9283 5.0001C11.5717 5.0001 12 5.3998 12 5.9997C12 6.601 11.4645 7 10.9283 7Z" fill="white"/>
</svg>
