<svg width="16" height="17" viewBox="0 0 16 17" fill="none" xmlns="http://www.w3.org/2000/svg">
<path d="M4.30325 13.1667L1.33325 15.5V3.16667C1.33325 2.98986 1.40349 2.82029 1.52851 2.69526C1.65354 2.57024 1.82311 2.5 1.99992 2.5H13.9999C14.1767 2.5 14.3463 2.57024 14.4713 2.69526C14.5963 2.82029 14.6666 2.98986 14.6666 3.16667V12.5C14.6666 12.6768 14.5963 12.8464 14.4713 12.9714C14.3463 13.0964 14.1767 13.1667 13.9999 13.1667H4.30325ZM3.84192 11.8333H13.3333V3.83333H2.66659V12.7567L3.84192 11.8333ZM7.33325 7.16667H8.66659V8.5H7.33325V7.16667ZM4.66659 7.16667H5.99992V8.5H4.66659V7.16667ZM9.99992 7.16667H11.3333V8.5H9.99992V7.16667Z" fill="#165D67"/>
</svg>
