<svg width="54" height="54" viewBox="0 0 54 54" fill="none" xmlns="http://www.w3.org/2000/svg">
<path d="M35.8382 20.6101C35.3274 20.0991 34.721 19.6938 34.0535 19.4172C33.3861 19.1406 32.6707 18.9983 31.9482 18.9983C31.2257 18.9983 30.5103 19.1406 29.8428 19.4172C29.1754 19.6938 28.5689 20.0991 28.0582 20.6101L26.9982 21.6701L25.9382 20.6101C24.9065 19.5784 23.5072 18.9988 22.0482 18.9988C20.5891 18.9988 19.1899 19.5784 18.1582 20.6101C17.1265 21.6418 16.5469 23.0411 16.5469 24.5001C16.5469 25.9591 17.1265 27.3584 18.1582 28.3901L19.2182 29.4501L26.9982 37.2301L34.7782 29.4501L35.8382 28.3901C36.3492 27.8794 36.7545 27.2729 37.0311 26.6055C37.3076 25.938 37.45 25.2226 37.45 24.5001C37.45 23.7776 37.3076 23.0622 37.0311 22.3948C36.7545 21.7273 36.3492 21.1209 35.8382 20.6101V20.6101Z" stroke="#333333" stroke-width="2" stroke-linecap="round" stroke-linejoin="round"/>
<rect x="0.5" y="0.5" width="53" height="53" stroke="#E95322" stroke-opacity="0.3"/>
</svg>
