<svg width="54" height="54" viewBox="0 0 54 54" fill="none" xmlns="http://www.w3.org/2000/svg">
<path d="M32 23C33.6569 23 35 21.6569 35 20C35 18.3431 33.6569 17 32 17C30.3431 17 29 18.3431 29 20C29 21.6569 30.3431 23 32 23Z" stroke="#333333" stroke-width="2" stroke-linecap="round" stroke-linejoin="round"/>
<path d="M20 30C21.6569 30 23 28.6569 23 27C23 25.3431 21.6569 24 20 24C18.3431 24 17 25.3431 17 27C17 28.6569 18.3431 30 20 30Z" stroke="#333333" stroke-width="2" stroke-linecap="round" stroke-linejoin="round"/>
<path d="M32 37C33.6569 37 35 35.6569 35 34C35 32.3431 33.6569 31 32 31C30.3431 31 29 32.3431 29 34C29 35.6569 30.3431 37 32 37Z" stroke="#333333" stroke-width="2" stroke-linecap="round" stroke-linejoin="round"/>
<path d="M22.5898 28.51L29.4198 32.49" stroke="#333333" stroke-width="2" stroke-linecap="round" stroke-linejoin="round"/>
<path d="M29.4098 21.51L22.5898 25.49" stroke="#333333" stroke-width="2" stroke-linecap="round" stroke-linejoin="round"/>
<rect x="0.5" y="0.5" width="53" height="53" stroke="#E95322" stroke-opacity="0.3"/>
</svg>
