<svg width="25" height="24" viewBox="0 0 25 24" fill="none" xmlns="http://www.w3.org/2000/svg">
<path d="M9.9 16H3.5C2.96957 16 2.46086 15.7893 2.08579 15.4142C1.71071 15.0391 1.5 14.5304 1.5 14V11.896C1.49973 11.6346 1.55069 11.3758 1.65 11.134L4.746 3.62C4.82128 3.43675 4.9493 3.28 5.1138 3.16961C5.27831 3.05923 5.47189 3.0002 5.67 3H22.5C22.7652 3 23.0196 3.10536 23.2071 3.29289C23.3946 3.48043 23.5 3.73478 23.5 4V14C23.5 14.2652 23.3946 14.5196 23.2071 14.7071C23.0196 14.8946 22.7652 15 22.5 15H19.018C18.8579 15 18.7001 15.0384 18.558 15.112C18.4158 15.1856 18.2934 15.2922 18.201 15.423L12.748 23.149C12.6791 23.2467 12.5774 23.3164 12.4615 23.3456C12.3455 23.3748 12.223 23.3614 12.116 23.308L10.302 22.4C9.7915 22.1448 9.38367 21.7227 9.14627 21.2037C8.90887 20.6847 8.8562 20.1001 8.997 19.547L9.9 16ZM17.5 13.412V5H6.34L3.5 11.896V14H9.9C10.2046 14 10.5052 14.0697 10.7788 14.2035C11.0524 14.3374 11.2918 14.532 11.4787 14.7725C11.6657 15.013 11.7952 15.293 11.8575 15.5912C11.9197 15.8893 11.9131 16.1978 11.838 16.493L10.935 20.041C10.9067 20.1517 10.9172 20.2687 10.9647 20.3726C11.0122 20.4765 11.0938 20.561 11.196 20.612L11.857 20.942L16.567 14.27C16.817 13.916 17.137 13.626 17.5 13.412ZM19.5 13H21.5V5H19.5V13Z" fill="#F48484"/>
</svg>
