<svg width="14" height="12" viewBox="0 0 14 12" fill="none" xmlns="http://www.w3.org/2000/svg">
<path d="M1.16732 6.83336H11.0507L8.02565 10.4667C7.95561 10.551 7.90286 10.6482 7.8704 10.7528C7.83794 10.8575 7.82641 10.9675 7.83647 11.0766C7.85678 11.297 7.9638 11.5002 8.13398 11.6417C8.30416 11.7831 8.52356 11.8512 8.74392 11.8309C8.96428 11.8106 9.16753 11.7035 9.30898 11.5334L13.4756 6.53336C13.5037 6.49359 13.5288 6.45181 13.5507 6.40836C13.5507 6.36669 13.5923 6.34169 13.609 6.30002C13.6468 6.20447 13.6665 6.10276 13.6673 6.00002C13.6665 5.89728 13.6468 5.79557 13.609 5.70002C13.609 5.65836 13.5673 5.63336 13.5507 5.59169C13.5288 5.54824 13.5037 5.50646 13.4756 5.46669L9.30898 0.466689C9.23063 0.37262 9.13251 0.29697 9.02161 0.245119C8.91071 0.193268 8.78974 0.16649 8.66732 0.166689C8.47261 0.166308 8.28391 0.234121 8.13398 0.358355C8.0496 0.428313 7.97985 0.51423 7.92872 0.611186C7.8776 0.708142 7.8461 0.814232 7.83604 0.923379C7.82597 1.03253 7.83754 1.14259 7.87008 1.24726C7.90262 1.35193 7.95548 1.44915 8.02565 1.53336L11.0507 5.16669H1.16732C0.946304 5.16669 0.734342 5.25449 0.578062 5.41077C0.421782 5.56705 0.333984 5.77901 0.333984 6.00002C0.333984 6.22104 0.421782 6.433 0.578062 6.58928C0.734342 6.74556 0.946304 6.83336 1.16732 6.83336Z" fill="#ED4F00"/>
</svg>
