<svg width="16" height="17" viewBox="0 0 16 17" fill="none" xmlns="http://www.w3.org/2000/svg">
<g clip-path="url(#clip0_763_94)">
<path d="M8 14.4334L11.3 11.1334C11.9526 10.4808 12.397 9.64926 12.577 8.74403C12.7571 7.8388 12.6646 6.90051 12.3114 6.04781C11.9582 5.19512 11.36 4.46632 10.5926 3.95356C9.82519 3.4408 8.92296 3.16711 8 3.16711C7.07704 3.16711 6.17481 3.4408 5.40739 3.95356C4.63997 4.46632 4.04183 5.19512 3.68861 6.04781C3.33539 6.90051 3.24294 7.8388 3.42297 8.74403C3.603 9.64926 4.04741 10.4808 4.7 11.1334L8 14.4334ZM8 16.3188L3.75734 12.0761C2.91823 11.237 2.34679 10.1679 2.11529 9.00401C1.88378 7.84013 2.0026 6.63373 2.45673 5.53738C2.91086 4.44103 3.6799 3.50396 4.66659 2.84467C5.65328 2.18539 6.81332 1.8335 8 1.8335C9.18669 1.8335 10.3467 2.18539 11.3334 2.84467C12.3201 3.50396 13.0891 4.44103 13.5433 5.53738C13.9974 6.63373 14.1162 7.84013 13.8847 9.00401C13.6532 10.1679 13.0818 11.237 12.2427 12.0761L8 16.3188ZM8 9.16678C8.35362 9.16678 8.69276 9.0263 8.94281 8.77625C9.19286 8.5262 9.33334 8.18707 9.33334 7.83344C9.33334 7.47982 9.19286 7.14068 8.94281 6.89064C8.69276 6.64059 8.35362 6.50011 8 6.50011C7.64638 6.50011 7.30724 6.64059 7.05719 6.89064C6.80715 7.14068 6.66667 7.47982 6.66667 7.83344C6.66667 8.18707 6.80715 8.5262 7.05719 8.77625C7.30724 9.0263 7.64638 9.16678 8 9.16678ZM8 10.5001C7.29276 10.5001 6.61448 10.2192 6.11438 9.71906C5.61429 9.21897 5.33334 8.54069 5.33334 7.83344C5.33334 7.1262 5.61429 6.44792 6.11438 5.94783C6.61448 5.44773 7.29276 5.16678 8 5.16678C8.70725 5.16678 9.38552 5.44773 9.88562 5.94783C10.3857 6.44792 10.6667 7.1262 10.6667 7.83344C10.6667 8.54069 10.3857 9.21897 9.88562 9.71906C9.38552 10.2192 8.70725 10.5001 8 10.5001Z" fill="white"/>
</g>
<defs>
<clipPath id="clip0_763_94">
<rect width="16" height="16" fill="white" transform="translate(0 0.5)"/>
</clipPath>
</defs>
</svg>
