<svg width="18" height="16" viewBox="0 0 18 16" fill="none" xmlns="http://www.w3.org/2000/svg">
<path d="M4.41913 2.78419H1.47058C1.21066 2.78419 1 2.57339 1 2.3136C1 2.05381 1.21066 1.84302 1.47058 1.84302H4.41913C4.67906 1.84302 4.88971 2.05381 4.88971 2.3136C4.88971 2.57339 4.67906 2.78419 4.41913 2.78419Z" fill="white" stroke="white" stroke-width="0.3"/>
<path d="M6.10327 4.46902C4.91468 4.46902 3.94775 3.50209 3.94775 2.31361C3.94775 1.12489 4.91468 0.157959 6.10327 0.157959C7.29185 0.157959 8.25878 1.12489 8.25878 2.31361C8.25878 3.50213 7.29185 4.46902 6.10327 4.46902ZM6.10327 1.09916C5.43366 1.09916 4.88892 1.64401 4.88892 2.31361C4.88892 2.98322 5.43366 3.52782 6.10327 3.52782C6.77287 3.52782 7.31761 2.98322 7.31761 2.31361C7.31761 1.64401 6.77287 1.09916 6.10327 1.09916Z" fill="white" stroke="white" stroke-width="0.3"/>
<path d="M16.5296 2.78419H9.49622C9.23629 2.78419 9.02563 2.57339 9.02563 2.3136C9.02563 2.05381 9.23629 1.84302 9.49622 1.84302H16.5295C16.7895 1.84302 17.0001 2.05381 17.0001 2.3136C17.0001 2.57339 16.7895 2.78419 16.5296 2.78419Z" fill="white" stroke="white" stroke-width="0.3"/>
<path d="M12.4221 10.1555C11.2334 10.1555 10.2665 9.18861 10.2665 8.00013C10.2665 6.81165 11.2335 5.84473 12.4221 5.84473C13.6106 5.84473 14.5776 6.81165 14.5776 8.00013C14.5776 9.18861 13.6107 10.1555 12.4221 10.1555ZM12.4221 6.78593C11.7524 6.78593 11.2077 7.33053 11.2077 8.00013C11.2077 8.66973 11.7524 9.21433 12.4221 9.21433C13.0917 9.21433 13.6364 8.66973 13.6364 8.00013C13.6364 7.33053 13.0917 6.78593 12.4221 6.78593Z" fill="white" stroke="white" stroke-width="0.3"/>
<path d="M9.03052 8.47072H1.47058C1.21066 8.47072 1 8.25992 1 8.00013C1 7.74034 1.21066 7.52954 1.47058 7.52954H9.03052C9.29045 7.52954 9.50111 7.74034 9.50111 8.00013C9.50111 8.25992 9.29045 8.47072 9.03052 8.47072Z" fill="white" stroke="white" stroke-width="0.3"/>
<path d="M16.5296 8.47072H14.1075C13.8476 8.47072 13.6369 8.25992 13.6369 8.00013C13.6369 7.74034 13.8476 7.52954 14.1075 7.52954H16.5296C16.7895 7.52954 17.0001 7.74034 17.0001 8.00013C17.0001 8.25992 16.7895 8.47072 16.5296 8.47072Z" fill="white" stroke="white" stroke-width="0.3"/>
<path d="M5.57769 15.8423C4.38911 15.8423 3.42218 14.8754 3.42218 13.6867C3.42218 12.4982 4.38911 11.5312 5.57769 11.5312C6.76627 11.5312 7.7332 12.4982 7.7332 13.6867C7.7332 14.8754 6.76627 15.8423 5.57769 15.8423ZM5.57769 12.4725C4.90809 12.4725 4.36335 13.0171 4.36335 13.6867C4.36335 14.3563 4.90809 14.9011 5.57769 14.9011C6.24729 14.9011 6.79203 14.3563 6.79203 13.6867C6.79203 13.0171 6.24729 12.4725 5.57769 12.4725Z" fill="white" stroke="white" stroke-width="0.3"/>
<path d="M16.5289 14.1572H8.96894C8.70901 14.1572 8.49835 13.9464 8.49835 13.6866C8.49835 13.4269 8.70901 13.2161 8.96894 13.2161H16.5289C16.7888 13.2161 16.9995 13.4269 16.9995 13.6866C16.9995 13.9464 16.7888 14.1572 16.5289 14.1572Z" fill="white" stroke="white" stroke-width="0.3"/>
<path d="M3.89265 14.1573H1.47058C1.21066 14.1573 1 13.9465 1 13.6866C1 13.4269 1.21066 13.2161 1.47058 13.2161H3.89265C4.15258 13.2161 4.36323 13.4269 4.36323 13.6866C4.36323 13.9465 4.15258 14.1573 3.89265 14.1573Z" fill="white" stroke="white" stroke-width="0.3"/>
</svg>
