<svg width="16" height="17" viewBox="0 0 16 17" fill="none" xmlns="http://www.w3.org/2000/svg">
<path d="M1.99992 7.16667H1.33325V3.16867C1.33325 2.79933 1.63659 2.5 1.99459 2.5H14.0053C14.0928 2.49982 14.1795 2.51704 14.2603 2.55067C14.3411 2.5843 14.4144 2.63366 14.4759 2.69589C14.5374 2.75812 14.586 2.83196 14.6187 2.91313C14.6515 2.99429 14.6677 3.08116 14.6666 3.16867V7.16667H13.9999V13.834C14.0002 13.9212 13.9833 14.0076 13.9501 14.0883C13.917 14.1689 13.8683 14.2423 13.8069 14.3041C13.7454 14.366 13.6723 14.4151 13.5919 14.4487C13.5114 14.4823 13.4251 14.4997 13.3379 14.5H2.66192C2.57472 14.4997 2.48843 14.4823 2.40797 14.4487C2.32751 14.4151 2.25446 14.366 2.19298 14.3041C2.13151 14.2423 2.08282 14.1689 2.0497 14.0883C2.01657 14.0076 1.99966 13.9212 1.99992 13.834V7.16667ZM12.6666 7.16667H3.33325V13.1667H12.6666V7.16667ZM2.66659 3.83333V5.83333H13.3333V3.83333H2.66659ZM5.99992 8.5H9.99992V9.83333H5.99992V8.5Z" fill="#165D67"/>
</svg>
