<svg width="17" height="17" viewBox="0 0 17 17" fill="none" xmlns="http://www.w3.org/2000/svg">
<path fill-rule="evenodd" clip-rule="evenodd" d="M8.5 0.789062C8.22386 0.789062 8 1.01292 8 1.28906V7.78906H1.5C1.22386 7.78906 1 8.01292 1 8.28906C1 8.56521 1.22386 8.78906 1.5 8.78906H8V15.2891C8 15.5652 8.22386 15.7891 8.5 15.7891C8.77614 15.7891 9 15.5652 9 15.2891V8.78906H15.5C15.7761 8.78906 16 8.56521 16 8.28906C16 8.01292 15.7761 7.78906 15.5 7.78906H9V1.28906C9 1.01292 8.77614 0.789062 8.5 0.789062Z" fill="#333333" stroke="#333333"/>
</svg>
