<svg width="28" height="28" viewBox="0 0 28 28" fill="none" xmlns="http://www.w3.org/2000/svg">
<path d="M25.3475 22.5067L20.8043 17.9635C20.5993 17.7584 20.3213 17.6445 20.0297 17.6445H19.2869C20.5446 16.0359 21.2919 14.0127 21.2919 11.8117C21.2919 6.57592 17.0495 2.3335 11.8137 2.3335C6.57787 2.3335 2.33545 6.57592 2.33545 11.8117C2.33545 17.0476 6.57787 21.29 11.8137 21.29C14.0146 21.29 16.0379 20.5427 17.6465 19.285V20.0277C17.6465 20.3194 17.7604 20.5973 17.9654 20.8024L22.5086 25.3456C22.937 25.7739 23.6296 25.7739 24.0534 25.3456L25.343 24.056C25.7713 23.6276 25.7713 22.935 25.3475 22.5067ZM11.8137 17.6445C8.592 17.6445 5.98093 15.038 5.98093 11.8117C5.98093 8.59005 8.58744 5.97897 11.8137 5.97897C15.0354 5.97897 17.6465 8.58549 17.6465 11.8117C17.6465 15.0334 15.0399 17.6445 11.8137 17.6445Z" fill="#247783"/>
</svg>
