<svg width="24" height="25" viewBox="0 0 24 25" fill="none" xmlns="http://www.w3.org/2000/svg">
<path d="M9 21.5C9.55228 21.5 10 21.0523 10 20.5C10 19.9477 9.55228 19.5 9 19.5C8.44772 19.5 8 19.9477 8 20.5C8 21.0523 8.44772 21.5 9 21.5Z" stroke="#247783" stroke-width="2" stroke-linecap="round" stroke-linejoin="round"/>
<path d="M19 21.5C19.5523 21.5 20 21.0523 20 20.5C20 19.9477 19.5523 19.5 19 19.5C18.4477 19.5 18 19.9477 18 20.5C18 21.0523 18.4477 21.5 19 21.5Z" stroke="#247783" stroke-width="2" stroke-linecap="round" stroke-linejoin="round"/>
<path d="M2 2.5H5.63636L8.07273 14.997C8.15586 15.4267 8.38355 15.8127 8.71595 16.0874C9.04835 16.3621 9.46427 16.5081 9.89091 16.4997H18.7273C19.1539 16.5081 19.5698 16.3621 19.9022 16.0874C20.2346 15.8127 20.4623 15.4267 20.5455 14.997L22 7.16655H6.54545" stroke="#247783" stroke-width="2" stroke-linecap="round" stroke-linejoin="round"/>
</svg>
