<svg width="19" height="27" viewBox="0 0 19 27" fill="none" xmlns="http://www.w3.org/2000/svg">
<path d="M4.69713 23.9807L5.19827 25.2659C5.49352 26.0284 6.1384 26.504 6.79882 26.504C6.93868 26.504 7.07853 26.4843 7.2145 26.4411L7.23781 26.4332C7.91765 26.217 8.32556 25.5096 8.28671 24.7039C8.6985 24.7353 9.12972 24.755 9.58036 24.755C10.066 24.755 10.5244 24.7353 10.9634 24.6999C10.9206 25.5056 11.3285 26.217 12.0123 26.4332L12.0356 26.4411C12.1715 26.4843 12.3114 26.504 12.4512 26.504C13.1117 26.504 13.7565 26.0284 14.0518 25.2659L14.5607 23.9571C16.9227 23.1042 17.8978 21.8583 17.9599 21.7797C18.0221 21.6972 18.0143 21.5792 17.9444 21.5046L16.5303 20.0582C16.8217 19.9914 17.082 19.8067 17.249 19.5315C17.4937 19.1346 17.4899 18.6354 17.2412 18.2345C16.7673 17.4642 16.2467 16.9807 15.8272 16.5877C15.4853 16.2694 15.2172 16.0178 15.089 15.727C14.7783 15.0234 14.6967 14.312 14.6151 13.6242C14.5646 13.1723 14.5141 12.7478 14.4053 12.3312C14.0984 11.1599 13.3758 10.535 12.323 10.5153C12.3192 10.5153 12.3153 10.5153 12.3075 10.5153H12.2648L11.01 10.5193V9.66639C11.4023 9.52097 11.7597 9.32052 12.0705 9.07684C12.2764 9.41485 12.7348 10.0162 13.5429 10.2913C14.4442 10.5979 15.5008 10.4053 16.6818 9.72142C16.7634 9.67425 16.8022 9.57599 16.7789 9.4856C16.7556 9.3952 16.674 9.33231 16.5808 9.33231C16.5769 9.33231 16.5769 9.33231 16.573 9.33231C15.462 9.33231 15.1862 8.24754 14.8326 6.47889C14.3432 4.03815 13.7332 1 9.4405 1C5.14777 1 4.54174 4.03815 4.04837 6.47889C3.69485 8.24754 3.41902 9.33231 2.30796 9.33231C2.30408 9.33231 2.30408 9.33231 2.30019 9.33231H2.16422C2.07876 9.33231 2.00106 9.38734 1.96998 9.46987C1.9389 9.55241 1.96221 9.64281 2.02826 9.70176C2.52163 10.1341 3.39183 10.5193 4.32419 10.5193C4.46404 10.5193 4.6039 10.5114 4.74375 10.4918C5.60618 10.3817 6.36372 9.914 6.95033 9.13973C7.25723 9.36769 7.60298 9.55241 7.98369 9.68997V10.5232L6.86098 10.5193H6.82602C6.82213 10.5193 6.81825 10.5193 6.81048 10.5193C5.7538 10.5389 5.03511 11.1678 4.72821 12.3351C4.61943 12.7517 4.56893 13.1762 4.51843 13.6282C4.44073 14.316 4.35915 15.0274 4.04448 15.7309C3.91628 16.0217 3.64434 16.2733 3.30636 16.5916C2.8868 16.9807 2.36624 17.4681 1.89229 18.2385C1.64366 18.6393 1.63977 19.1385 1.89229 19.5473C2.05156 19.8067 2.30408 19.9875 2.58767 20.0582L1.06482 21.5006C0.983237 21.5792 0.979353 21.705 1.04928 21.7915C1.11921 21.8701 2.24581 23.1317 4.69713 23.9807ZM2.90234 19.6691C2.63817 19.6887 2.38566 19.559 2.23804 19.3114C2.07876 19.0481 2.07876 18.7219 2.24581 18.4546C2.69256 17.7314 3.17039 17.2873 3.58996 16.8943C3.95124 16.5563 4.26203 16.2654 4.42519 15.8999C4.76317 15.1374 4.84864 14.3946 4.93022 13.6714C4.98072 13.2351 5.02734 12.8225 5.12835 12.4373C5.36921 11.5176 5.85869 11.0302 6.62012 10.9438L5.73438 16.4502C5.68776 16.8746 5.49741 17.2755 5.19827 17.5703L3.17428 19.4922L2.90234 19.6691ZM8.40325 10.6726V9.81181C8.74512 9.89828 9.10252 9.94151 9.47547 9.94151C9.86395 9.94151 10.2408 9.89042 10.5982 9.80002V10.6686C10.3729 11.0813 9.95718 11.3211 9.49101 11.325C9.02871 11.3211 8.62469 11.0774 8.40325 10.6726ZM4.69325 10.0712C3.98621 10.1616 3.27528 9.96903 2.76249 9.6939C3.88132 9.40699 4.16103 8.01958 4.45627 6.56143C4.94187 4.15213 5.48963 1.41662 9.44439 1.41662C13.3991 1.41662 13.9469 4.1482 14.4325 6.56143C14.7083 7.94097 14.9725 9.25371 15.9476 9.63495C15.0929 10.0241 14.3354 10.1105 13.6866 9.89435C12.9407 9.64281 12.5328 9.04147 12.3891 8.78207C12.999 8.11784 13.3292 7.27282 13.3292 6.38849C13.3292 6.29416 13.2671 6.21163 13.1777 6.18804C9.40942 5.11113 8.55476 2.94552 8.54699 2.92193C8.51591 2.83547 8.43045 2.78044 8.33721 2.7883C8.24398 2.79616 8.17017 2.86298 8.15074 2.95731C8.14686 2.97696 7.73506 4.9775 5.68776 6.40028C5.6256 6.44352 5.59064 6.51819 5.59841 6.59287V6.60859C5.59841 6.61252 5.59841 6.61645 5.59841 6.62038C5.71884 7.39466 6.12286 8.2554 6.64731 8.85674C6.11898 9.5642 5.46244 9.97296 4.69325 10.0712ZM7.05134 8.68381C6.5735 8.18072 6.1889 7.43789 6.04128 6.74222C6.04128 6.71471 6.0374 6.6872 6.0374 6.65968C7.51363 5.5867 8.15074 4.26218 8.39937 3.55079C8.86555 4.28969 10.0815 5.70854 12.9019 6.54963C12.863 7.31212 12.5406 8.03923 11.9812 8.60127C11.9734 8.60913 11.9695 8.61699 11.9618 8.62878C11.3363 9.17903 10.4506 9.5249 9.47158 9.5249C8.53145 9.52097 7.67291 9.20261 7.05134 8.68381ZM14.1994 13.6714C14.281 14.3907 14.3665 15.1374 14.7044 15.8999C14.8676 16.2694 15.1784 16.5602 15.5397 16.8943C15.9592 17.2873 16.4371 17.7314 16.8838 18.4546C17.047 18.7219 17.0509 19.0481 16.8838 19.3232C16.7401 19.559 16.4915 19.6887 16.2234 19.6691L16.0059 19.5315L13.9352 17.4131C13.6478 17.1183 13.4652 16.7292 13.4147 16.3087L12.5095 10.9477C13.2671 11.0341 13.7565 11.5215 13.9974 12.4412C14.1023 12.8264 14.1489 13.2351 14.1994 13.6714ZM5.48187 17.8769C5.85092 17.5113 6.0879 17.024 6.14229 16.513L7.03968 10.9359H8.07693C8.37995 11.439 8.89663 11.7377 9.48324 11.7455C9.48712 11.7455 9.49101 11.7455 9.49878 11.7455C10.0893 11.7455 10.6098 11.4468 10.9167 10.9398L12.0938 10.9359L13.0107 16.3676C13.0689 16.8707 13.2943 17.3463 13.6439 17.7079L17.5093 21.6578C17.214 21.9723 16.3555 22.7701 14.7705 23.4147L14.8093 23.3125C15.023 22.7623 15.0152 22.1649 14.7821 21.6736C14.5996 21.2845 14.2888 21.0015 13.9119 20.8836L13.6089 20.7853C13.2321 20.6635 12.8203 20.7185 12.4474 20.9307C11.9812 21.198 11.6315 21.6854 11.4995 22.2592L11.0255 24.2676C10.571 24.3069 10.0893 24.3265 9.58036 24.3265C9.10641 24.3265 8.65577 24.3069 8.22455 24.2715L7.7506 22.2553C7.61463 21.6775 7.26889 21.1941 6.80271 20.9268C6.42976 20.7146 6.01797 20.6635 5.64114 20.7814L5.33813 20.8796C4.9613 21.0015 4.65051 21.2805 4.46793 21.6696C4.23484 22.1609 4.22707 22.7583 4.44073 23.3086L4.49124 23.4422C2.81688 22.7976 1.84567 21.9762 1.5038 21.65L5.48187 17.8769ZM12.156 26.0362L12.1327 26.0284C11.5616 25.8476 11.2469 25.1283 11.4179 24.3934L11.8996 22.3535C12.0084 21.8976 12.2881 21.5006 12.6533 21.2923C12.9252 21.1351 13.2204 21.0997 13.4885 21.1823L13.7915 21.2805C14.0596 21.367 14.2771 21.5674 14.4131 21.8544C14.5918 22.2356 14.5996 22.723 14.4286 23.1592L13.6672 25.1087C13.3914 25.8122 12.731 26.221 12.156 26.0362ZM7.11349 26.0284L7.09018 26.0362C6.51911 26.217 5.85481 25.8122 5.58287 25.1087L4.82145 23.1592C4.65051 22.723 4.65828 22.2356 4.83698 21.8544C4.97295 21.5714 5.1905 21.367 5.45856 21.2805L5.76157 21.1823C5.85481 21.1548 5.94804 21.139 6.04517 21.139C6.22775 21.139 6.41811 21.1901 6.59293 21.2923C6.95421 21.5006 7.23781 21.8976 7.34658 22.3535L7.8283 24.3934C7.99923 25.1323 7.68456 25.8476 7.11349 26.0284Z" fill="#E95322" stroke="#E95322" stroke-width="0.3"/>
<path d="M7.04248 15.8648C7.04248 16.1084 7.17068 16.3403 7.396 16.5054C7.59801 16.6548 7.86606 16.7373 8.14577 16.7373C7.99038 17.0439 7.94764 17.3819 8.03311 17.6648C8.09527 17.8732 8.21958 18.0304 8.3944 18.1247C8.49929 18.1797 8.61584 18.2072 8.73238 18.2072C9.06647 18.2072 9.41999 17.9832 9.64531 17.602C9.6492 17.6059 9.65308 17.6138 9.65697 17.6177C9.89783 17.995 10.2591 18.2072 10.5971 18.2072C10.737 18.2072 10.8729 18.1719 10.9933 18.0933C11.1565 17.9871 11.2692 17.8181 11.3158 17.6059C11.3741 17.3347 11.3158 17.0321 11.1643 16.753C11.7587 16.7373 12.221 16.3796 12.2326 15.908C12.2404 15.6643 12.1161 15.4285 11.8946 15.2595C11.6965 15.1101 11.4362 15.0197 11.1604 15.0079C11.3197 14.7328 11.3779 14.4262 11.3274 14.159C11.2847 13.9467 11.1759 13.7738 11.0128 13.6677C10.6088 13.3965 10.0221 13.5969 9.67251 14.1236C9.66862 14.1315 9.66474 14.1354 9.66085 14.1433C9.36561 13.6127 8.82173 13.3651 8.40217 13.5852C8.22735 13.6756 8.10304 13.8328 8.037 14.0411C7.94764 14.328 7.98649 14.6739 8.14577 14.9883L8.14966 14.9922C7.52031 15.004 7.04248 15.3813 7.04248 15.8648ZM8.16131 15.4128C8.35167 15.4128 8.53037 15.4639 8.66245 15.5543C8.67022 15.5582 8.68188 15.566 8.68965 15.57L8.69353 15.5739C8.66634 15.6643 8.64691 15.7586 8.64691 15.8569C8.64303 15.963 8.65857 16.0652 8.68965 16.1674C8.55756 16.2617 8.37109 16.3246 8.16519 16.3246C7.96707 16.3246 7.77671 16.2656 7.64074 16.1674C7.5747 16.1163 7.45816 16.0141 7.45816 15.8687C7.45427 15.6211 7.77671 15.4128 8.16131 15.4128ZM8.41771 14.1668C8.44102 14.0961 8.48375 14.0057 8.58087 13.9546C8.6236 13.931 8.67022 13.9232 8.72073 13.9232C8.92274 13.9232 9.16748 14.104 9.30733 14.3791C9.39668 14.5559 9.43553 14.7485 9.41222 14.9097C9.21798 14.9568 9.04317 15.059 8.91108 15.2045C8.75957 15.1337 8.60807 14.9922 8.50706 14.7957C8.3944 14.5835 8.36332 14.3476 8.41771 14.1668ZM10.0027 14.3594C10.162 14.1158 10.4029 13.9703 10.5971 13.9703C10.6631 13.9703 10.7214 13.9861 10.7719 14.0214C10.8613 14.0804 10.8962 14.1786 10.9079 14.2494C10.9428 14.4341 10.8885 14.666 10.7564 14.8664C10.6476 15.0315 10.5 15.1534 10.3562 15.2123C10.3524 15.2084 10.3485 15.2045 10.3446 15.1966C10.2086 15.0512 10.0338 14.9529 9.84344 14.9136C9.8279 14.7367 9.88617 14.5363 10.0027 14.3594ZM10.7641 17.7435C10.5582 17.8771 10.2086 17.7159 9.99883 17.3937C9.90948 17.2522 9.85509 17.0989 9.84732 16.9535C9.84732 16.9181 9.84732 16.8827 9.84732 16.8513C10.0493 16.8041 10.228 16.698 10.3601 16.5486C10.5039 16.6115 10.6515 16.7334 10.7603 16.9024C10.8885 17.1028 10.9428 17.3347 10.904 17.5194C10.8885 17.5902 10.8496 17.6845 10.7641 17.7435ZM9.3151 17.3426C9.1364 17.6845 8.79842 17.8732 8.58476 17.7592C8.49152 17.7081 8.44879 17.6177 8.42548 17.5469C8.37109 17.3661 8.40605 17.1303 8.51483 16.9181C8.58476 16.7884 8.67411 16.6783 8.77511 16.6037C8.81396 16.584 8.85281 16.5604 8.88777 16.5368C8.89554 16.5486 8.90331 16.5565 8.91497 16.5683C9.05482 16.7176 9.23352 16.8159 9.42776 16.8552C9.4433 17.0046 9.40057 17.1814 9.3151 17.3426ZM9.05871 15.8648C9.06647 15.5464 9.33064 15.2949 9.64531 15.3027C9.79682 15.3066 9.94056 15.3695 10.0455 15.4796C10.1503 15.5896 10.2047 15.7351 10.2008 15.8883C10.1931 16.2067 9.93279 16.4582 9.61424 16.4504C9.46273 16.4464 9.31899 16.3836 9.2141 16.2735C9.10921 16.1635 9.05482 16.018 9.05871 15.8648ZM11.0905 16.3364C10.8923 16.3325 10.7059 16.2696 10.5738 16.1713C10.601 16.0849 10.6165 15.9984 10.6165 15.9041C10.6204 15.794 10.6049 15.684 10.5699 15.5818C10.6981 15.4874 10.8807 15.4285 11.0866 15.4285C11.0944 15.4285 11.1021 15.4285 11.1138 15.4285C11.3119 15.4324 11.5023 15.4953 11.6343 15.5975C11.7004 15.6486 11.813 15.7547 11.8092 15.9001C11.8014 16.1477 11.4751 16.3443 11.0905 16.3364Z" fill="#E95322" stroke="#E95322" stroke-width="0.1"/>
<path d="M8.336 6.75422C8.39427 6.85248 8.51858 6.88785 8.61959 6.83283C8.72059 6.77387 8.75167 6.6481 8.69729 6.54591C8.56132 6.30223 8.2583 6.14502 7.9242 6.14502C7.59011 6.14502 7.28321 6.30223 7.14724 6.54984C7.09285 6.65203 7.12781 6.7778 7.22493 6.83283C7.25601 6.85248 7.29098 6.86034 7.32594 6.86034C7.39975 6.86034 7.46968 6.82104 7.50464 6.75422C7.55514 6.66382 7.70665 6.56164 7.92032 6.56164C8.13398 6.56557 8.28549 6.66382 8.336 6.75422Z" fill="#E95322" stroke="#E95322" stroke-width="0.1"/>
<path d="M10.1075 6.83676C10.1386 6.85641 10.1735 6.86427 10.2085 6.86427C10.2823 6.86427 10.3522 6.82497 10.3872 6.75815C10.4377 6.66775 10.5892 6.56557 10.8029 6.56557C11.0127 6.56557 11.1642 6.66382 11.2186 6.75422C11.2768 6.85641 11.4011 6.88785 11.5021 6.83283C11.5993 6.77387 11.6342 6.6481 11.5798 6.54591C11.4439 6.30223 11.1409 6.14502 10.8068 6.14502C10.4727 6.14502 10.1658 6.30223 10.0298 6.54984C9.97152 6.65203 10.0065 6.78173 10.1075 6.83676Z" fill="#E95322" stroke="#E95322" stroke-width="0.1"/>
<path d="M11.1719 8.36954C11.2651 8.29879 11.2807 8.16909 11.2146 8.07869C11.1447 7.98437 11.0165 7.96864 10.9271 8.03546C9.47811 9.13203 8.18447 8.08655 8.12619 8.04332C8.03684 7.96864 7.90864 7.98437 7.83483 8.07083C7.76102 8.16123 7.77267 8.29093 7.86203 8.36561C7.87368 8.37347 8.57683 8.95123 9.55192 8.95123C10.0414 8.9473 10.6008 8.80188 11.1719 8.36954Z" fill="#E95322" stroke="#E95322" stroke-width="0.1"/>
</svg>
