<svg width="48" height="48" viewBox="0 0 48 48" fill="none" xmlns="http://www.w3.org/2000/svg">
<circle cx="24" cy="24" r="24" fill="white"/>
<path d="M34.7984 16.5817C34.7984 14.7848 33.2129 13.1993 31.4161 13.1993H17.7808C15.9839 13.1993 14.3984 14.7848 14.3984 16.5817V30.2169C14.3984 32.0138 15.9839 33.5993 17.7808 33.5993H24.6513V25.8832H22.1145V22.5008H24.6513V21.1267C24.6513 18.8013 26.3425 16.7931 28.4565 16.7931H31.2047V20.1754H28.4565C28.1394 20.1754 27.8223 20.4925 27.8223 21.1267V22.5008H31.2047V25.8832H27.8223V33.5993H31.4161C33.2129 33.5993 34.7984 32.0138 34.7984 30.2169V16.5817Z" fill="#333333"/>
</svg>
