<svg width="48" height="48" viewBox="0 0 48 48" fill="none" xmlns="http://www.w3.org/2000/svg">
<circle opacity="0.1" cx="24" cy="24" r="24" fill="#247783"/>
<path d="M34.7987 16.5816C34.7987 14.7847 33.2132 13.1992 31.4163 13.1992H17.7811C15.9842 13.1992 14.3987 14.7847 14.3987 16.5816V30.2168C14.3987 32.0137 15.9842 33.5992 17.7811 33.5992H24.6515V25.8832H22.1147V22.5008H24.6515V21.1267C24.6515 18.8013 26.3427 16.793 28.4567 16.793H31.2049V20.1754H28.4567C28.1396 20.1754 27.8225 20.4925 27.8225 21.1267V22.5008H31.2049V25.8832H27.8225V33.5992H31.4163C33.2132 33.5992 34.7987 32.0137 34.7987 30.2168V16.5816Z" fill="#247783"/>
</svg>
