<svg width="48" height="48" viewBox="0 0 48 48" fill="none" xmlns="http://www.w3.org/2000/svg">
<circle opacity="0.1" cx="24" cy="24" r="24" fill="#247783"/>
<path d="M31.8956 14.3984H17.3018C15.6541 14.3984 14.3987 15.6538 14.3987 17.3015V31.8954C14.3987 33.543 15.6541 34.7984 17.3018 34.7984H31.8956C33.5433 34.7984 34.7987 33.543 34.7987 31.8954V17.3015C34.7987 15.6538 33.5433 14.3984 31.8956 14.3984ZM24.5987 30.7184C27.9725 30.7184 30.7187 28.0507 30.7187 24.8338C30.7187 24.2846 30.6402 23.6569 30.4833 23.1861H32.2094V31.503C32.2094 31.8954 31.8956 32.2877 31.4248 32.2877H17.7725C17.3802 32.2877 16.9879 31.9738 16.9879 31.503V23.1077H18.7925C18.6356 23.6569 18.5571 24.2061 18.5571 24.7554C18.4787 28.0507 21.2248 30.7184 24.5987 30.7184ZM24.5987 28.3646C22.4018 28.3646 20.6756 26.6384 20.6756 24.52C20.6756 22.4015 22.4018 20.6754 24.5987 20.6754C26.7956 20.6754 28.5218 22.4015 28.5218 24.52C28.5218 26.7169 26.7956 28.3646 24.5987 28.3646ZM32.131 19.9692C32.131 20.44 31.7387 20.8323 31.2679 20.8323H29.071C28.6002 20.8323 28.2079 20.44 28.2079 19.9692V17.8507C28.2079 17.38 28.6002 16.9877 29.071 16.9877H31.2679C31.7387 16.9877 32.131 17.38 32.131 17.8507V19.9692Z" fill="#247783"/>
</svg>
