<svg width="48" height="48" viewBox="0 0 48 48" fill="none" xmlns="http://www.w3.org/2000/svg">
<circle cx="24" cy="24" r="24" fill="white"/>
<path d="M31.8954 14.3986H17.3015C15.6538 14.3986 14.3984 15.654 14.3984 17.3017V31.8955C14.3984 33.5432 15.6538 34.7986 17.3015 34.7986H31.8954C33.543 34.7986 34.7984 33.5432 34.7984 31.8955V17.3017C34.7984 15.654 33.543 14.3986 31.8954 14.3986ZM24.5984 30.7186C27.9723 30.7186 30.7184 28.0509 30.7184 24.834C30.7184 24.2848 30.64 23.6571 30.483 23.1863H32.2092V31.5032C32.2092 31.8955 31.8954 32.2878 31.4246 32.2878H17.7723C17.38 32.2878 16.9877 31.974 16.9877 31.5032V23.1078H18.7923C18.6354 23.6571 18.5569 24.2063 18.5569 24.7555C18.4784 28.0509 21.2246 30.7186 24.5984 30.7186ZM24.5984 28.3648C22.4015 28.3648 20.6754 26.6386 20.6754 24.5202C20.6754 22.4017 22.4015 20.6755 24.5984 20.6755C26.7954 20.6755 28.5215 22.4017 28.5215 24.5202C28.5215 26.7171 26.7954 28.3648 24.5984 28.3648ZM32.1307 19.9694C32.1307 20.4402 31.7384 20.8325 31.2677 20.8325H29.0707C28.6 20.8325 28.2077 20.4402 28.2077 19.9694V17.8509C28.2077 17.3802 28.6 16.9878 29.0707 16.9878H31.2677C31.7384 16.9878 32.1307 17.3802 32.1307 17.8509V19.9694Z" fill="#333333"/>
</svg>
