<svg width="288" height="72" viewBox="0 0 288 72" fill="none" xmlns="http://www.w3.org/2000/svg">
<g clip-path="url(#clip0_12_7943)">
<path d="M72.0267 53.9668L53.9866 36.0002L36.0134 17.9668L17.9733 36.0002L0 53.9668L17.9733 72.0002L36.0134 53.9668L53.9866 72.0002L72.0267 53.9668Z" fill="#66C3D0"/>
<path d="M54.0179 -0.00245365L36.0176 17.9912L54.0179 35.9849L72.0182 17.9912L54.0179 -0.00245365Z" fill="#BDE2EA"/>
<path d="M36.0616 26.9705L27.0391 35.9922L36.0641 45.0114L45.0867 35.9896L36.0616 26.9705Z" fill="#BDE2EA"/>
<path d="M59.7995 47.0874H47.5723V59.31H59.7995V47.0874Z" fill="#BDE2EA"/>
<path d="M60.8683 17.9667C60.8683 21.7738 57.7948 24.9129 53.9195 24.9129C50.111 24.9129 46.9707 21.8405 46.9707 17.9667C46.9707 14.1597 50.0442 11.0205 53.9195 11.0205C57.7279 11.0873 60.8683 14.1597 60.8683 17.9667Z" fill="#66C3D0"/>
<path d="M161.959 36L145.322 19.3692L125.946 0L107.973 17.9666L127.349 37.3358L143.986 53.9666L161.959 36Z" fill="#EB7835"/>
<path d="M125.983 35.9975L107.982 53.9912L125.983 71.9849L143.983 53.9912L125.983 35.9975Z" fill="#F7AA47"/>
<path d="M132.896 17.9667C132.896 21.7738 129.822 24.9129 125.947 24.9129C122.138 24.9129 118.998 21.8405 118.998 17.9667C118.998 14.1597 122.072 11.0205 125.947 11.0205C129.822 11.0873 132.896 14.1597 132.896 17.9667Z" fill="#F7AA47"/>
<path d="M150.868 35.933C150.868 39.7401 147.795 42.8792 143.919 42.8792C140.111 42.8792 136.971 39.8069 136.971 35.933C136.971 32.126 140.044 28.9868 143.919 28.9868C147.795 28.9868 150.868 32.0592 150.868 35.933Z" fill="#F7AA47"/>
<path d="M133.23 53.9667C133.23 57.7737 130.156 60.9129 126.281 60.9129C122.472 60.9129 119.332 57.8405 119.332 53.9667C119.332 50.1597 122.406 47.0205 126.281 47.0205C130.156 47.0873 133.23 50.1597 133.23 53.9667Z" fill="#EB7835"/>
<path d="M89.9948 -0.0083101L53.9941 35.979L89.9948 71.9663L125.996 35.979L89.9948 -0.0083101Z" fill="#E95322"/>
<path d="M89.8658 13.3579C89.064 14.1594 88.73 14.3598 88.5963 15.6288C88.4627 16.8978 89.6654 19.7698 89.8658 20.2373C90.0663 20.7048 90.2667 21.1056 90.534 21.5731L90.4671 21.6399C89.9994 21.4395 89.5985 21.1724 89.1308 20.972C88.6631 20.7716 85.7901 19.5694 84.5206 19.703C83.2511 19.8366 83.0507 20.1705 82.2489 20.972C82.2489 20.972 82.3157 21.4395 82.7834 21.9071C83.2511 22.3746 83.7188 22.5082 83.7188 22.5082C84.0529 22.1742 84.2533 21.9739 84.5206 21.9739C85.456 21.8403 86.7923 22.3746 86.7923 22.3746L91.4026 24.2447L95.6119 28.4525C95.6119 28.4525 96.2133 28.2522 96.6141 27.7846C97.0819 27.3171 97.2823 26.7828 97.2823 26.7828L93.0729 22.575L91.2021 17.9664C91.2021 17.9664 90.6676 16.6306 90.8012 15.6956C90.868 15.4284 91.0017 15.228 91.3357 14.8941C91.3357 14.8941 91.2021 14.4266 90.7344 13.959C90.3335 13.4247 89.8658 13.3579 89.8658 13.3579ZM101.558 26.7828L108.708 33.9293C109.175 34.3969 109.576 34.9312 109.844 35.4655C110.111 35.9998 110.178 36.5342 110.178 37.1353C110.178 37.6696 110.044 38.2039 109.844 38.7382C109.576 39.2726 109.242 39.7401 108.774 40.2076C108.24 40.742 107.705 41.1427 107.104 41.3431C106.57 41.5434 105.968 41.677 105.434 41.6102C104.899 41.5434 104.365 41.4099 103.83 41.1427C103.296 40.8755 102.828 40.5416 102.36 40.074L95.2778 32.9943C95.2778 32.9943 95.4115 32.46 95.8792 31.9924C96.4137 31.4581 96.9482 31.3245 96.9482 31.3245L104.031 38.4043C104.498 38.8718 104.966 39.0722 105.567 39.139C106.102 39.2058 106.636 39.0054 107.171 38.4711C107.572 38.0703 107.772 37.6028 107.772 37.0685C107.772 36.5342 107.572 35.9998 107.104 35.5991L99.8881 28.3857C99.8881 28.3857 99.8881 27.985 100.556 27.3171C101.158 26.7828 101.558 26.7828 101.558 26.7828ZM102.895 45.5509C102.026 45.8848 101.358 45.7512 100.69 45.5509C100.155 45.4173 96.6141 43.6139 96.6141 43.6139L95.2778 44.9497L99.554 49.2243C99.554 49.2243 99.3536 49.7586 98.8859 50.2262C98.4181 50.6937 97.8836 50.8941 97.8836 50.8941L87.6609 40.6752L90.9349 37.4024C91.3357 37.0017 91.8035 36.6677 92.2712 36.4006C92.7389 36.1334 93.2734 35.9998 93.7411 35.9998C94.2756 35.9998 94.7433 36.0666 95.2778 36.3338C95.8124 36.5342 96.2801 36.9349 96.8146 37.4024C97.4827 38.0703 97.8836 38.7382 98.0841 39.4729C98.2845 40.2076 98.2177 41.0091 97.9504 41.7438C97.9504 41.7438 100.489 42.8792 100.89 43.0796C101.291 43.28 101.425 43.28 101.959 43.3468C102.494 43.4136 103.095 42.7457 103.095 42.7457C103.095 42.7457 103.63 42.946 104.031 43.3468C104.432 43.7475 104.565 44.215 104.565 44.215C104.565 44.215 103.763 45.2169 102.895 45.5509ZM95.211 39.0054C94.7433 38.5379 94.2756 38.2707 93.7411 38.3375C93.2734 38.3375 92.8057 38.6047 92.338 39.0722L90.868 40.5416L93.8079 43.4804L95.2778 42.011C95.7455 41.5434 95.946 41.0759 95.946 40.6084C95.946 40.074 95.6787 39.5397 95.211 39.0054ZM92.672 56.1705C92.672 56.1705 92.1375 55.9702 91.5362 55.369C90.9349 54.7679 90.7344 54.2336 90.7344 54.2336C90.7344 54.2336 90.868 53.7661 91.4694 53.165C92.0707 52.5638 92.5384 52.4303 92.5384 52.4303C92.5384 52.4303 93.0729 52.6306 93.6743 53.2317C94.2756 53.8329 94.4761 54.3672 94.4761 54.3672C94.4761 54.3672 94.3424 54.8347 93.7411 55.369C93.2066 55.9034 92.672 56.1705 92.672 56.1705ZM88.73 29.0536C89.1977 29.5212 89.5985 30.0555 89.799 30.5898C90.0663 31.1241 90.1331 31.6585 90.1331 32.2596C90.1331 32.7939 89.9994 33.395 89.799 33.8625C89.5317 34.3969 89.1977 34.8644 88.73 35.3319C88.1954 35.8663 87.5941 36.267 86.9928 36.5342C86.3914 36.7345 85.8569 36.8681 85.2556 36.8013C84.721 36.7345 84.1865 36.601 83.652 36.267C83.1175 35.9998 82.6498 35.5991 82.1821 35.1316L78.3068 31.2577C77.9727 30.9238 77.6386 30.4562 77.3714 29.9887C77.1041 29.5212 76.9705 28.9869 76.9037 28.4525C76.8369 27.9182 76.9037 27.3171 77.1041 26.716C77.3046 26.1149 77.7055 25.5138 78.3068 24.9794C78.8413 24.4451 79.3758 24.0444 79.9772 23.844C80.5785 23.6436 81.113 23.5768 81.7144 23.5768C82.2489 23.6436 82.7834 23.7772 83.3179 24.0444C83.7856 24.3115 84.2533 24.6455 84.6542 24.9794L88.73 29.0536ZM82.917 26.6492C82.7834 26.5156 82.583 26.382 82.3825 26.2484C82.1821 26.1149 81.9148 26.0481 81.6475 25.9813C81.3803 25.9145 81.113 25.9145 80.779 25.9813C80.5117 26.0481 80.1776 26.2484 79.9104 26.5156C79.6431 26.7828 79.4427 27.1167 79.3758 27.3839C79.309 27.651 79.2422 27.985 79.309 28.2522C79.3758 28.5193 79.4426 28.7865 79.5763 28.9869C79.7099 29.1872 79.8435 29.3876 79.9772 29.588L83.9193 33.4618C84.387 33.9293 84.9215 34.2633 85.5228 34.3969C86.0573 34.5305 86.6587 34.2633 87.1932 33.729C87.5941 33.3282 87.7945 32.8607 87.7945 32.3264C87.7945 31.792 87.5941 31.2577 87.1264 30.857L82.917 26.6492ZM73.2957 33.1946L81.9816 41.8774C81.9816 41.8774 81.7144 42.4117 81.2467 42.8792C80.779 43.3468 80.2444 43.6139 80.2444 43.6139L71.5585 34.9312L69.2867 37.2021C69.2867 37.2021 68.819 37.0017 68.3513 36.5342C67.8836 36.0666 67.75 35.6659 67.75 35.6659L73.9638 29.4544C73.9638 29.4544 74.4315 29.5212 74.8992 29.9887C75.3669 30.4562 75.5006 30.9906 75.5006 30.9906L73.2957 33.1946Z" fill="#FEFEFE"/>
<path d="M25.1882 53.8329C25.1882 57.64 22.1147 60.7791 18.2394 60.7791C14.4309 60.7791 11.3574 57.7068 11.3574 53.8329C11.3574 50.0259 14.4309 46.8867 18.3062 46.8867C22.1147 46.9535 25.1882 50.0259 25.1882 53.8329Z" fill="#BDE2EA"/>
<path d="M161.989 -0.00977501L143.988 17.9839L161.989 35.9775L179.989 17.9839L161.989 -0.00977501Z" fill="#F7AA47"/>
<path d="M161.936 9.00677L152.959 17.98L161.936 26.9532L170.912 17.98L161.936 9.00677Z" fill="#EB7835"/>
</g>
<path d="M201.053 14.0332H202.475L205.332 20.5273L208.135 14.0332H209.563V24H208.053V17.7861H208.025L205.934 22.5713H204.676L202.591 17.7861H202.563V24H201.053V14.0332ZM211.956 14.0332H213.467V17.9502H215.777C216.251 17.9502 216.682 18.0254 217.069 18.1758C217.456 18.3262 217.789 18.5358 218.067 18.8047C218.35 19.069 218.566 19.3857 218.717 19.7549C218.867 20.1195 218.942 20.5273 218.942 20.9785C218.942 21.4251 218.865 21.8353 218.71 22.209C218.555 22.5827 218.338 22.904 218.06 23.1729C217.787 23.4372 217.456 23.6423 217.069 23.7881C216.682 23.9294 216.251 24 215.777 24H211.956V14.0332ZM215.688 22.5713C216.231 22.5713 216.652 22.4277 216.953 22.1406C217.258 21.849 217.411 21.4525 217.411 20.9512C217.411 20.4453 217.258 20.0465 216.953 19.7549C216.652 19.4587 216.231 19.3105 215.688 19.3105H213.467V22.5713H215.688ZM220.145 14.0332H221.656V24H220.145V14.0332ZM230.296 24.082C229.863 24.082 229.455 24.0205 229.072 23.8975C228.69 23.7699 228.343 23.5853 228.033 23.3438C227.728 23.0977 227.468 22.7992 227.254 22.4482C227.04 22.0928 226.887 21.6803 226.796 21.2109H228.389C228.53 21.6439 228.76 21.988 229.079 22.2432C229.403 22.4984 229.818 22.626 230.323 22.626C230.884 22.626 231.337 22.487 231.684 22.209C232.035 21.9264 232.21 21.5482 232.21 21.0742C232.21 20.5684 232.06 20.1924 231.759 19.9463C231.463 19.7002 231.025 19.5771 230.446 19.5771H229.175V18.2305H230.474C230.98 18.2305 231.369 18.1097 231.643 17.8682C231.921 17.6266 232.06 17.2666 232.06 16.7881C232.06 16.3232 231.905 15.9678 231.595 15.7217C231.285 15.471 230.866 15.3457 230.337 15.3457C229.804 15.3457 229.378 15.4893 229.059 15.7764C228.744 16.0589 228.521 16.4349 228.389 16.9043H226.796C226.978 15.9427 227.389 15.2113 228.027 14.71C228.669 14.2041 229.444 13.9512 230.351 13.9512C230.816 13.9512 231.246 14.015 231.643 14.1426C232.039 14.2656 232.379 14.4434 232.661 14.6758C232.948 14.9082 233.174 15.193 233.338 15.5303C233.502 15.8675 233.584 16.2412 233.584 16.6514C233.584 17.1618 233.463 17.6016 233.222 17.9707C232.985 18.3398 232.648 18.6315 232.21 18.8457C232.698 19.0417 233.074 19.3333 233.338 19.7207C233.602 20.1081 233.735 20.5957 233.735 21.1836C233.735 21.6257 233.648 22.0267 233.475 22.3867C233.306 22.7422 233.067 23.0475 232.757 23.3027C232.447 23.5534 232.083 23.7471 231.663 23.8838C231.244 24.016 230.788 24.082 230.296 24.082ZM235.587 14.0332H237.098V18.2988H241.042V14.0332H242.559V24H241.042V19.6455H237.098V24H235.587V14.0332ZM247.529 14.0332H248.794L252.417 24H250.824L250.051 21.7715H246.271L245.505 24H243.906L247.529 14.0332ZM249.621 20.4316L248.178 16.0771H248.151L246.709 20.4316H249.621ZM253.77 14.0332H260.134V15.4619H255.281V18.2988H259.423V19.6455H255.281V22.5713H260.134V24H253.77V14.0332ZM261.843 14.0332H263.265L266.122 20.5273L268.925 14.0332H270.354V24H268.843V17.7861H268.815L266.724 22.5713H265.466L263.381 17.7861H263.354V24H261.843V14.0332ZM272.657 25.0391L274.086 24V22.5713H272.657V25.0391ZM206.091 37.124C205.799 37.1787 205.414 37.2471 204.936 37.3291C204.462 37.4066 203.979 37.4453 203.486 37.4453C203.158 37.4453 202.837 37.402 202.522 37.3154C202.213 37.2243 201.937 37.0807 201.695 36.8848C201.454 36.6888 201.26 36.4359 201.114 36.126C200.968 35.8115 200.896 35.4333 200.896 34.9912V31.0332H202.42V34.6016C202.42 34.8932 202.461 35.1325 202.543 35.3193C202.63 35.5016 202.743 35.6497 202.885 35.7637C203.026 35.8776 203.186 35.9551 203.363 35.9961C203.546 36.0371 203.742 36.0576 203.951 36.0576C204.115 36.0576 204.293 36.0485 204.484 36.0303C204.676 36.012 204.869 35.9893 205.065 35.9619C205.261 35.9346 205.448 35.9049 205.626 35.873C205.804 35.8366 205.959 35.8047 206.091 35.7773V31.0332H207.602V41H206.091V37.124ZM209.987 31.0332H216.351V32.4619H211.498V35.2988H215.64V36.6455H211.498V39.5713H216.351V41H209.987V31.0332ZM218.06 31.0332H224.048V32.4619H219.571V41H218.06V31.0332ZM228.614 41.082C228.222 41.082 227.862 41.0342 227.534 40.9385C227.206 40.8382 226.912 40.6947 226.653 40.5078C226.11 40.1523 225.723 39.7467 225.49 39.291L225.292 38.8604C225.265 38.7829 225.24 38.7008 225.217 38.6143C225.194 38.5231 225.174 38.4274 225.155 38.3271C225.087 37.9443 225.053 37.1742 225.053 36.0166C225.053 35.4287 225.06 34.9434 225.073 34.5605C225.092 34.1777 225.119 33.8883 225.155 33.6924C225.228 33.2913 225.34 32.9746 225.49 32.7422C225.723 32.291 226.11 31.8786 226.653 31.5049C227.186 31.1357 227.84 30.9512 228.614 30.9512C229.398 30.9512 230.059 31.1357 230.597 31.5049C231.121 31.8695 231.499 32.2819 231.732 32.7422C231.891 32.9655 232.01 33.2822 232.087 33.6924C232.142 34.0843 232.169 34.859 232.169 36.0166C232.169 37.1559 232.142 37.9261 232.087 38.3271C232.01 38.7373 231.891 39.0586 231.732 39.291C231.49 39.7604 231.112 40.166 230.597 40.5078C230.328 40.6947 230.029 40.8382 229.701 40.9385C229.378 41.0342 229.015 41.082 228.614 41.082ZM228.614 39.5713C228.979 39.5713 229.291 39.4961 229.551 39.3457C229.792 39.2272 229.993 39.0609 230.153 38.8467C230.358 38.6325 230.492 38.3522 230.556 38.0059C230.624 37.6777 230.658 37.0146 230.658 36.0166C230.658 35.5199 230.652 35.1074 230.638 34.7793C230.624 34.4466 230.597 34.1914 230.556 34.0137C230.492 33.6764 230.358 33.4007 230.153 33.1865C230.002 32.9814 229.802 32.8083 229.551 32.667C229.278 32.5394 228.965 32.471 228.614 32.4619C228.259 32.4801 227.956 32.5485 227.705 32.667C227.432 32.8083 227.22 32.9814 227.069 33.1865C226.883 33.3916 226.753 33.6673 226.68 34.0137C226.607 34.3874 226.57 35.055 226.57 36.0166C226.57 36.5088 226.58 36.9189 226.598 37.2471C226.616 37.5752 226.643 37.8281 226.68 38.0059C226.753 38.3613 226.883 38.6416 227.069 38.8467C227.22 39.0609 227.432 39.2272 227.705 39.3457C227.947 39.4961 228.25 39.5713 228.614 39.5713ZM239.722 35.8867L236.865 31.0332H238.574L240.563 34.4922L242.552 31.0332H244.261L241.404 35.8867L244.453 41H242.744L240.563 37.2881L238.376 41H236.673L239.722 35.8867ZM248.868 41.082C248.477 41.082 248.117 41.0342 247.788 40.9385C247.46 40.8382 247.166 40.6947 246.907 40.5078C246.364 40.1523 245.977 39.7467 245.744 39.291L245.546 38.8604C245.519 38.7829 245.494 38.7008 245.471 38.6143C245.448 38.5231 245.428 38.4274 245.409 38.3271C245.341 37.9443 245.307 37.1742 245.307 36.0166C245.307 35.4287 245.314 34.9434 245.327 34.5605C245.346 34.1777 245.373 33.8883 245.409 33.6924C245.482 33.2913 245.594 32.9746 245.744 32.7422C245.977 32.291 246.364 31.8786 246.907 31.5049C247.44 31.1357 248.094 30.9512 248.868 30.9512C249.652 30.9512 250.313 31.1357 250.851 31.5049C251.375 31.8695 251.753 32.2819 251.986 32.7422C252.145 32.9655 252.264 33.2822 252.341 33.6924C252.396 34.0843 252.423 34.859 252.423 36.0166C252.423 37.1559 252.396 37.9261 252.341 38.3271C252.264 38.7373 252.145 39.0586 251.986 39.291C251.744 39.7604 251.366 40.166 250.851 40.5078C250.582 40.6947 250.284 40.8382 249.955 40.9385C249.632 41.0342 249.27 41.082 248.868 41.082ZM248.868 39.5713C249.233 39.5713 249.545 39.4961 249.805 39.3457C250.047 39.2272 250.247 39.0609 250.407 38.8467C250.612 38.6325 250.746 38.3522 250.81 38.0059C250.878 37.6777 250.912 37.0146 250.912 36.0166C250.912 35.5199 250.906 35.1074 250.892 34.7793C250.878 34.4466 250.851 34.1914 250.81 34.0137C250.746 33.6764 250.612 33.4007 250.407 33.1865C250.256 32.9814 250.056 32.8083 249.805 32.667C249.532 32.5394 249.219 32.471 248.868 32.4619C248.513 32.4801 248.21 32.5485 247.959 32.667C247.686 32.8083 247.474 32.9814 247.324 33.1865C247.137 33.3916 247.007 33.6673 246.934 34.0137C246.861 34.3874 246.825 35.055 246.825 36.0166C246.825 36.5088 246.834 36.9189 246.852 37.2471C246.87 37.5752 246.897 37.8281 246.934 38.0059C247.007 38.3613 247.137 38.6416 247.324 38.8467C247.474 39.0609 247.686 39.2272 247.959 39.3457C248.201 39.4961 248.504 39.5713 248.868 39.5713ZM256.162 32.4619H253.435V31.0332H260.407V32.4619H257.68V41H256.162V32.4619ZM260.886 39.6396H261.22C261.38 39.6396 261.51 39.6283 261.61 39.6055C261.715 39.5827 261.799 39.5417 261.863 39.4824C261.927 39.4186 261.984 39.3389 262.034 39.2432C262.089 39.1429 262.148 39.0199 262.212 38.874L262.772 37.5273C262.845 37.3678 262.945 37.1924 263.073 37.001C263.201 36.8096 263.353 36.6546 263.531 36.5361C263.239 36.5088 262.959 36.4313 262.69 36.3037C262.426 36.1761 262.191 36.0052 261.986 35.791C261.781 35.5768 261.617 35.3171 261.494 35.0117C261.375 34.7018 261.316 34.3464 261.316 33.9453C261.316 33.5169 261.389 33.125 261.535 32.7695C261.681 32.4141 261.888 32.1087 262.157 31.8535C262.426 31.5938 262.752 31.3932 263.135 31.252C263.517 31.1061 263.943 31.0332 264.413 31.0332H268.275V41H266.751V36.8984H265.575C265.352 36.8984 265.117 36.9577 264.871 37.0762C264.629 37.1901 264.429 37.4339 264.269 37.8076L263.586 39.4072C263.481 39.6488 263.367 39.8675 263.244 40.0635C263.125 40.2594 262.989 40.4281 262.834 40.5693C262.683 40.7061 262.501 40.8132 262.287 40.8906C262.077 40.9635 261.833 41 261.555 41H260.886V39.6396ZM266.751 35.5518V32.4619H264.468C263.98 32.4619 263.583 32.5986 263.278 32.8721C262.977 33.141 262.827 33.5169 262.827 34C262.827 34.4831 262.977 34.8636 263.278 35.1416C263.583 35.415 263.98 35.5518 264.468 35.5518H266.751ZM272.349 32.4619H269.622V31.0332H276.594V32.4619H273.867V41H272.349V32.4619ZM200.096 56.5713H201.005C201.215 56.1611 201.395 55.7282 201.545 55.2725C201.7 54.8122 201.827 54.2607 201.928 53.6182C202.033 52.9756 202.108 52.2054 202.153 51.3076C202.203 50.4098 202.229 49.3184 202.229 48.0332H207.923V56.5713H209.099V60.2422H207.67V58H201.524V60.2422H200.096V56.5713ZM206.412 56.5713V49.4619H203.671C203.671 50.4782 203.646 51.3532 203.596 52.0869C203.55 52.8161 203.482 53.4541 203.391 54.001C203.304 54.5479 203.195 55.0241 203.062 55.4297C202.935 55.8353 202.787 56.2158 202.618 56.5713H206.412ZM210.534 48.0332H216.898V49.4619H212.045V52.2988H216.187V53.6455H212.045V56.5713H216.898V58H210.534V48.0332ZM220.295 49.4619H217.568V48.0332H224.54V49.4619H221.813V58H220.295V49.4619ZM225.887 48.0332H227.398V55.2588L231.711 48.0332H233.092V58H231.581V50.7607L227.254 58H225.887V48.0332Z" fill="#EB7835"/>
<defs>
<clipPath id="clip0_12_7943">
<rect width="180" height="72" fill="white"/>
</clipPath>
</defs>
</svg>
