<svg width="180" height="72" viewBox="0 0 180 72" fill="none" xmlns="http://www.w3.org/2000/svg">
<g clip-path="url(#clip0_763_174)">
<path d="M72.0267 53.9666L53.9866 36L36.0134 17.9666L17.9733 36L0 53.9666L17.9733 72L36.0134 53.9666L53.9866 72L72.0267 53.9666Z" fill="#66C3D0"/>
<path d="M54.0184 -0.00269779L36.0181 17.991L54.0184 35.9846L72.0187 17.991L54.0184 -0.00269779Z" fill="#BDE2EA"/>
<path d="M36.0611 26.9705L27.0386 35.9922L36.0636 45.0114L45.0862 35.9896L36.0611 26.9705Z" fill="#BDE2EA"/>
<path d="M59.7995 47.0872H47.5723V59.3098H59.7995V47.0872Z" fill="#BDE2EA"/>
<path d="M60.8687 17.9667C60.8687 21.7738 57.7952 24.9129 53.92 24.9129C50.1115 24.9129 46.9712 21.8405 46.9712 17.9667C46.9712 14.1597 50.0447 11.0205 53.92 11.0205C57.7284 11.0873 60.8687 14.1597 60.8687 17.9667Z" fill="#66C3D0"/>
<path d="M161.96 36L145.323 19.3692L125.946 0L107.973 17.9666L127.35 37.3358L143.987 53.9666L161.96 36Z" fill="#EB7835"/>
<path d="M125.982 35.9975L107.982 53.9912L125.982 71.9849L143.983 53.9912L125.982 35.9975Z" fill="#F7AA47"/>
<path d="M132.895 17.9667C132.895 21.7738 129.822 24.9129 125.946 24.9129C122.138 24.9129 118.998 21.8405 118.998 17.9667C118.998 14.1597 122.071 11.0205 125.946 11.0205C129.822 11.0873 132.895 14.1597 132.895 17.9667Z" fill="#F7AA47"/>
<path d="M150.869 35.9333C150.869 39.7403 147.795 42.8795 143.92 42.8795C140.111 42.8795 136.971 39.8071 136.971 35.9333C136.971 32.1262 140.045 28.9871 143.92 28.9871C147.795 28.9871 150.869 32.0594 150.869 35.9333Z" fill="#F7AA47"/>
<path d="M133.229 53.9667C133.229 57.7737 130.156 60.9129 126.28 60.9129C122.472 60.9129 119.332 57.8405 119.332 53.9667C119.332 50.1597 122.405 47.0205 126.28 47.0205C130.156 47.0873 133.229 50.1597 133.229 53.9667Z" fill="#EB7835"/>
<path d="M89.9948 -0.00806596L53.9941 35.9792L89.9948 71.9666L125.996 35.9792L89.9948 -0.00806596Z" fill="#E95322"/>
<path d="M89.8663 13.3582C89.0645 14.1596 88.7304 14.36 88.5968 15.629C88.4632 16.898 89.6659 19.77 89.8663 20.2376C90.0667 20.7051 90.2672 21.1058 90.5345 21.5734L90.4676 21.6402C89.9999 21.4398 89.599 21.1726 89.1313 20.9723C88.6636 20.7719 85.7906 19.5697 84.5211 19.7032C83.2516 19.8368 83.0512 20.1708 82.2494 20.9723C82.2494 20.9723 82.3162 21.4398 82.7839 21.9073C83.2516 22.3749 83.7193 22.5084 83.7193 22.5084C84.0534 22.1745 84.2538 21.9741 84.5211 21.9741C85.4565 21.8405 86.7928 22.3749 86.7928 22.3749L91.403 24.245L95.6124 28.4528C95.6124 28.4528 96.2137 28.2524 96.6146 27.7849C97.0823 27.3173 97.2828 26.783 97.2828 26.783L93.0734 22.5752L91.2026 17.9667C91.2026 17.9667 90.6681 16.6309 90.8017 15.6958C90.8685 15.4287 91.0022 15.2283 91.3362 14.8943C91.3362 14.8943 91.2026 14.4268 90.7349 13.9593C90.334 13.4249 89.8663 13.3582 89.8663 13.3582ZM101.559 26.783L108.708 33.9296C109.176 34.3971 109.577 34.9314 109.844 35.4658C110.111 36.0001 110.178 36.5344 110.178 37.1355C110.178 37.6698 110.044 38.2042 109.844 38.7385C109.577 39.2728 109.243 39.7403 108.775 40.2079C108.24 40.7422 107.706 41.1429 107.105 41.3433C106.57 41.5437 105.969 41.6773 105.434 41.6105C104.9 41.5437 104.365 41.4101 103.831 41.1429C103.296 40.8758 102.828 40.5418 102.361 40.0743L95.2783 32.9945C95.2783 32.9945 95.412 32.4602 95.8797 31.9927C96.4142 31.4583 96.9487 31.3248 96.9487 31.3248L104.031 38.4045C104.499 38.8721 104.967 39.0724 105.568 39.1392C106.102 39.206 106.637 39.0056 107.171 38.4713C107.572 38.0706 107.773 37.6031 107.773 37.0687C107.773 36.5344 107.572 36.0001 107.105 35.5993L99.8886 28.386C99.8886 28.386 99.8886 27.9852 100.557 27.3173C101.158 26.783 101.559 26.783 101.559 26.783ZM102.895 45.5511C102.027 45.8851 101.359 45.7515 100.69 45.5511C100.156 45.4175 96.6146 43.6142 96.6146 43.6142L95.2783 44.95L99.5545 49.2246C99.5545 49.2246 99.354 49.7589 98.8863 50.2264C98.4186 50.694 97.8841 50.8943 97.8841 50.8943L87.6614 40.6754L90.9353 37.4027C91.3362 37.0019 91.8039 36.668 92.2716 36.4008C92.7394 36.1337 93.2739 36.0001 93.7416 36.0001C94.2761 36.0001 94.7438 36.0669 95.2783 36.334C95.8129 36.5344 96.2806 36.9351 96.8151 37.4027C97.4832 38.0706 97.8841 38.7385 98.0846 39.4732C98.285 40.2079 98.2182 41.0094 97.9509 41.7441C97.9509 41.7441 100.49 42.8795 100.891 43.0799C101.292 43.2802 101.425 43.2802 101.96 43.347C102.494 43.4138 103.096 42.7459 103.096 42.7459C103.096 42.7459 103.63 42.9463 104.031 43.347C104.432 43.7478 104.566 44.2153 104.566 44.2153C104.566 44.2153 103.764 45.2171 102.895 45.5511ZM95.2115 39.0056C94.7438 38.5381 94.2761 38.271 93.7416 38.3377C93.2739 38.3377 92.8062 38.6049 92.3385 39.0724L90.8685 40.5418L93.8084 43.4806L95.2783 42.0112C95.746 41.5437 95.9465 41.0761 95.9465 40.6086C95.9465 40.0743 95.6792 39.54 95.2115 39.0056ZM92.6725 56.1708C92.6725 56.1708 92.138 55.9704 91.5367 55.3693C90.9353 54.7682 90.7349 54.2338 90.7349 54.2338C90.7349 54.2338 90.8685 53.7663 91.4699 53.1652C92.0712 52.5641 92.5389 52.4305 92.5389 52.4305C92.5389 52.4305 93.0734 52.6309 93.6748 53.232C94.2761 53.8331 94.4765 54.3674 94.4765 54.3674C94.4765 54.3674 94.3429 54.835 93.7416 55.3693C93.2071 55.9036 92.6725 56.1708 92.6725 56.1708ZM88.7304 29.0539C89.1982 29.5214 89.599 30.0557 89.7995 30.5901C90.0667 31.1244 90.1336 31.6587 90.1336 32.2598C90.1336 32.7941 89.9999 33.3953 89.7995 33.8628C89.5322 34.3971 89.1982 34.8646 88.7304 35.3322C88.1959 35.8665 87.5946 36.2672 86.9932 36.5344C86.3919 36.7348 85.8574 36.8684 85.2561 36.8016C84.7215 36.7348 84.187 36.6012 83.6525 36.2672C83.118 36.0001 82.6503 35.5993 82.1826 35.1318L78.3073 31.258C77.9732 30.924 77.6391 30.4565 77.3719 29.989C77.1046 29.5214 76.971 28.9871 76.9042 28.4528C76.8373 27.9184 76.9042 27.3173 77.1046 26.7162C77.3051 26.1151 77.7059 25.514 78.3073 24.9797C78.8418 24.4454 79.3763 24.0446 79.9777 23.8442C80.579 23.6439 81.1135 23.5771 81.7149 23.5771C82.2494 23.6439 82.7839 23.7774 83.3184 24.0446C83.7861 24.3118 84.2538 24.6457 84.6547 24.9797L88.7304 29.0539ZM82.9175 26.6494C82.7839 26.5159 82.5835 26.3823 82.383 26.2487C82.1826 26.1151 81.9153 26.0483 81.648 25.9815C81.3808 25.9147 81.1135 25.9147 80.7794 25.9815C80.5122 26.0483 80.1781 26.2487 79.9108 26.5159C79.6436 26.783 79.4431 27.117 79.3763 27.3841C79.3095 27.6513 79.2427 27.9852 79.3095 28.2524C79.3763 28.5196 79.4431 28.7867 79.5768 28.9871C79.7104 29.1875 79.844 29.3878 79.9777 29.5882L83.9198 33.462C84.3875 33.9296 84.922 34.2635 85.5233 34.3971C86.0578 34.5307 86.6592 34.2635 87.1937 33.7292C87.5946 33.3285 87.795 32.8609 87.795 32.3266C87.795 31.7923 87.5946 31.258 87.1269 30.8572L82.9175 26.6494ZM73.2961 33.1949L81.9821 41.8776C81.9821 41.8776 81.7149 42.412 81.2471 42.8795C80.7794 43.347 80.2449 43.6142 80.2449 43.6142L71.5589 34.9314L69.2872 37.2023C69.2872 37.2023 68.8195 37.0019 68.3518 36.5344C67.8841 36.0669 67.7505 35.6661 67.7505 35.6661L73.9643 29.4546C73.9643 29.4546 74.432 29.5214 74.8997 29.989C75.3674 30.4565 75.501 30.9908 75.501 30.9908L73.2961 33.1949Z" fill="#FEFEFE"/>
<path d="M25.1891 53.8329C25.1891 57.64 22.1156 60.7791 18.2404 60.7791C14.4319 60.7791 11.3584 57.7068 11.3584 53.8329C11.3584 50.0259 14.4319 46.8867 18.3072 46.8867C22.1156 46.9535 25.1891 50.0259 25.1891 53.8329Z" fill="#BDE2EA"/>
<path d="M161.988 -0.00977501L143.987 17.9839L161.988 35.9775L179.988 17.9839L161.988 -0.00977501Z" fill="#F7AA47"/>
<path d="M161.936 9.00677L152.959 17.98L161.936 26.9532L170.913 17.98L161.936 9.00677Z" fill="#EB7835"/>
</g>
<defs>
<clipPath id="clip0_763_174">
<rect width="180" height="72" fill="white"/>
</clipPath>
</defs>
</svg>
