<svg width="90" height="36" viewBox="0 0 90 36" fill="none" xmlns="http://www.w3.org/2000/svg">
<g clip-path="url(#clip0_763_5407)">
<rect width="90" height="36" fill="white"/>
<path d="M36.0134 26.9832L26.9933 17.9999L18.0067 8.98315L8.98664 17.9999L0 26.9832L8.98664 35.9999L18.0067 26.9832L26.9933 35.9999L36.0134 26.9832Z" fill="#66C3D0"/>
<path d="M27.009 -0.00146878L18.0088 8.99536L27.009 17.9922L36.0091 8.99536L27.009 -0.00146878Z" fill="#BDE2EA"/>
<path d="M18.0305 13.4855L13.5193 17.9963L18.0318 22.5059L22.5431 17.9951L18.0305 13.4855Z" fill="#BDE2EA"/>
<path d="M29.8997 23.5435H23.7861V29.6548H29.8997V23.5435Z" fill="#BDE2EA"/>
<path d="M30.4344 8.98335C30.4344 10.8869 28.8976 12.4564 26.96 12.4564C25.0557 12.4564 23.4856 10.9203 23.4856 8.98335C23.4856 7.07983 25.0223 5.51025 26.96 5.51025C28.8642 5.54365 30.4344 7.07983 30.4344 8.98335Z" fill="#66C3D0"/>
<path d="M80.9801 18L72.6616 9.6846L62.9735 0L53.9868 8.9833L63.675 18.6679L71.9935 26.9833L80.9801 18Z" fill="#EB7835"/>
<path d="M62.9914 17.999L53.9912 26.9958L62.9914 35.9927L71.9916 26.9958L62.9914 17.999Z" fill="#F7AA47"/>
<path d="M66.4478 8.98335C66.4478 10.8869 64.9111 12.4564 62.9734 12.4564C61.0692 12.4564 59.499 10.9203 59.499 8.98335C59.499 7.07983 61.0358 5.51025 62.9734 5.51025C64.9111 5.54365 66.4478 7.07983 66.4478 8.98335Z" fill="#F7AA47"/>
<path d="M75.4344 17.9668C75.4344 19.8703 73.8976 21.4399 71.96 21.4399C70.0558 21.4399 68.4856 19.9037 68.4856 17.9668C68.4856 16.0632 70.0223 14.4937 71.96 14.4937C73.8976 14.4937 75.4344 16.0298 75.4344 17.9668Z" fill="#F7AA47"/>
<path d="M66.6146 26.9833C66.6146 28.8869 65.0778 30.4564 63.1402 30.4564C61.2359 30.4564 59.6658 28.9203 59.6658 26.9833C59.6658 25.0798 61.2025 23.5103 63.1402 23.5103C65.0778 23.5436 66.6146 25.0798 66.6146 26.9833Z" fill="#EB7835"/>
<path d="M44.9977 -0.00415202L26.9973 17.9895L44.9977 35.9832L62.998 17.9895L44.9977 -0.00415202Z" fill="#E95322"/>
<path d="M44.9329 6.6792C44.532 7.07994 44.365 7.18013 44.2982 7.81464C44.2314 8.44914 44.8327 9.88514 44.9329 10.1189C45.0331 10.3527 45.1334 10.553 45.267 10.7868L45.2336 10.8202C44.9997 10.72 44.7993 10.5864 44.5654 10.4862C44.3316 10.3861 42.895 9.78495 42.2603 9.85174C41.6256 9.91853 41.5253 10.0855 41.1244 10.4862C41.1244 10.4862 41.1579 10.72 41.3917 10.9538C41.6256 11.1875 41.8594 11.2543 41.8594 11.2543C42.0264 11.0874 42.1267 10.9872 42.2603 10.9872C42.728 10.9204 43.3962 11.1875 43.3962 11.1875L45.7013 12.1226L47.806 14.2265C47.806 14.2265 48.1066 14.1263 48.3071 13.8926C48.5409 13.6588 48.6412 13.3916 48.6412 13.3916L46.5365 11.2877L45.6011 8.98347C45.6011 8.98347 45.3338 8.31556 45.4006 7.84803C45.434 7.71445 45.5008 7.61426 45.6679 7.44729C45.6679 7.44729 45.6011 7.21352 45.3672 6.97976C45.1668 6.71259 44.9329 6.6792 44.9329 6.6792ZM50.7792 13.3916L54.3538 16.9649C54.5877 17.1987 54.7881 17.4658 54.9218 17.733C55.0554 18.0002 55.0888 18.2673 55.0888 18.5679C55.0888 18.835 55.022 19.1022 54.9218 19.3694C54.7881 19.6365 54.6211 19.8703 54.3873 20.1041C54.12 20.3712 53.8527 20.5716 53.5521 20.6718C53.2848 20.772 52.9841 20.8388 52.7169 20.8054C52.4496 20.772 52.1824 20.7052 51.9151 20.5716C51.6478 20.438 51.414 20.271 51.1801 20.0373L47.6389 16.4974C47.6389 16.4974 47.7057 16.2302 47.9396 15.9965C48.2069 15.7293 48.4741 15.6625 48.4741 15.6625L52.0153 19.2024C52.2492 19.4362 52.483 19.5363 52.7837 19.5697C53.0509 19.6031 53.3182 19.5029 53.5855 19.2358C53.7859 19.0354 53.8861 18.8016 53.8861 18.5345C53.8861 18.2673 53.7859 18.0002 53.5521 17.7998L49.944 14.1931C49.944 14.1931 49.944 13.9927 50.2781 13.6588C50.5788 13.3916 50.7792 13.3916 50.7792 13.3916ZM51.4474 22.7757C51.0131 22.9426 50.679 22.8759 50.3449 22.7757C50.0777 22.7089 48.3071 21.8072 48.3071 21.8072L47.6389 22.4751L49.777 24.6124C49.777 24.6124 49.6768 24.8796 49.4429 25.1133C49.2091 25.3471 48.9418 25.4473 48.9418 25.4473L43.8305 20.3378L45.4674 18.7015C45.6679 18.5011 45.9017 18.3341 46.1356 18.2005C46.3694 18.067 46.6367 18.0002 46.8705 18.0002C47.1378 18.0002 47.3717 18.0336 47.6389 18.1671C47.9062 18.2673 48.14 18.4677 48.4073 18.7015C48.7414 19.0354 48.9418 19.3694 49.042 19.7367C49.1423 20.1041 49.1089 20.5048 48.9752 20.8721C48.9752 20.8721 50.2447 21.4399 50.4452 21.5401C50.6456 21.6402 50.7124 21.6402 50.9797 21.6736C51.2469 21.707 51.5476 21.3731 51.5476 21.3731C51.5476 21.3731 51.8149 21.4733 52.0153 21.6736C52.2158 21.874 52.2826 22.1078 52.2826 22.1078C52.2826 22.1078 51.8817 22.6087 51.4474 22.7757ZM47.6055 19.5029C47.3717 19.2692 47.1378 19.1356 46.8705 19.169C46.6367 19.169 46.4028 19.3026 46.169 19.5363L45.434 20.271L46.904 21.7404L47.6389 21.0057C47.8728 20.772 47.973 20.5382 47.973 20.3044C47.973 20.0373 47.8394 19.7701 47.6055 19.5029ZM46.336 28.0855C46.336 28.0855 46.0688 27.9853 45.7681 27.6848C45.4674 27.3842 45.3672 27.117 45.3672 27.117C45.3672 27.117 45.434 26.8833 45.7347 26.5827C46.0354 26.2822 46.2692 26.2154 46.2692 26.2154C46.2692 26.2154 46.5365 26.3156 46.8371 26.6161C47.1378 26.9167 47.238 27.1838 47.238 27.1838C47.238 27.1838 47.1712 27.4176 46.8705 27.6848C46.6033 27.9519 46.336 28.0855 46.336 28.0855ZM44.365 14.5271C44.5988 14.7608 44.7993 15.028 44.8995 15.2952C45.0331 15.5623 45.0665 15.8295 45.0665 16.13C45.0665 16.3972 44.9997 16.6978 44.8995 16.9315C44.7659 17.1987 44.5988 17.4324 44.365 17.6662C44.0977 17.9334 43.797 18.1337 43.4964 18.2673C43.1957 18.3675 42.9285 18.4343 42.6278 18.4009C42.3605 18.3675 42.0933 18.3007 41.826 18.1337C41.5587 18.0002 41.3249 17.7998 41.091 17.566L39.1534 15.6291C38.9864 15.4621 38.8193 15.2284 38.6857 14.9946C38.5521 14.7608 38.4852 14.4937 38.4518 14.2265C38.4184 13.9593 38.4518 13.6588 38.5521 13.3582C38.6523 13.0577 38.8527 12.7571 39.1534 12.49C39.4207 12.2228 39.6879 12.0224 39.9886 11.9222C40.2893 11.8221 40.5565 11.7887 40.8572 11.7887C41.1244 11.8221 41.3917 11.8888 41.659 12.0224C41.8928 12.156 42.1267 12.323 42.3271 12.49L44.365 14.5271ZM41.4585 13.3248C41.3917 13.258 41.2915 13.1913 41.1913 13.1245C41.091 13.0577 40.9574 13.0243 40.8238 12.9909C40.6901 12.9575 40.5565 12.9575 40.3895 12.9909C40.2558 13.0243 40.0888 13.1245 39.9552 13.258C39.8215 13.3916 39.7213 13.5586 39.6879 13.6922C39.6545 13.8258 39.6211 13.9927 39.6545 14.1263C39.6879 14.2599 39.7213 14.3935 39.7881 14.4937C39.855 14.5939 39.9218 14.694 39.9886 14.7942L41.9596 16.7311C42.1935 16.9649 42.4607 17.1319 42.7614 17.1987C43.0287 17.2655 43.3293 17.1319 43.5966 16.8647C43.7971 16.6644 43.8973 16.4306 43.8973 16.1634C43.8973 15.8963 43.797 15.6291 43.5632 15.4287L41.4585 13.3248ZM36.6478 16.5976L40.9908 20.9389C40.9908 20.9389 40.8572 21.2061 40.6233 21.4399C40.3895 21.6736 40.1222 21.8072 40.1222 21.8072L35.7792 17.4658L34.6434 18.6013C34.6434 18.6013 34.4095 18.5011 34.1757 18.2673C33.9418 18.0336 33.875 17.8332 33.875 17.8332L36.9819 14.7274C36.9819 14.7274 37.2158 14.7608 37.4496 14.9946C37.6835 15.2284 37.7503 15.4955 37.7503 15.4955L36.6478 16.5976Z" fill="#FEFEFE"/>
<path d="M12.5948 26.9165C12.5948 28.82 11.0581 30.3896 9.12042 30.3896C7.21619 30.3896 5.67944 28.8534 5.67944 26.9165C5.67944 25.0129 7.21619 23.4434 9.15383 23.4434C11.0581 23.4768 12.5948 25.0129 12.5948 26.9165Z" fill="#BDE2EA"/>
<path d="M80.9941 -0.00488717L71.9939 8.99194L80.9941 17.9888L89.9942 8.99194L80.9941 -0.00488717Z" fill="#F7AA47"/>
<path d="M80.968 4.50338L76.4797 8.98999L80.968 13.4766L85.4563 8.98999L80.968 4.50338Z" fill="#EB7835"/>
</g>
<defs>
<clipPath id="clip0_763_5407">
<rect width="90" height="36" fill="white"/>
</clipPath>
</defs>
</svg>
