<svg width="132" height="52" viewBox="0 0 132 52" fill="none" xmlns="http://www.w3.org/2000/svg">
<g clip-path="url(#clip0_763_4960)">
<path d="M52.8196 38.9756L39.5902 25.9997L26.4098 12.9756L13.1804 25.9997L0 38.9756L13.1804 51.9997L26.4098 38.9756L39.5902 51.9997L52.8196 38.9756Z" fill="#66C3D0"/>
<path d="M39.6133 -0.00225967L26.4131 12.9932L39.6133 25.9886L52.8136 12.9932L39.6133 -0.00225967Z" fill="#BDE2EA"/>
<path d="M26.4446 19.4789L19.8281 25.9946L26.4465 32.5085L33.063 25.9928L26.4446 19.4789Z" fill="#BDE2EA"/>
<path d="M43.8528 34.0073H34.8862V42.8348H43.8528V34.0073Z" fill="#BDE2EA"/>
<path d="M44.6371 12.9757C44.6371 15.7252 42.3832 17.9924 39.5413 17.9924C36.7485 17.9924 34.4456 15.7735 34.4456 12.9757C34.4456 10.2261 36.6995 7.95898 39.5413 7.95898C42.3342 8.00722 44.6371 10.2261 44.6371 12.9757Z" fill="#66C3D0"/>
<path d="M118.771 26L106.57 13.9889L92.3608 0L79.1804 12.9759L93.3898 26.9647L105.59 38.9759L118.771 26Z" fill="#EB7835"/>
<path d="M92.387 25.9982L79.1868 38.9937L92.387 51.9891L105.587 38.9936L92.387 25.9982Z" fill="#F7AA47"/>
<path d="M97.4567 12.9757C97.4567 15.7252 95.2028 17.9924 92.3609 17.9924C89.568 17.9924 87.2651 15.7735 87.2651 12.9757C87.2651 10.2261 89.519 7.95898 92.3609 7.95898C95.2028 8.00722 97.4567 10.2261 97.4567 12.9757Z" fill="#F7AA47"/>
<path d="M110.637 25.9518C110.637 28.7013 108.383 30.9685 105.541 30.9685C102.748 30.9685 100.446 28.7495 100.446 25.9518C100.446 23.2022 102.699 20.9351 105.541 20.9351C108.383 20.9351 110.637 23.154 110.637 25.9518Z" fill="#F7AA47"/>
<path d="M97.7016 38.9757C97.7016 41.7252 95.4477 43.9924 92.6058 43.9924C89.8129 43.9924 87.51 41.7734 87.51 38.9757C87.51 36.2261 89.7639 33.959 92.6058 33.959C95.4477 34.0072 97.7016 36.2261 97.7016 38.9757Z" fill="#EB7835"/>
<path d="M65.9962 -0.0059736L39.5957 25.9849L65.9962 51.9757L92.3967 25.9849L65.9962 -0.0059736Z" fill="#E95322"/>
<path d="M65.9019 9.64746C65.3139 10.2263 65.0689 10.371 64.9709 11.2875C64.8729 12.204 65.7549 14.2783 65.9019 14.6159C66.0489 14.9536 66.1958 15.243 66.3918 15.5807L66.3428 15.6289C65.9999 15.4842 65.7059 15.2912 65.3629 15.1465C65.0199 15.0018 62.913 14.1335 61.982 14.23C61.0511 14.3265 60.9041 14.5677 60.3161 15.1465C60.3161 15.1465 60.3651 15.4842 60.7081 15.8219C61.0511 16.1595 61.3941 16.256 61.3941 16.256C61.6391 16.0148 61.786 15.8701 61.982 15.8701C62.668 15.7736 63.648 16.1595 63.648 16.1595L67.0288 17.5102L70.1157 20.5491C70.1157 20.5491 70.5567 20.4044 70.8506 20.0668C71.1936 19.7291 71.3406 19.3432 71.3406 19.3432L68.2538 16.3042L66.8818 12.9758C66.8818 12.9758 66.4898 12.0111 66.5878 11.3358C66.6368 11.1428 66.7348 10.9981 66.9798 10.7569C66.9798 10.7569 66.8818 10.4193 66.5388 10.0816C66.2448 9.6957 65.9019 9.64746 65.9019 9.64746ZM74.4765 19.3432L79.7192 24.5046C80.0622 24.8423 80.3562 25.2282 80.5522 25.6141C80.7482 26 80.7972 26.3859 80.7972 26.82C80.7972 27.2059 80.6992 27.5918 80.5522 27.9777C80.3562 28.3636 80.1112 28.7013 79.7682 29.0389C79.3762 29.4248 78.9843 29.7143 78.5433 29.859C78.1513 30.0037 77.7103 30.1002 77.3183 30.0519C76.9264 30.0037 76.5344 29.9072 76.1424 29.7143C75.7504 29.5213 75.4074 29.2801 75.0644 28.9425L69.8707 23.8293C69.8707 23.8293 69.9687 23.4434 70.3117 23.1057C70.7036 22.7198 71.0956 22.6233 71.0956 22.6233L76.2894 27.7365C76.6324 28.0742 76.9754 28.2189 77.4163 28.2671C77.8083 28.3154 78.2003 28.1707 78.5923 27.7848C78.8863 27.4953 79.0333 27.1577 79.0333 26.7718C79.0333 26.3859 78.8863 26 78.5433 25.7105L73.2515 20.5009C73.2515 20.5009 73.2515 20.2115 73.7415 19.7291C74.1825 19.3432 74.4765 19.3432 74.4765 19.3432ZM75.4564 32.8979C74.8195 33.1391 74.3295 33.0426 73.8395 32.8979C73.4475 32.8014 70.8506 31.499 70.8506 31.499L69.8707 32.4638L73.0065 35.551C73.0065 35.551 72.8595 35.9369 72.5166 36.2745C72.1736 36.6122 71.7816 36.7569 71.7816 36.7569L64.2849 29.3766L66.6858 27.013C66.9798 26.7235 67.3228 26.4823 67.6658 26.2894C68.0088 26.0964 68.4007 26 68.7437 26C69.1357 26 69.4787 26.0482 69.8707 26.2412C70.2627 26.3859 70.6056 26.6753 70.9976 27.013C71.4876 27.4953 71.7816 27.9777 71.9286 28.5083C72.0756 29.0389 72.0266 29.6178 71.8306 30.1484C71.8306 30.1484 73.6925 30.9684 73.9865 31.1131C74.2805 31.2579 74.3785 31.2579 74.7705 31.3061C75.1624 31.3543 75.6034 30.872 75.6034 30.872C75.6034 30.872 75.9954 31.0167 76.2894 31.3061C76.5834 31.5955 76.6814 31.9332 76.6814 31.9332C76.6814 31.9332 76.0934 32.6567 75.4564 32.8979ZM69.8217 28.1707C69.4787 27.833 69.1357 27.64 68.7437 27.6883C68.4007 27.6883 68.0578 27.8812 67.7148 28.2189L66.6368 29.2801L68.7927 31.4026L69.8707 30.3413C70.2137 30.0037 70.3607 29.666 70.3607 29.3284C70.3607 28.9425 70.1647 28.5566 69.8217 28.1707ZM67.9598 40.5677C67.9598 40.5677 67.5678 40.423 67.1268 39.9888C66.6858 39.5547 66.5388 39.1688 66.5388 39.1688C66.5388 39.1688 66.6368 38.8311 67.0778 38.397C67.5188 37.9629 67.8618 37.8664 67.8618 37.8664C67.8618 37.8664 68.2537 38.0111 68.6947 38.4452C69.1357 38.8794 69.2827 39.2653 69.2827 39.2653C69.2827 39.2653 69.1847 39.6029 68.7437 39.9888C68.3517 40.3747 67.9598 40.5677 67.9598 40.5677ZM65.0689 20.9833C65.4119 21.3209 65.7059 21.7068 65.8529 22.0927C66.0488 22.4786 66.0978 22.8645 66.0978 23.2987C66.0978 23.6846 65.9999 24.1187 65.8529 24.4564C65.6569 24.8423 65.4119 25.1799 65.0689 25.5176C64.6769 25.9035 64.2359 26.1929 63.795 26.3859C63.354 26.5306 62.962 26.6271 62.521 26.5788C62.129 26.5306 61.737 26.4341 61.3451 26.1929C60.9531 26 60.6101 25.7105 60.2671 25.3729L57.4252 22.5751C57.1803 22.3339 56.9353 21.9963 56.7393 21.6586C56.5433 21.3209 56.4453 20.935 56.3963 20.5491C56.3473 20.1632 56.3963 19.7291 56.5433 19.295C56.6903 18.8608 56.9843 18.4267 57.4252 18.0408C57.8172 17.6549 58.2092 17.3655 58.6502 17.2207C59.0912 17.076 59.4832 17.0278 59.9241 17.0278C60.3161 17.076 60.7081 17.1725 61.1001 17.3655C61.4431 17.5584 61.786 17.7996 62.08 18.0408L65.0689 20.9833ZM60.8061 19.2467C60.7081 19.1502 60.5611 19.0538 60.4141 18.9573C60.2671 18.8608 60.0711 18.8126 59.8751 18.7643C59.6791 18.7161 59.4831 18.7161 59.2382 18.7643C59.0422 18.8126 58.7972 18.9573 58.6012 19.1502C58.4052 19.3432 58.2582 19.5844 58.2092 19.7773C58.1602 19.9703 58.1112 20.2115 58.1602 20.4044C58.2092 20.5974 58.2582 20.7903 58.3562 20.935C58.4542 21.0797 58.5522 21.2245 58.6502 21.3692L61.5411 24.1669C61.884 24.5046 62.276 24.7458 62.717 24.8423C63.109 24.9387 63.55 24.7458 63.9419 24.3599C64.2359 24.0705 64.3829 23.7328 64.3829 23.3469C64.3829 22.961 64.2359 22.5751 63.8929 22.2857L60.8061 19.2467ZM53.7504 23.974L60.1201 30.2449C60.1201 30.2449 59.9241 30.6308 59.5811 30.9684C59.2382 31.3061 58.8462 31.499 58.8462 31.499L52.4765 25.2282L50.8105 26.8682C50.8105 26.8682 50.4676 26.7235 50.1246 26.3859C49.7816 26.0482 49.6836 25.7588 49.6836 25.7588L54.2404 21.2727C54.2404 21.2727 54.5834 21.3209 54.9264 21.6586C55.2693 21.9963 55.3673 22.3822 55.3673 22.3822L53.7504 23.974Z" fill="#FEFEFE"/>
<path d="M18.4721 38.8795C18.4721 41.629 16.2182 43.8962 13.3764 43.8962C10.5835 43.8962 8.32959 41.6773 8.32959 38.8795C8.32959 36.13 10.5835 33.8628 13.4254 33.8628C16.2182 33.911 18.4721 36.13 18.4721 38.8795Z" fill="#BDE2EA"/>
<path d="M118.791 -0.0071398L105.591 12.9883L118.791 25.9837L131.991 12.9883L118.791 -0.0071398Z" fill="#F7AA47"/>
<path d="M118.753 6.50518L112.17 12.9858L118.753 19.4665L125.336 12.9858L118.753 6.50518Z" fill="#EB7835"/>
</g>
<defs>
<clipPath id="clip0_763_4960">
<rect width="132" height="52" fill="white"/>
</clipPath>
</defs>
</svg>
