<svg width="100" height="40" viewBox="0 0 100 40" fill="none" xmlns="http://www.w3.org/2000/svg">
<g clip-path="url(#clip0_12_18178)">
<rect width="100" height="40" fill="white"/>
<path d="M40.0148 29.9814L29.9926 20L20.0074 9.98145L9.98515 20L0 29.9814L9.98515 40L20.0074 29.9814L29.9926 40L40.0148 29.9814Z" fill="#66C3D0"/>
<path d="M30.01 -0.00184944L20.0098 9.99463L30.01 19.9911L40.0101 9.99463L30.01 -0.00184944Z" fill="#BDE2EA"/>
<path d="M20.034 14.984L15.0215 19.9961L20.0354 25.0067L25.0479 19.9947L20.034 14.984Z" fill="#BDE2EA"/>
<path d="M33.2226 26.1592H26.4297V32.9495H33.2226V26.1592Z" fill="#BDE2EA"/>
<path d="M33.8166 9.98155C33.8166 12.0966 32.1091 13.8406 29.9561 13.8406C27.8403 13.8406 26.0957 12.1337 26.0957 9.98155C26.0957 7.86653 27.8032 6.12256 29.9561 6.12256C32.0719 6.15966 33.8166 7.86653 33.8166 9.98155Z" fill="#66C3D0"/>
<path d="M89.9769 20L80.7342 10.7607L69.9695 0L59.9844 9.98145L70.749 20.7421L79.9918 29.9814L89.9769 20Z" fill="#EB7835"/>
<path d="M69.9904 19.9986L59.9902 29.9951L69.9904 39.9916L79.9906 29.9951L69.9904 19.9986Z" fill="#F7AA47"/>
<path d="M73.8302 9.98155C73.8302 12.0966 72.1227 13.8406 69.9698 13.8406C67.854 13.8406 66.1094 12.1337 66.1094 9.98155C66.1094 7.86653 67.8169 6.12256 69.9698 6.12256C72.1227 6.15966 73.8302 7.86653 73.8302 9.98155Z" fill="#F7AA47"/>
<path d="M83.8166 19.963C83.8166 22.078 82.1091 23.822 79.9561 23.822C77.8403 23.822 76.0957 22.1151 76.0957 19.963C76.0957 17.848 77.8032 16.104 79.9561 16.104C82.1091 16.104 83.8166 17.8109 83.8166 19.963Z" fill="#F7AA47"/>
<path d="M74.0158 29.9816C74.0158 32.0966 72.3083 33.8405 70.1554 33.8405C68.0395 33.8405 66.2949 32.1337 66.2949 29.9816C66.2949 27.8665 68.0024 26.1226 70.1554 26.1226C72.3083 26.1597 74.0158 27.8665 74.0158 29.9816Z" fill="#EB7835"/>
<path d="M49.9965 -0.00466835L29.9961 19.9883L49.9965 39.9812L69.9969 19.9883L49.9965 -0.00466835Z" fill="#E95322"/>
<path d="M49.9252 7.42139C49.4798 7.86666 49.2942 7.97797 49.22 8.68298C49.1457 9.38799 49.8139 10.9835 49.9252 11.2433C50.0366 11.503 50.148 11.7257 50.2964 11.9854L50.2593 12.0225C49.9995 11.9112 49.7768 11.7628 49.5169 11.6514C49.2571 11.5401 47.6609 10.8722 46.9557 10.9464C46.2504 11.0206 46.139 11.2062 45.6936 11.6514C45.6936 11.6514 45.7307 11.9112 45.9906 12.1709C46.2504 12.4307 46.5102 12.5049 46.5102 12.5049C46.6958 12.3193 46.8072 12.208 46.9557 12.208C47.4753 12.1338 48.2177 12.4307 48.2177 12.4307L50.779 13.4696L53.1175 15.8073C53.1175 15.8073 53.4516 15.696 53.6743 15.4362C53.9341 15.1765 54.0455 14.8796 54.0455 14.8796L51.707 12.542L50.6676 9.98168C50.6676 9.98168 50.3707 9.23957 50.4449 8.72009C50.482 8.57166 50.5563 8.46035 50.7419 8.27482C50.7419 8.27482 50.6676 8.01508 50.4078 7.75534C50.1851 7.45849 49.9252 7.42139 49.9252 7.42139ZM56.4212 14.8796L60.3929 18.85C60.6528 19.1097 60.8755 19.4065 61.024 19.7034C61.1725 20.0002 61.2096 20.2971 61.2096 20.631C61.2096 20.9279 61.1353 21.2247 61.024 21.5216C60.8755 21.8184 60.6899 22.0782 60.4301 22.3379C60.1331 22.6347 59.8362 22.8574 59.5021 22.9687C59.2051 23.08 58.871 23.1542 58.5741 23.1171C58.2771 23.08 57.9802 23.0058 57.6832 22.8574C57.3863 22.709 57.1264 22.5234 56.8666 22.2637L52.9319 18.3305C52.9319 18.3305 53.0062 18.0336 53.266 17.7739C53.563 17.477 53.8599 17.4028 53.8599 17.4028L57.7946 21.336C58.0544 21.5958 58.3143 21.7071 58.6483 21.7442C58.9453 21.7813 59.2422 21.67 59.5392 21.3731C59.7619 21.1505 59.8733 20.8908 59.8733 20.5939C59.8733 20.2971 59.7619 20.0002 59.5021 19.7776L55.4932 15.7702C55.4932 15.7702 55.4932 15.5475 55.8644 15.1765C56.1984 14.8796 56.4212 14.8796 56.4212 14.8796ZM57.1635 25.3064C56.681 25.4919 56.3098 25.4177 55.9386 25.3064C55.6416 25.2321 53.6743 24.2303 53.6743 24.2303L52.9319 24.9724L55.3076 27.3472C55.3076 27.3472 55.1962 27.644 54.9364 27.9038C54.6765 28.1635 54.3796 28.2748 54.3796 28.2748L48.7003 22.5976L50.5192 20.7795C50.7419 20.5568 51.0017 20.3713 51.2615 20.2229C51.5214 20.0744 51.8183 20.0002 52.0782 20.0002C52.3751 20.0002 52.635 20.0373 52.9319 20.1858C53.2289 20.2971 53.4887 20.5197 53.7857 20.7795C54.1569 21.1505 54.3796 21.5216 54.4909 21.9297C54.6023 22.3379 54.5652 22.7832 54.4167 23.1913C54.4167 23.1913 55.8272 23.8221 56.05 23.9334C56.2727 24.0448 56.3469 24.0448 56.6439 24.0819C56.9408 24.119 57.2749 23.7479 57.2749 23.7479C57.2749 23.7479 57.5719 23.8592 57.7946 24.0819C58.0173 24.3045 58.0915 24.5642 58.0915 24.5642C58.0915 24.5642 57.6461 25.1208 57.1635 25.3064ZM52.8948 21.67C52.635 21.4103 52.3751 21.2618 52.0782 21.2989C51.8183 21.2989 51.5585 21.4474 51.2987 21.7071L50.482 22.5234L52.1153 24.1561L52.9319 23.3398C53.1918 23.08 53.3031 22.8203 53.3031 22.5605C53.3031 22.2637 53.1546 21.9668 52.8948 21.67ZM51.4843 31.2062C51.4843 31.2062 51.1873 31.0949 50.8532 30.7609C50.5191 30.427 50.4078 30.1301 50.4078 30.1301C50.4078 30.1301 50.482 29.8704 50.8161 29.5364C51.1502 29.2025 51.41 29.1283 51.41 29.1283C51.41 29.1283 51.707 29.2396 52.041 29.5735C52.3751 29.9075 52.4865 30.2043 52.4865 30.2043C52.4865 30.2043 52.4122 30.4641 52.0782 30.7609C51.7812 31.0577 51.4843 31.2062 51.4843 31.2062ZM49.2942 16.1412C49.554 16.401 49.7768 16.6978 49.8881 16.9947C50.0366 17.2915 50.0737 17.5884 50.0737 17.9223C50.0737 18.2192 49.9995 18.5531 49.8881 18.8129C49.7396 19.1097 49.554 19.3694 49.2942 19.6292C48.9972 19.926 48.6632 20.1487 48.3291 20.2971C47.995 20.4084 47.6981 20.4826 47.364 20.4455C47.067 20.4084 46.7701 20.3342 46.4731 20.1487C46.1762 20.0002 45.9163 19.7776 45.6565 19.5179L43.5036 17.3657C43.318 17.1802 43.1324 16.9205 42.9839 16.6607C42.8354 16.401 42.7612 16.1041 42.724 15.8073C42.6869 15.5104 42.724 15.1765 42.8354 14.8425C42.9468 14.5086 43.1695 14.1746 43.5036 13.8778C43.8005 13.5809 44.0975 13.3583 44.4315 13.247C44.7656 13.1357 45.0626 13.0986 45.3967 13.0986C45.6936 13.1357 45.9906 13.2099 46.2875 13.3583C46.5474 13.5067 46.8072 13.6923 47.0299 13.8778L49.2942 16.1412ZM46.0648 14.8054C45.9906 14.7312 45.8792 14.657 45.7678 14.5828C45.6565 14.5086 45.508 14.4715 45.3595 14.4344C45.2111 14.3973 45.0626 14.3973 44.877 14.4344C44.7285 14.4715 44.5429 14.5828 44.3944 14.7312C44.2459 14.8796 44.1346 15.0652 44.0975 15.2136C44.0604 15.362 44.0232 15.5475 44.0603 15.696C44.0975 15.8444 44.1346 15.9928 44.2088 16.1041C44.2831 16.2154 44.3573 16.3268 44.4315 16.4381L46.6216 18.5902C46.8814 18.85 47.1784 19.0355 47.5125 19.1097C47.8094 19.1839 48.1435 19.0355 48.4405 18.7386C48.6632 18.516 48.7745 18.2563 48.7745 17.9594C48.7745 17.6626 48.6632 17.3657 48.4033 17.1431L46.0648 14.8054ZM40.7196 18.4418L45.5451 23.2655C45.5451 23.2655 45.3967 23.5624 45.1368 23.8221C44.877 24.0819 44.58 24.2303 44.58 24.2303L39.7545 19.4065L38.4924 20.6681C38.4924 20.6681 38.2326 20.5568 37.9727 20.2971C37.7129 20.0373 37.6387 19.8147 37.6387 19.8147L41.0908 16.3639C41.0908 16.3639 41.3506 16.401 41.6105 16.6607C41.8703 16.9205 41.9445 17.2173 41.9445 17.2173L40.7196 18.4418Z" fill="#FEFEFE"/>
<path d="M13.9943 29.9073C13.9943 32.0224 12.2868 33.7663 10.1339 33.7663C8.01804 33.7663 6.31055 32.0595 6.31055 29.9073C6.31055 27.7923 8.01804 26.0483 10.171 26.0483C12.2868 26.0854 13.9943 27.7923 13.9943 29.9073Z" fill="#BDE2EA"/>
<path d="M89.9924 -0.00526724L79.9922 9.99121L89.9924 19.9877L99.9926 9.99121L89.9924 -0.00526724Z" fill="#F7AA47"/>
<path d="M89.9635 5.00365L84.9766 9.98877L89.9635 14.9739L94.9505 9.98877L89.9635 5.00365Z" fill="#EB7835"/>
</g>
<defs>
<clipPath id="clip0_12_18178">
<rect width="100" height="40" fill="white"/>
</clipPath>
</defs>
</svg>
