<svg width="51" height="34" viewBox="0 0 51 34" fill="none" xmlns="http://www.w3.org/2000/svg">
<path d="M0 4.25C0 1.90279 1.90279 0 4.25 0H46.75C49.0972 0 51 1.90279 51 4.25V29.75C51 32.0972 49.0972 34 46.75 34H4.25C1.90279 34 0 32.0972 0 29.75V4.25Z" fill="#FDEACE"/>
<path d="M30.819 6.93577L19.8477 6.97314L20.1835 27.0652L31.1548 27.0278L30.819 6.93577Z" fill="#FF5F00"/>
<path d="M20.5688 17.0598C20.5002 12.9732 22.3299 9.34215 25.1962 6.98694C23.0321 5.28848 20.3191 4.26709 17.3784 4.27706C10.4117 4.3007 4.87141 10.0411 4.99009 17.1126C5.10877 24.1842 10.8411 29.8863 17.8078 29.8627C20.7485 29.8527 23.4269 28.8131 25.5337 27.1001C22.5893 24.8001 20.6374 21.1464 20.5688 17.0598Z" fill="#EB001B"/>
<path d="M46.0115 16.888C46.1301 23.9596 40.5898 29.6999 33.6231 29.7236C30.6824 29.7336 27.9695 28.7122 25.8054 27.0137C28.7067 24.6584 30.5013 21.0275 30.4327 16.9409C30.3641 12.8543 28.4129 9.23605 25.4678 6.90055C27.5747 5.1876 30.253 4.14791 33.1937 4.13794C40.1604 4.1143 45.8934 9.85195 46.0115 16.888Z" fill="#F79E1B"/>
</svg>
