<svg width="51" height="34" viewBox="0 0 51 34" fill="none" xmlns="http://www.w3.org/2000/svg">
<path d="M0 4.25C0 1.90279 1.90279 0 4.25 0H46.75C49.0972 0 51 1.90279 51 4.25V29.75C51 32.0972 49.0972 34 46.75 34H4.25C1.90279 34 0 32.0972 0 29.75V4.25Z" fill="#DCEFDC"/>
<path d="M42.3815 10.8438H34.1992C34.6759 13.5447 37.2974 16.0867 40.1572 16.0867H46.6712C46.7506 15.8484 46.7506 15.4512 46.7506 15.2129C46.7506 12.8297 44.7646 10.8438 42.3815 10.8438Z" fill="url(#paint0_linear_12_6859)"/>
<path d="M34.9141 16.5632V23.1567H38.886V19.6614H42.3813C44.2879 19.6614 45.9561 18.3109 46.5122 16.5632H34.9141Z" fill="#4FAD50"/>
<path d="M20.9316 10.8438V23.0774H24.427C24.427 23.0774 25.3008 23.0774 25.7774 22.2036C28.1606 17.5167 28.8756 16.0867 28.8756 16.0867H29.3522V23.0774H33.3242V10.8438H29.8288C29.8288 10.8438 28.955 10.9232 28.4784 11.7176C26.4924 15.769 25.3802 17.8344 25.3802 17.8344H24.9036V10.8438H20.9316Z" fill="#4FAD50"/>
<path d="M4.25 23.157V10.9233H8.22196C8.22196 10.9233 9.33412 10.9233 9.96964 12.671C11.5584 17.2785 11.7173 17.914 11.7173 17.914C11.7173 17.914 12.0351 16.8018 13.465 12.671C14.1005 10.9233 15.2126 10.9233 15.2126 10.9233H19.1846V23.157H15.2126V16.5635H14.736L12.5117 23.157H10.764L8.53974 16.5635H8.0631V23.157H4.25Z" fill="#4FAD50"/>
<defs>
<linearGradient id="paint0_linear_12_6859" x1="34.1851" y1="13.5028" x2="46.7225" y2="13.5028" gradientUnits="userSpaceOnUse">
<stop stop-color="#27B1E6"/>
<stop offset="1" stop-color="#148ACA"/>
</linearGradient>
</defs>
</svg>
