<svg width="48" height="48" viewBox="0 0 48 48" fill="none" xmlns="http://www.w3.org/2000/svg">
<circle opacity="0.1" cx="24" cy="24" r="24" fill="#247783"/>
<path d="M31.4865 27.3522C32.1162 26.7225 32.2061 25.823 31.6664 24.9234C31.2166 24.2038 30.4071 23.844 29.5075 24.0239C29.1477 24.1139 28.7879 24.2938 28.4281 24.5636C25.6395 26.4527 21.8615 26.3627 19.0729 24.4737C18.893 24.3837 18.7131 24.2938 18.5332 24.2038C17.5437 23.754 16.5543 23.934 16.0145 24.8335C15.3849 25.733 15.4748 26.7225 16.2844 27.5321C16.4643 27.712 16.6442 27.802 16.7342 27.9819L16.8241 28.0718C18.0835 29.0613 19.6127 29.691 21.5916 29.9608L20.4222 31.1302C19.4328 32.1197 18.3533 33.1991 17.3638 34.1886C17.094 34.4585 16.7342 34.9082 16.7342 35.5379C16.7342 36.3475 17.1839 37.1571 17.9935 37.5169C18.2634 37.6968 18.5332 37.6968 18.8031 37.6968C19.2529 37.6968 19.7926 37.5169 20.1524 37.0671C21.5017 35.7178 22.5811 34.6384 23.6606 33.559C23.7505 33.469 23.7505 33.469 23.7505 33.469C23.7505 33.469 23.8405 33.469 23.8405 33.559C24.5601 34.3685 25.3697 35.0881 26.0893 35.8977C26.4491 36.2575 26.8089 36.6174 27.1687 36.9772C27.6185 37.4269 27.9783 37.6068 28.518 37.6068C29.3276 37.6968 30.2271 37.1571 30.587 36.3475C30.9468 35.6279 30.7669 34.7283 30.1372 34.1886C29.2377 33.2891 28.3381 32.2996 27.3486 31.4001L25.8194 29.8709C26.629 29.7809 27.5286 29.601 28.3381 29.2412C29.6874 28.7914 30.6769 28.1618 31.4865 27.3522Z" fill="#247783"/>
<path d="M23.7505 24.8335C27.6185 24.8335 30.7669 21.7751 30.7669 17.9071C30.7669 16.0181 30.0472 14.219 28.6979 12.8697C27.3486 11.5204 25.6395 10.8008 23.8405 10.8008C19.9725 10.8008 16.9141 13.9491 16.8241 17.7272C16.8241 19.6162 17.5437 21.3253 18.893 22.6746C20.1524 24.1138 21.8615 24.8335 23.7505 24.8335ZM21.7715 15.8382C22.3113 15.2984 23.0309 15.0286 23.7505 15.0286C25.3697 15.0286 26.5391 16.2879 26.5391 17.8171C26.5391 19.4363 25.2797 20.6057 23.7505 20.6057C22.1314 20.6057 20.962 19.3463 20.962 17.8171C20.962 17.0975 21.2318 16.3779 21.7715 15.8382Z" fill="#247783"/>
<path d="M31.4865 27.3522C32.1162 26.7225 32.2061 25.823 31.6664 24.9234C31.2166 24.2038 30.4071 23.844 29.5075 24.0239C29.1477 24.1139 28.7879 24.2938 28.4281 24.5636C25.6395 26.4527 21.8615 26.3627 19.0729 24.4737C18.893 24.3837 18.7131 24.2938 18.5332 24.2038C17.5437 23.754 16.5543 23.934 16.0145 24.8335C15.3849 25.733 15.4748 26.7225 16.2844 27.5321C16.4643 27.712 16.6442 27.802 16.7342 27.9819L16.8241 28.0718C18.0835 29.0613 19.6127 29.691 21.5916 29.9608L20.4222 31.1302C19.4328 32.1197 18.3533 33.1991 17.3638 34.1886C17.094 34.4585 16.7342 34.9082 16.7342 35.5379C16.7342 36.3475 17.1839 37.1571 17.9935 37.5169C18.2634 37.6968 18.5332 37.6968 18.8031 37.6968C19.2529 37.6968 19.7926 37.5169 20.1524 37.0671C21.5017 35.7178 22.5811 34.6384 23.6606 33.559C23.7505 33.469 23.7505 33.469 23.7505 33.469C23.7505 33.469 23.8405 33.469 23.8405 33.559C24.5601 34.3685 25.3697 35.0881 26.0893 35.8977C26.4491 36.2575 26.8089 36.6174 27.1687 36.9772C27.6185 37.4269 27.9783 37.6068 28.518 37.6068C29.3276 37.6968 30.2271 37.1571 30.587 36.3475C30.9468 35.6279 30.7669 34.7283 30.1372 34.1886C29.2377 33.2891 28.3381 32.2996 27.3486 31.4001L25.8194 29.8709C26.629 29.7809 27.5286 29.601 28.3381 29.2412C29.6874 28.7914 30.6769 28.1618 31.4865 27.3522Z" fill="#247783"/>
</svg>
