<svg width="48" height="48" viewBox="0 0 48 48" fill="none" xmlns="http://www.w3.org/2000/svg">
<circle cx="24" cy="24" r="24" fill="white"/>
<path d="M31.4867 27.3521C32.1164 26.7224 32.2064 25.8229 31.6666 24.9234C31.2169 24.2038 30.4073 23.8439 29.5078 24.0238C29.148 24.1138 28.7881 24.2937 28.4283 24.5636C25.6398 26.4526 21.8617 26.3626 19.0732 24.4736C18.8933 24.3837 18.7134 24.2937 18.5335 24.2038C17.544 23.754 16.5545 23.9339 16.0148 24.8334C15.3851 25.733 15.4751 26.7225 16.2846 27.532C16.4645 27.7119 16.6445 27.8019 16.7344 27.9818L16.8244 28.0717C18.0837 29.0612 19.6129 29.6909 21.5919 29.9608L20.4225 31.1302C19.433 32.1196 18.3536 33.1991 17.3641 34.1886C17.0942 34.4584 16.7344 34.9082 16.7344 35.5379C16.7344 36.3474 17.1842 37.157 17.9938 37.5168C18.2636 37.6967 18.5335 37.6967 18.8033 37.6967C19.2531 37.6967 19.7928 37.5168 20.1526 37.0671C21.5019 35.7178 22.5814 34.6383 23.6608 33.5589C23.7508 33.4689 23.7508 33.4689 23.7508 33.4689C23.7508 33.4689 23.8407 33.4689 23.8407 33.5589C24.5603 34.3685 25.3699 35.0881 26.0895 35.8977C26.4494 36.2575 26.8092 36.6173 27.169 36.9771C27.6187 37.4269 27.9786 37.6068 28.5183 37.6068C29.3279 37.6967 30.2274 37.157 30.5872 36.3474C30.947 35.6278 30.7671 34.7283 30.1374 34.1886C29.2379 33.289 28.3384 32.2995 27.3489 31.4L25.8197 29.8708C26.6293 29.7809 27.5288 29.6009 28.3384 29.2411C29.6877 28.7914 30.6772 28.1617 31.4867 27.3521Z" fill="#333333"/>
<path d="M23.7508 24.8334C27.6187 24.8334 30.7671 21.775 30.7671 17.907C30.7671 16.018 30.0475 14.2189 28.6982 12.8696C27.3489 11.5203 25.6398 10.8007 23.8407 10.8007C19.9727 10.8007 16.9143 13.9491 16.8244 17.7271C16.8244 19.6161 17.544 21.3252 18.8933 22.6745C20.1526 24.1138 21.8617 24.8334 23.7508 24.8334ZM21.7718 15.8381C22.3115 15.2984 23.0311 15.0285 23.7508 15.0285C25.3699 15.0285 26.5393 16.2879 26.5393 17.8171C26.5393 19.4362 25.28 20.6056 23.7508 20.6056C22.1316 20.6056 20.9622 19.3463 20.9622 17.8171C20.9622 17.0974 21.2321 16.3778 21.7718 15.8381Z" fill="#333333"/>
<path d="M31.4867 27.3521C32.1164 26.7224 32.2064 25.8229 31.6666 24.9234C31.2169 24.2038 30.4073 23.8439 29.5078 24.0238C29.148 24.1138 28.7881 24.2937 28.4283 24.5636C25.6398 26.4526 21.8617 26.3626 19.0732 24.4736C18.8933 24.3837 18.7134 24.2937 18.5335 24.2038C17.544 23.754 16.5545 23.9339 16.0148 24.8334C15.3851 25.733 15.4751 26.7225 16.2846 27.532C16.4645 27.7119 16.6445 27.8019 16.7344 27.9818L16.8244 28.0717C18.0837 29.0612 19.6129 29.6909 21.5919 29.9608L20.4225 31.1302C19.433 32.1196 18.3536 33.1991 17.3641 34.1886C17.0942 34.4584 16.7344 34.9082 16.7344 35.5379C16.7344 36.3474 17.1842 37.157 17.9938 37.5168C18.2636 37.6967 18.5335 37.6967 18.8033 37.6967C19.2531 37.6967 19.7928 37.5168 20.1526 37.0671C21.5019 35.7178 22.5814 34.6383 23.6608 33.5589C23.7508 33.4689 23.7508 33.4689 23.7508 33.4689C23.7508 33.4689 23.8407 33.4689 23.8407 33.5589C24.5603 34.3685 25.3699 35.0881 26.0895 35.8977C26.4494 36.2575 26.8092 36.6173 27.169 36.9771C27.6187 37.4269 27.9786 37.6068 28.5183 37.6068C29.3279 37.6967 30.2274 37.157 30.5872 36.3474C30.947 35.6278 30.7671 34.7283 30.1374 34.1886C29.2379 33.289 28.3384 32.2995 27.3489 31.4L25.8197 29.8708C26.6293 29.7809 27.5288 29.6009 28.3384 29.2411C29.6877 28.7914 30.6772 28.1617 31.4867 27.3521Z" fill="#333333"/>
</svg>
