<svg width="32" height="68" viewBox="0 0 32 68" fill="none" xmlns="http://www.w3.org/2000/svg">
<path opacity="0.2" d="M0 0H22C27.5228 0 32 4.47715 32 10V58C32 63.5228 27.5228 68 22 68H0V0Z" fill="white"/>
<path d="M17.814 40.6664C17.6344 40.6657 17.4568 40.6288 17.2918 40.5577C17.1268 40.4867 16.9779 40.3831 16.854 40.2531L11.7073 34.9198C11.463 34.6705 11.3262 34.3354 11.3262 33.9864C11.3262 33.6374 11.463 33.3023 11.7073 33.0531L17.0406 27.7198C17.165 27.5954 17.3126 27.4968 17.475 27.4295C17.6374 27.3623 17.8115 27.3276 17.9873 27.3276C18.1631 27.3276 18.3372 27.3623 18.4996 27.4295C18.6621 27.4968 18.8097 27.5954 18.934 27.7198C19.0583 27.8441 19.1569 27.9917 19.2242 28.1541C19.2915 28.3165 19.3261 28.4906 19.3261 28.6664C19.3261 28.8422 19.2915 29.0163 19.2242 29.1788C19.1569 29.3412 19.0583 29.4888 18.934 29.6131L14.534 33.9998L18.774 38.3998C19.0223 38.6496 19.1617 38.9875 19.1617 39.3398C19.1617 39.692 19.0223 40.0299 18.774 40.2798C18.6478 40.4049 18.4979 40.5036 18.333 40.57C18.1682 40.6364 17.9917 40.6692 17.814 40.6664Z" fill="white"/>
</svg>
