<svg width="32" height="68" viewBox="0 0 32 68" fill="none" xmlns="http://www.w3.org/2000/svg">
<path opacity="0.2" d="M32 0H10C4.47715 0 0 4.47715 0 10V58C0 63.5228 4.47715 68 10 68H32V0Z" fill="white"/>
<path d="M14.186 40.6664C14.3656 40.6657 14.5432 40.6288 14.7082 40.5577C14.8732 40.4867 15.0221 40.3831 15.146 40.2531L20.2927 34.9198C20.537 34.6705 20.6738 34.3354 20.6738 33.9864C20.6738 33.6374 20.537 33.3023 20.2927 33.0531L14.9594 27.7198C14.835 27.5954 14.6874 27.4968 14.525 27.4295C14.3626 27.3623 14.1885 27.3276 14.0127 27.3276C13.8369 27.3276 13.6628 27.3623 13.5004 27.4295C13.3379 27.4968 13.1903 27.5954 13.066 27.7198C12.9417 27.8441 12.8431 27.9917 12.7758 28.1541C12.7085 28.3165 12.6739 28.4906 12.6739 28.6664C12.6739 28.8422 12.7085 29.0163 12.7758 29.1788C12.8431 29.3412 12.9417 29.4888 13.066 29.6131L17.466 33.9998L13.226 38.3998C12.9777 38.6496 12.8383 38.9875 12.8383 39.3398C12.8383 39.692 12.9777 40.0299 13.226 40.2798C13.3522 40.4049 13.5021 40.5036 13.667 40.57C13.8318 40.6364 14.0083 40.6692 14.186 40.6664Z" fill="white"/>
</svg>
