<svg width="48" height="48" viewBox="0 0 48 48" fill="none" xmlns="http://www.w3.org/2000/svg">
<rect x="0.5" y="0.5" width="47" height="47" rx="9.5" stroke="#E4E4E4"/>
<path d="M15.4173 25.0834H28.2657L24.3331 29.8068C24.2421 29.9163 24.1735 30.0427 24.1313 30.1788C24.0891 30.3148 24.0741 30.4578 24.0872 30.5997C24.1136 30.8861 24.2527 31.1504 24.474 31.3343C24.6952 31.5181 24.9804 31.6066 25.2669 31.5802C25.5534 31.5538 25.8176 31.4147 26.0015 31.1934L31.4181 24.6934C31.4546 24.6417 31.4872 24.5874 31.5156 24.5309C31.5156 24.4768 31.5698 24.4443 31.5915 24.3901C31.6406 24.2659 31.6663 24.1336 31.6673 24.0001C31.6663 23.8665 31.6406 23.7343 31.5915 23.6101C31.5915 23.5559 31.5373 23.5234 31.5156 23.4693C31.4872 23.4128 31.4546 23.3585 31.4181 23.3068L26.0015 16.8068C25.8996 16.6845 25.7721 16.5861 25.6279 16.5187C25.4837 16.4513 25.3265 16.4165 25.1673 16.4168C24.9142 16.4163 24.6689 16.5044 24.474 16.6659C24.3643 16.7569 24.2736 16.8686 24.2071 16.9946C24.1407 17.1206 24.0997 17.2586 24.0867 17.4004C24.0736 17.5423 24.0886 17.6854 24.1309 17.8215C24.1732 17.9576 24.2419 18.0839 24.3331 18.1934L28.2657 22.9168H15.4173C15.13 22.9168 14.8544 23.0309 14.6513 23.2341C14.4481 23.4372 14.334 23.7128 14.334 24.0001C14.334 24.2874 14.4481 24.563 14.6513 24.7661C14.8544 24.9693 15.13 25.0834 15.4173 25.0834Z" fill="#ED4F00"/>
</svg>
