<svg width="48" height="48" viewBox="0 0 48 48" fill="none" xmlns="http://www.w3.org/2000/svg">
<rect x="0.5" y="0.5" width="47" height="47" rx="9.5" stroke="#E4E4E4"/>
<path d="M31.5827 25.0834H18.7343L22.6669 29.8068C22.7579 29.9163 22.8265 30.0427 22.8687 30.1788C22.9109 30.3148 22.9259 30.4578 22.9128 30.5997C22.8864 30.8861 22.7473 31.1504 22.526 31.3343C22.3048 31.5181 22.0196 31.6066 21.7331 31.5802C21.4466 31.5538 21.1824 31.4147 20.9985 31.1934L15.5819 24.6934C15.5454 24.6417 15.5128 24.5874 15.4844 24.5309C15.4844 24.4768 15.4302 24.4443 15.4085 24.3901C15.3594 24.2659 15.3337 24.1336 15.3327 24.0001C15.3337 23.8665 15.3594 23.7343 15.4085 23.6101C15.4085 23.5559 15.4627 23.5234 15.4844 23.4693C15.5128 23.4128 15.5454 23.3585 15.5819 23.3068L20.9985 16.8068C21.1004 16.6845 21.2279 16.5861 21.3721 16.5187C21.5163 16.4513 21.6735 16.4165 21.8327 16.4168C22.0858 16.4163 22.3311 16.5044 22.526 16.6659C22.6357 16.7569 22.7264 16.8686 22.7929 16.9946C22.8593 17.1206 22.9003 17.2586 22.9133 17.4004C22.9264 17.5423 22.9114 17.6854 22.8691 17.8215C22.8268 17.9576 22.7581 18.0839 22.6669 18.1934L18.7343 22.9168H31.5827C31.87 22.9168 32.1456 23.0309 32.3487 23.2341C32.5519 23.4372 32.666 23.7128 32.666 24.0001C32.666 24.2874 32.5519 24.563 32.3487 24.7661C32.1456 24.9693 31.87 25.0834 31.5827 25.0834Z" fill="#ED4F00"/>
</svg>
