<svg width="114" height="31" viewBox="0 0 114 31" fill="none" xmlns="http://www.w3.org/2000/svg">
<path d="M1.05273 1.0332H2.47461L5.33203 7.52734L8.13477 1.0332H9.56348V11H8.05273V4.78613H8.02539L5.93359 9.57129H4.67578L2.59082 4.78613H2.56348V11H1.05273V1.0332ZM11.9558 1.0332H13.4665V4.9502H15.7771C16.251 4.9502 16.6817 5.02539 17.0691 5.17578C17.4564 5.32617 17.7891 5.53581 18.0671 5.80469C18.3497 6.06901 18.5661 6.38574 18.7165 6.75488C18.8669 7.11947 18.9421 7.52734 18.9421 7.97852C18.9421 8.42513 18.8646 8.83529 18.7097 9.20898C18.5547 9.58268 18.3383 9.90397 18.0603 10.1729C17.7868 10.4372 17.4564 10.6423 17.0691 10.7881C16.6817 10.9294 16.251 11 15.7771 11H11.9558V1.0332ZM15.6882 9.57129C16.2305 9.57129 16.6521 9.42773 16.9529 9.14062C17.2582 8.84896 17.4109 8.45247 17.4109 7.95117C17.4109 7.44531 17.2582 7.04655 16.9529 6.75488C16.6521 6.45866 16.2305 6.31055 15.6882 6.31055H13.4665V9.57129H15.6882ZM20.1452 1.0332H21.656V11H20.1452V1.0332ZM30.2961 11.082C29.8631 11.082 29.4552 11.0205 29.0724 10.8975C28.6896 10.7699 28.3433 10.5853 28.0334 10.3438C27.728 10.0977 27.4683 9.79915 27.2541 9.44824C27.0399 9.09277 26.8872 8.68034 26.7961 8.21094H28.3888C28.5301 8.64388 28.7602 8.98796 29.0793 9.24316C29.4028 9.49837 29.8175 9.62598 30.3234 9.62598C30.8839 9.62598 31.3374 9.48698 31.6838 9.20898C32.0347 8.92643 32.2101 8.54818 32.2101 8.07422C32.2101 7.56836 32.0597 7.19238 31.7589 6.94629C31.4627 6.7002 31.0252 6.57715 30.4464 6.57715H29.175V5.23047H30.4738C30.9796 5.23047 31.3693 5.1097 31.6427 4.86816C31.9207 4.62663 32.0597 4.2666 32.0597 3.78809C32.0597 3.32324 31.9048 2.96777 31.5949 2.72168C31.285 2.47103 30.8657 2.3457 30.3371 2.3457C29.8039 2.3457 29.3778 2.48926 29.0588 2.77637C28.7443 3.05892 28.521 3.4349 28.3888 3.9043H26.7961C26.9783 2.94271 27.3885 2.21126 28.0265 1.70996C28.6691 1.2041 29.4438 0.951172 30.3507 0.951172C30.8156 0.951172 31.2463 1.01497 31.6427 1.14258C32.0392 1.26562 32.3787 1.44336 32.6613 1.67578C32.9484 1.9082 33.174 2.19303 33.338 2.53027C33.5021 2.86751 33.5841 3.24121 33.5841 3.65137C33.5841 4.16178 33.4634 4.60156 33.2218 4.9707C32.9849 5.33984 32.6476 5.63151 32.2101 5.8457C32.6977 6.04167 33.0737 6.33333 33.338 6.7207C33.6024 7.10807 33.7345 7.5957 33.7345 8.18359C33.7345 8.62565 33.6479 9.02669 33.4748 9.38672C33.3061 9.74219 33.0669 10.0475 32.757 10.3027C32.4471 10.5534 32.0825 10.7471 31.6632 10.8838C31.244 11.016 30.7882 11.082 30.2961 11.082ZM35.5868 1.0332H37.0975V5.29883H41.0419V1.0332H42.5595V11H41.0419V6.64551H37.0975V11H35.5868V1.0332ZM47.5289 1.0332H48.7936L52.4166 11H50.8238L50.0514 8.77148H46.2711L45.5055 11H43.9059L47.5289 1.0332ZM49.6207 7.43164L48.1783 3.07715H48.151L46.7086 7.43164H49.6207ZM53.7698 1.0332H60.1341V2.46191H55.2806V5.29883H59.4232V6.64551H55.2806V9.57129H60.1341V11H53.7698V1.0332ZM61.8428 1.0332H63.2647L66.1221 7.52734L68.9248 1.0332H70.3536V11H68.8428V4.78613H68.8155L66.7237 9.57129H65.4659L63.3809 4.78613H63.3536V11H61.8428V1.0332ZM72.657 9.57129H74.0857V11L72.657 12.0391V9.57129ZM6.09082 24.124C5.79915 24.1787 5.41406 24.2471 4.93555 24.3291C4.46159 24.4066 3.97852 24.4453 3.48633 24.4453C3.1582 24.4453 2.83691 24.402 2.52246 24.3154C2.21257 24.2243 1.93685 24.0807 1.69531 23.8848C1.45378 23.6888 1.26009 23.4359 1.11426 23.126C0.968424 22.8115 0.895508 22.4333 0.895508 21.9912V18.0332H2.41992V21.6016C2.41992 21.8932 2.46094 22.1325 2.54297 22.3193C2.62956 22.5016 2.74349 22.6497 2.88477 22.7637C3.02604 22.8776 3.18555 22.9551 3.36328 22.9961C3.54557 23.0371 3.74154 23.0576 3.95117 23.0576C4.11523 23.0576 4.29297 23.0485 4.48438 23.0303C4.67578 23.012 4.86947 22.9893 5.06543 22.9619C5.26139 22.9346 5.44824 22.9049 5.62598 22.873C5.80371 22.8366 5.95866 22.8047 6.09082 22.7773V18.0332H7.60156V28H6.09082V24.124ZM9.98703 18.0332H16.3513V19.4619H11.4978V22.2988H15.6404V23.6455H11.4978V26.5713H16.3513V28H9.98703V18.0332ZM18.06 18.0332H24.0483V19.4619H19.5707V28H18.06V18.0332ZM28.6144 28.082C28.2225 28.082 27.8625 28.0342 27.5343 27.9385C27.2062 27.8382 26.9123 27.6947 26.6525 27.5078C26.1102 27.1523 25.7228 26.7467 25.4904 26.291L25.2921 25.8604C25.2648 25.7829 25.2397 25.7008 25.217 25.6143C25.1942 25.5231 25.1737 25.4274 25.1554 25.3271C25.0871 24.9443 25.0529 24.1742 25.0529 23.0166C25.0529 22.4287 25.0597 21.9434 25.0734 21.5605C25.0916 21.1777 25.119 20.8883 25.1554 20.6924C25.2283 20.2913 25.34 19.9746 25.4904 19.7422C25.7228 19.291 26.1102 18.8786 26.6525 18.5049C27.1857 18.1357 27.8397 17.9512 28.6144 17.9512C29.3983 17.9512 30.0591 18.1357 30.5968 18.5049C31.1209 18.8695 31.4992 19.2819 31.7316 19.7422C31.8911 19.9655 32.0096 20.2822 32.0871 20.6924C32.1418 21.0843 32.1691 21.859 32.1691 23.0166C32.1691 24.1559 32.1418 24.9261 32.0871 25.3271C32.0096 25.7373 31.8911 26.0586 31.7316 26.291C31.4901 26.7604 31.1118 27.166 30.5968 27.5078C30.328 27.6947 30.0295 27.8382 29.7013 27.9385C29.3778 28.0342 29.0155 28.082 28.6144 28.082ZM28.6144 26.5713C28.979 26.5713 29.2912 26.4961 29.5509 26.3457C29.7925 26.2272 29.993 26.0609 30.1525 25.8467C30.3576 25.6325 30.492 25.3522 30.5558 25.0059C30.6242 24.6777 30.6584 24.0146 30.6584 23.0166C30.6584 22.5199 30.6515 22.1074 30.6379 21.7793C30.6242 21.4466 30.5968 21.1914 30.5558 21.0137C30.492 20.6764 30.3576 20.4007 30.1525 20.1865C30.0021 19.9814 29.8016 19.8083 29.5509 19.667C29.2775 19.5394 28.9653 19.471 28.6144 19.4619C28.2589 19.4801 27.9559 19.5485 27.7052 19.667C27.4318 19.8083 27.2199 19.9814 27.0695 20.1865C26.8826 20.3916 26.7528 20.6673 26.6798 21.0137C26.6069 21.3874 26.5705 22.055 26.5705 23.0166C26.5705 23.5088 26.5796 23.9189 26.5978 24.2471C26.616 24.5752 26.6434 24.8281 26.6798 25.0059C26.7528 25.3613 26.8826 25.6416 27.0695 25.8467C27.2199 26.0609 27.4318 26.2272 27.7052 26.3457C27.9468 26.4961 28.2498 26.5713 28.6144 26.5713ZM39.7223 22.8867L36.8648 18.0332H38.5738L40.5631 21.4922L42.5523 18.0332H44.2613L41.4039 22.8867L44.4527 28H42.7438L40.5631 24.2881L38.3756 28H36.6734L39.7223 22.8867ZM48.8685 28.082C48.4765 28.082 48.1165 28.0342 47.7884 27.9385C47.4603 27.8382 47.1663 27.6947 46.9066 27.5078C46.3642 27.1523 45.9769 26.7467 45.7445 26.291L45.5462 25.8604C45.5189 25.7829 45.4938 25.7008 45.471 25.6143C45.4482 25.5231 45.4277 25.4274 45.4095 25.3271C45.3411 24.9443 45.307 24.1742 45.307 23.0166C45.307 22.4287 45.3138 21.9434 45.3275 21.5605C45.3457 21.1777 45.373 20.8883 45.4095 20.6924C45.4824 20.2913 45.5941 19.9746 45.7445 19.7422C45.9769 19.291 46.3642 18.8786 46.9066 18.5049C47.4398 18.1357 48.0937 17.9512 48.8685 17.9512C49.6523 17.9512 50.3131 18.1357 50.8509 18.5049C51.375 18.8695 51.7532 19.2819 51.9857 19.7422C52.1452 19.9655 52.2637 20.2822 52.3411 20.6924C52.3958 21.0843 52.4232 21.859 52.4232 23.0166C52.4232 24.1559 52.3958 24.9261 52.3411 25.3271C52.2637 25.7373 52.1452 26.0586 51.9857 26.291C51.7441 26.7604 51.3659 27.166 50.8509 27.5078C50.582 27.6947 50.2835 27.8382 49.9554 27.9385C49.6318 28.0342 49.2695 28.082 48.8685 28.082ZM48.8685 26.5713C49.2331 26.5713 49.5452 26.4961 49.805 26.3457C50.0465 26.2272 50.2471 26.0609 50.4066 25.8467C50.6116 25.6325 50.7461 25.3522 50.8099 25.0059C50.8782 24.6777 50.9124 24.0146 50.9124 23.0166C50.9124 22.5199 50.9056 22.1074 50.8919 21.7793C50.8782 21.4466 50.8509 21.1914 50.8099 21.0137C50.7461 20.6764 50.6116 20.4007 50.4066 20.1865C50.2562 19.9814 50.0557 19.8083 49.805 19.667C49.5316 19.5394 49.2194 19.471 48.8685 19.4619C48.513 19.4801 48.2099 19.5485 47.9593 19.667C47.6859 19.8083 47.4739 19.9814 47.3236 20.1865C47.1367 20.3916 47.0068 20.6673 46.9339 21.0137C46.861 21.3874 46.8245 22.055 46.8245 23.0166C46.8245 23.5088 46.8336 23.9189 46.8519 24.2471C46.8701 24.5752 46.8974 24.8281 46.9339 25.0059C47.0068 25.3613 47.1367 25.6416 47.3236 25.8467C47.4739 26.0609 47.6859 26.2272 47.9593 26.3457C48.2008 26.4961 48.5039 26.5713 48.8685 26.5713ZM56.1621 19.4619H53.4346V18.0332H60.4073V19.4619H57.6797V28H56.1621V19.4619ZM60.8855 26.6396H61.2205C61.38 26.6396 61.5099 26.6283 61.6101 26.6055C61.7149 26.5827 61.7992 26.5417 61.863 26.4824C61.9269 26.4186 61.9838 26.3389 62.0339 26.2432C62.0886 26.1429 62.1479 26.0199 62.2117 25.874L62.7722 24.5273C62.8451 24.3678 62.9454 24.1924 63.073 24.001C63.2006 23.8096 63.3533 23.6546 63.531 23.5361C63.2394 23.5088 62.9591 23.4313 62.6902 23.3037C62.4259 23.1761 62.1912 23.0052 61.9861 22.791C61.781 22.5768 61.617 22.3171 61.4939 22.0117C61.3754 21.7018 61.3162 21.3464 61.3162 20.9453C61.3162 20.5169 61.3891 20.125 61.5349 19.7695C61.6808 19.4141 61.8881 19.1087 62.157 18.8535C62.4259 18.5938 62.7517 18.3932 63.1345 18.252C63.5173 18.1061 63.9435 18.0332 64.4129 18.0332H68.2752V28H66.7507V23.8984H65.575C65.3517 23.8984 65.117 23.9577 64.8709 24.0762C64.6293 24.1901 64.4288 24.4339 64.2693 24.8076L63.5857 26.4072C63.4809 26.6488 63.367 26.8675 63.2439 27.0635C63.1254 27.2594 62.9887 27.4281 62.8338 27.5693C62.6834 27.7061 62.5011 27.8132 62.2869 27.8906C62.0772 27.9635 61.8334 28 61.5554 28H60.8855V26.6396ZM66.7507 22.5518V19.4619H64.4675C63.9799 19.4619 63.5834 19.5986 63.2781 19.8721C62.9773 20.141 62.8269 20.5169 62.8269 21C62.8269 21.4831 62.9773 21.8636 63.2781 22.1416C63.5834 22.415 63.9799 22.5518 64.4675 22.5518H66.7507ZM72.3491 19.4619H69.6216V18.0332H76.5942V19.4619H73.8667V28H72.3491V19.4619ZM80.6269 26.5713H81.5361C81.7457 26.1611 81.9257 25.7282 82.0761 25.2725C82.231 24.8122 82.3586 24.2607 82.4589 23.6182C82.5637 22.9756 82.6389 22.2054 82.6845 21.3076C82.7346 20.4098 82.7597 19.3184 82.7597 18.0332H88.454V26.5713H89.6298V30.2422H88.2011V28H82.0556V30.2422H80.6269V26.5713ZM86.9433 26.5713V19.4619H84.2021C84.2021 20.4782 84.177 21.3532 84.1269 22.0869C84.0813 22.8161 84.0129 23.4541 83.9218 24.001C83.8352 24.5479 83.7258 25.0241 83.5937 25.4297C83.4661 25.8353 83.318 26.2158 83.1493 26.5713H86.9433ZM91.0651 18.0332H97.4293V19.4619H92.5758V22.2988H96.7184V23.6455H92.5758V26.5713H97.4293V28H91.0651V18.0332ZM100.827 19.4619H98.099V18.0332H105.072V19.4619H102.344V28H100.827V19.4619ZM106.418 18.0332H107.929V25.2588L112.242 18.0332H113.623V28H112.112V20.7607L107.785 28H106.418V18.0332Z" fill="#EB7835"/>
</svg>
