<svg width="51" height="34" viewBox="0 0 51 34" fill="none" xmlns="http://www.w3.org/2000/svg">
<path d="M0 4.25C0 1.90279 1.90279 0 4.25 0H46.75C49.0972 0 51 1.90279 51 4.25V29.75C51 32.0972 49.0972 34 46.75 34H4.25C1.90279 34 0 32.0972 0 29.75V4.25Z" fill="#D8E3F3"/>
<path d="M43.891 10.6621H41.2192C40.4114 10.6621 39.7901 10.9106 39.4173 11.7184L34.3223 23.3375H37.9261C37.9261 23.3375 38.5474 21.7842 38.6717 21.4114C39.0445 21.4114 42.5862 21.4114 43.0832 21.4114C43.2075 21.8463 43.5182 23.2754 43.5182 23.2754H46.7492L43.891 10.6621ZM39.6658 18.8017C39.9765 18.0561 41.0328 15.2601 41.0328 15.2601C41.0328 15.3222 41.3435 14.5144 41.4677 14.0795L41.7163 15.1979C41.7163 15.1979 42.3997 18.2425 42.524 18.8639H39.6658V18.8017Z" fill="#3362AB"/>
<path d="M34.5727 19.1744C34.5727 21.7841 32.2116 23.5238 28.5457 23.5238C26.9923 23.5238 25.5011 23.2132 24.6934 22.8404L25.1904 19.9822L25.6254 20.1686C26.7438 20.6656 27.4894 20.852 28.8564 20.852C29.8505 20.852 30.9068 20.4792 30.9068 19.6094C30.9068 19.0501 30.4719 18.6773 29.1049 18.056C27.8001 17.4346 26.0603 16.4405 26.0603 14.6386C26.0603 12.1532 28.4836 10.4756 31.901 10.4756C33.2058 10.4756 34.3242 10.7241 35.0077 11.0348L34.5106 13.7687L34.2621 13.5202C33.6407 13.2716 32.833 13.0231 31.6524 13.0231C30.3476 13.0852 29.7263 13.6444 29.7263 14.1415C29.7263 14.7007 30.4719 15.1357 31.6524 15.6949C33.6407 16.6269 34.5727 17.6832 34.5727 19.1744Z" fill="#3362AB"/>
<path d="M4.25 10.7864L4.31213 10.5378H9.6557C10.4013 10.5378 10.9605 10.7864 11.1469 11.5941L12.3275 17.1862C11.1469 14.2038 8.41301 11.7805 4.25 10.7864Z" fill="#F9B50B"/>
<path d="M19.8463 10.6622L14.4406 23.2755H10.7747L7.66797 12.7127C9.90481 14.1418 11.7688 16.3786 12.4523 17.932L12.8251 19.2368L16.1804 10.6001H19.8463V10.6622Z" fill="#3362AB"/>
<path d="M21.2743 10.6001H24.6917L22.517 23.2755H19.0996L21.2743 10.6001Z" fill="#3362AB"/>
</svg>
