<svg width="48" height="48" viewBox="0 0 48 48" fill="none" xmlns="http://www.w3.org/2000/svg">
<circle opacity="0.1" cx="24" cy="24" r="24" fill="#247783"/>
<path d="M35.7684 30.1381C35.7684 30.0385 35.6688 30.0385 35.6688 29.9389C35.2703 29.1418 34.3737 28.1456 33.1781 27.0497C32.5804 26.5515 32.2815 26.153 32.0822 25.9538C31.7833 25.5552 31.7833 25.2564 31.883 24.8579C31.9826 24.559 32.3811 24.0608 33.0785 23.1642C33.477 22.666 33.6762 22.3672 33.9751 22.0683C35.4695 20.0757 36.1669 18.7806 35.9677 18.1828L35.8681 18.0832C35.7684 17.9836 35.6688 17.8839 35.4695 17.8839C35.2703 17.7843 34.9714 17.7843 34.6725 17.8839H30.8867C30.7871 17.8839 30.7871 17.8839 30.5878 17.8839C30.4882 17.8839 30.3886 17.8839 30.3886 17.8839H30.2889H30.1893L30.0897 17.9836C29.99 18.0832 29.99 18.0832 29.99 18.1828C29.5915 19.2787 29.0934 20.1754 28.5953 21.1716C28.2964 21.6698 27.9975 22.1679 27.6986 22.5664C27.3997 22.9649 27.2005 23.2638 27.0012 23.4631C26.8019 23.6623 26.6027 23.762 26.5031 23.9612C26.4034 24.0608 26.2042 24.1605 26.2042 24.0608C26.1046 24.0608 26.0049 24.0608 26.0049 23.9612C25.9053 23.8616 25.8057 23.7619 25.7061 23.6623C25.6064 23.5627 25.6064 23.3634 25.5068 23.1642C25.5068 22.9649 25.5068 22.7657 25.5068 22.666C25.5068 22.5664 25.5068 22.2675 25.5068 22.0683C25.5068 21.7694 25.5068 21.5701 25.5068 21.4705C25.5068 21.1716 25.5068 20.7731 25.5068 20.3746C25.5068 19.9761 25.5068 19.6772 25.5068 19.478C25.5068 19.2787 25.5068 18.9798 25.5068 18.7806C25.5068 18.4817 25.5068 18.2824 25.5068 18.1828C25.5068 18.0832 25.4072 17.8839 25.4072 17.7843C25.3076 17.6847 25.2079 17.585 25.1083 17.4854C25.0087 17.3858 24.8094 17.3858 24.7098 17.2862C24.2116 17.1865 23.6139 17.0869 22.9165 17.0869C21.3225 17.0869 20.2266 17.1865 19.828 17.3858C19.6288 17.4854 19.4295 17.585 19.3299 17.7843C19.1306 17.9836 19.1306 18.0832 19.2303 18.0832C19.7284 18.1828 20.1269 18.3821 20.3262 18.6809L20.4258 18.8802C20.5254 18.9798 20.5254 19.1791 20.625 19.478C20.7247 19.7769 20.7247 20.0757 20.7247 20.4742C20.7247 21.072 20.7247 21.6698 20.7247 22.0683C20.7247 22.5664 20.625 22.8653 20.625 23.1642C20.625 23.4631 20.5254 23.6623 20.4258 23.762C20.3262 23.9612 20.3262 24.0608 20.2265 24.0608C20.2265 24.0608 20.2265 24.1605 20.1269 24.1605C20.0273 24.1605 19.9277 24.2601 19.7284 24.2601C19.6288 24.2601 19.4295 24.1605 19.3299 24.0608C19.1306 23.9612 18.9314 23.762 18.8318 23.5627C18.6325 23.3634 18.4332 23.0646 18.234 22.666C18.0347 22.2675 17.7358 21.869 17.5366 21.2713L17.3374 20.8728C17.2377 20.6735 17.0385 20.275 16.8392 19.7769C16.64 19.2787 16.4407 18.8802 16.2414 18.3821C16.1418 18.1828 16.0422 18.0832 15.9426 17.9836H15.8429C15.8429 17.9836 15.7433 17.8839 15.6437 17.8839C15.544 17.8839 15.4444 17.7843 15.3448 17.7843H11.7582C11.3597 17.7843 11.1604 17.8839 11.0608 17.9836L10.9612 18.0832C10.9612 18.0832 10.9612 18.1828 10.9612 18.2824C10.9612 18.3821 10.9612 18.4817 11.0608 18.6809C11.559 19.8765 12.1567 21.072 12.7545 22.2675C13.3522 23.3634 13.95 24.3597 14.3485 25.0571C14.8467 25.7545 15.2452 26.4519 15.7433 27.0497C16.2414 27.6474 16.5403 28.0459 16.6399 28.2452C16.8392 28.4444 16.9388 28.5441 17.0385 28.6437L17.3374 28.9426C17.5366 29.1418 17.8355 29.4407 18.234 29.7396C18.6325 30.0385 19.1306 30.3374 19.6288 30.6362C20.1269 30.9351 20.7247 31.1344 21.3225 31.3337C22.0198 31.5329 22.6176 31.6325 23.2154 31.5329H24.7098C25.0087 31.5329 25.2079 31.4333 25.4072 31.234L25.5068 31.1344C25.5068 31.0348 25.6064 31.0348 25.6064 30.9351C25.6064 30.8355 25.6064 30.7359 25.6064 30.5366C25.6064 30.1381 25.6064 29.8392 25.7061 29.5404C25.8057 29.2415 25.8057 29.0422 25.9053 28.843C26.005 28.6437 26.1046 28.5441 26.2042 28.4444C26.3038 28.3448 26.4035 28.2452 26.4035 28.2452H26.5031C26.7023 28.1456 27.0012 28.2452 27.2005 28.4444C27.4994 28.6437 27.7982 28.9426 27.9975 29.2415C28.1967 29.5404 28.4956 29.8392 28.8942 30.2377C29.2927 30.6363 29.5915 30.9351 29.7908 31.0348L30.0897 31.234C30.2889 31.3336 30.4882 31.4333 30.7871 31.5329C31.086 31.6325 31.2852 31.6325 31.4844 31.6325L34.8718 31.5329C35.1707 31.5329 35.4696 31.4333 35.6688 31.3337C35.8681 31.234 35.9677 31.1344 35.9677 30.9351C35.9677 30.8355 35.9677 30.6363 35.9677 30.5366C35.7684 30.3374 35.7684 30.2377 35.7684 30.1381Z" fill="#247783"/>
</svg>
