<svg width="51" height="34" viewBox="0 0 51 34" fill="none" xmlns="http://www.w3.org/2000/svg">
<path d="M0 4.25C0 1.90279 1.90279 0 4.25 0H46.75C49.0972 0 51 1.90279 51 4.25V29.75C51 32.0972 49.0972 34 46.75 34H4.25C1.90279 34 0 32.0972 0 29.75V4.25Z" fill="#D1EAFA"/>
<path d="M28.9485 16.5072L26.1768 13.4891L23.0971 16.1993L25.8688 19.279L28.9485 16.5072Z" fill="#137ABE"/>
<path d="M20.8797 11.0254L23.6514 14.0435L26.7311 11.3333L23.9594 8.31522L20.8797 11.0254Z" fill="#137ABE"/>
<path d="M31.1043 21.7428L28.3326 18.7246L25.2529 21.4964L28.0246 24.5145L31.1043 21.7428Z" fill="#137ABE"/>
<path d="M27.9014 26.7935L22.8507 21.1884L24.2674 19.9565L20.6949 16.0145L22.1116 14.7826L18.5391 10.8406L24.1442 5.85145L25.9304 7.76087L29.0101 5.11232L30.7963 6.96014L31.9666 5.91304C31.7202 5.78986 31.4123 5.60507 31.1659 5.48188C29.3797 4.74275 27.4702 4.25 25.4376 4.25C18.3543 4.25 12.5645 9.97826 12.5645 17C12.5645 24.0217 18.3543 29.75 25.4992 29.75C27.8398 29.75 29.9956 29.1341 31.8434 28.087C32.4594 27.7174 33.0137 27.3478 33.5681 26.9783L30.9811 24.0833L27.9014 26.7935Z" fill="#137ABE"/>
<path d="M26.5463 9.5471L28.5789 11.8261L30.9195 9.79348L28.8253 7.51449L26.5463 9.5471Z" fill="#137ABE"/>
<path d="M33.0137 14.3514L30.9195 12.0725L28.6405 14.1667L30.7347 16.3841L33.0137 14.3514Z" fill="#137ABE"/>
<path d="M34.9847 19.1558L32.8905 16.8768L30.6116 18.9094L32.7058 21.25L34.9847 19.1558Z" fill="#137ABE"/>
<path d="M35.1079 11.6413L33.5681 12.9964L34.9847 14.5362L36.463 13.1812L35.1079 11.6413Z" fill="#137ABE"/>
<path d="M35.5391 17.4928L36.8942 19.0326L38.434 17.6775L37.0174 16.1377L35.5391 17.4928Z" fill="#137ABE"/>
<path d="M31.5971 8.5L33.0137 10.0399L34.492 8.68478L33.1369 7.14493L31.5971 8.5Z" fill="#137ABE"/>
<path d="M32.6442 23.529L34.7384 25.808L37.0174 23.7754L34.9231 21.4964L32.6442 23.529Z" fill="#137ABE"/>
</svg>
