<svg width="51" height="34" viewBox="0 0 51 34" fill="none" xmlns="http://www.w3.org/2000/svg">
<path d="M0 4.25C0 1.90279 1.90279 0 4.25 0H46.75C49.0972 0 51 1.90279 51 4.25V29.75C51 32.0972 49.0972 34 46.75 34H4.25C1.90279 34 0 32.0972 0 29.75V4.25Z" fill="#FAE3D1"/>
<path d="M36.7763 12.9025C36.658 12.1928 36.0074 11.7196 35.1203 11.7196C34.8246 11.7196 34.588 11.7196 34.2923 11.7196C33.76 11.6605 33.6417 11.8379 33.6417 12.2519C33.6417 14.3219 33.6417 16.3328 33.6417 18.4028C33.6417 19.4674 32.5771 20.5911 31.3351 20.8277C27.4317 21.7148 23.5282 22.5428 19.6248 23.43C19.2108 23.5483 18.7376 23.5483 18.2645 23.5483C18.087 23.5483 17.7913 23.43 17.7322 23.2526C17.673 23.1343 17.8505 22.8977 17.9688 22.7794C18.1462 22.6611 18.3828 22.5428 18.6193 22.4246C19.329 22.188 20.0979 21.9514 20.8076 21.7148C23.7056 20.7686 26.6037 19.8223 29.5017 18.8168C30.8028 18.4028 31.5125 17.5157 31.5125 16.392C31.5717 12.8434 31.5125 9.23563 31.5125 5.68704C31.5125 5.09561 31.2168 4.62247 30.5662 4.3859C29.7974 4.09018 29.0877 4.32675 28.4371 4.62247C24.2971 6.57419 20.2162 8.52592 16.0762 10.4776C14.8933 11.0691 14.1836 11.8971 14.1836 13.0799C14.1836 16.4511 14.1836 19.8223 14.1836 23.1934C14.1836 23.3708 14.1836 23.5483 14.2427 23.6666C14.6567 24.7903 15.7213 25.5 17.1408 25.5C20.0388 25.5 22.9368 25.5 25.8348 25.5C28.7328 25.5 31.5717 25.5 34.4697 25.5C35.1203 25.5 35.6525 25.3817 36.1257 24.9677C36.7171 24.4946 36.7171 23.844 36.7171 23.2526C36.7171 20.3428 36.7763 12.9025 36.7763 12.9025ZM24.7111 11.8379C25.0068 11.0691 25.6574 10.5959 26.6037 10.4776C27.2542 10.4185 27.7865 10.7734 27.9048 11.3648C28.0231 12.2519 26.9585 13.3165 25.8348 13.3165C24.9476 13.3165 24.4154 12.6659 24.7111 11.8379Z" fill="#E47418"/>
</svg>
