<svg width="48" height="48" viewBox="0 0 48 48" fill="none" xmlns="http://www.w3.org/2000/svg">
<circle opacity="0.1" cx="24" cy="24" r="24" fill="#247783"/>
<path d="M34.455 22.6965C34.455 22.2311 34.3774 21.6881 34.3774 21.0674C34.2998 20.4468 34.2223 19.8262 34.1447 19.2832C33.9895 18.6626 33.7568 18.1971 33.2913 17.8093C32.9035 17.4214 32.3604 17.1887 31.8174 17.1111C30.0332 16.8784 27.3956 16.8008 23.8271 16.8008C20.2586 16.8008 17.5435 16.8784 15.8368 17.1111C15.2938 17.1887 14.7507 17.4214 14.3629 17.8093C13.975 18.1971 13.6647 18.6626 13.5095 19.2832C13.3544 19.8262 13.2768 20.3693 13.2768 21.0674C13.1992 21.6881 13.1992 22.2311 13.1992 22.6965C13.1992 23.162 13.1992 23.705 13.1992 24.4808C13.1992 25.2565 13.1992 25.8771 13.1992 26.265C13.1992 26.7305 13.2768 27.2735 13.2768 27.8941C13.3544 28.5147 13.4319 29.1353 13.5095 29.6783C13.6647 30.299 13.8974 30.7644 14.3629 31.1523C14.7507 31.5402 15.2938 31.7729 15.8368 31.8505C17.621 32.0832 20.2586 32.1608 23.8271 32.1608C27.3956 32.1608 30.1107 32.0832 31.8174 31.8505C32.3604 31.7729 32.9035 31.5402 33.2913 31.1523C33.6792 30.7644 33.9895 30.299 34.1447 29.6783C34.2998 29.1353 34.3774 28.5923 34.3774 27.8941C34.455 27.2735 34.455 26.7305 34.455 26.265C34.455 25.7996 34.455 25.2565 34.455 24.4808C34.455 23.705 34.455 23.0844 34.455 22.6965ZM27.9386 25.1014L21.8101 28.9026C21.7326 28.9802 21.5774 29.0578 21.4223 29.0578C21.2671 29.0578 21.1895 29.0577 21.0344 28.9802C20.8017 28.825 20.6465 28.5923 20.6465 28.282V20.602C20.6465 20.2917 20.8017 20.059 21.0344 19.9038C21.2671 19.7487 21.5774 19.7487 21.8101 19.9038L27.9386 23.705C28.1713 23.8602 28.3265 24.0929 28.3265 24.3256C28.3265 24.5584 28.1713 24.9462 27.9386 25.1014Z" fill="#247783"/>
</svg>
