<svg width="48" height="48" viewBox="0 0 48 48" fill="none" xmlns="http://www.w3.org/2000/svg">
<circle cx="24" cy="24" r="24" fill="white"/>
<path d="M34.455 22.6965C34.455 22.231 34.3774 21.688 34.3774 21.0674C34.2998 20.4468 34.2223 19.8262 34.1447 19.2831C33.9895 18.6625 33.7568 18.1971 33.2913 17.8092C32.9035 17.4213 32.3604 17.1886 31.8174 17.111C30.0332 16.8783 27.3956 16.8007 23.8271 16.8007C20.2586 16.8007 17.5435 16.8783 15.8368 17.111C15.2938 17.1886 14.7507 17.4213 14.3629 17.8092C13.975 18.1971 13.6647 18.6625 13.5095 19.2831C13.3544 19.8262 13.2768 20.3692 13.2768 21.0674C13.1992 21.688 13.1992 22.231 13.1992 22.6965C13.1992 23.1619 13.1992 23.705 13.1992 24.4807C13.1992 25.2565 13.1992 25.8771 13.1992 26.265C13.1992 26.7304 13.2768 27.2734 13.2768 27.8941C13.3544 28.5147 13.4319 29.1353 13.5095 29.6783C13.6647 30.2989 13.8974 30.7644 14.3629 31.1522C14.7507 31.5401 15.2938 31.7728 15.8368 31.8504C17.621 32.0831 20.2586 32.1607 23.8271 32.1607C27.3956 32.1607 30.1107 32.0831 31.8174 31.8504C32.3604 31.7728 32.9035 31.5401 33.2913 31.1522C33.6792 30.7644 33.9895 30.2989 34.1447 29.6783C34.2998 29.1353 34.3774 28.5922 34.3774 27.8941C34.455 27.2734 34.455 26.7304 34.455 26.265C34.455 25.7995 34.455 25.2565 34.455 24.4807C34.455 23.705 34.455 23.0843 34.455 22.6965ZM27.9386 25.1013L21.8101 28.9025C21.7326 28.9801 21.5774 29.0577 21.4223 29.0577C21.2671 29.0577 21.1895 29.0577 21.0344 28.9801C20.8017 28.825 20.6465 28.5922 20.6465 28.2819V20.6019C20.6465 20.2916 20.8017 20.0589 21.0344 19.9038C21.2671 19.7486 21.5774 19.7486 21.8101 19.9038L27.9386 23.705C28.1713 23.8601 28.3265 24.0928 28.3265 24.3256C28.3265 24.5583 28.1713 24.9462 27.9386 25.1013Z" fill="#333333"/>
</svg>
